<?xml version="1.0" encoding="UTF-8"?>
<svg id="Layer_1" xmlns="http://www.w3.org/2000/svg" width="327.449mm" height="96.449mm" viewBox="0 0 928.201 273.398">
  <g id="Layer_1-2" data-name="Layer_1">
    <circle cx="48.825" cy="16.51" r="8.22" fill="aqua"/>
    <circle cx="302.999" cy="16.51" r="8.22" fill="aqua"/>
    <circle cx="605.359" cy="16.51" r="8.22" fill="aqua"/>
    <circle cx="859.534" cy="16.51" r="8.22" fill="aqua"/>
    <circle cx="859.534" cy="256.888" r="8.22" fill="aqua"/>
    <circle cx="605.359" cy="256.888" r="8.22" fill="aqua"/>
    <circle cx="302.999" cy="256.888" r="8.22" fill="aqua"/>
    <circle cx="48.825" cy="256.888" r="8.22" fill="aqua"/>
    <g id="global-translation-frame">
      <g id="opperation-1">
        <path d="M48.825,20.343c2.117,0,3.832-1.716,3.832-3.832h0c0-2.117-1.716-3.832-3.832-3.832s-3.832,1.716-3.832,3.832,1.716,3.832,3.832,3.832h0" fill="none" stroke="#000" stroke-miterlimit="11.339"/>
        <path d="M305.582,19.342c1.564-1.426,1.676-3.85.249-5.414h0c-1.426-1.564-3.85-1.676-5.414-.25h0c-1.564,1.426-1.676,3.85-.25,5.414t0,0c1.426,1.564,3.85,1.676,5.414.249t0,0" fill="none" stroke="#000" stroke-miterlimit="11.339"/>
        <path d="M609.192,256.888c0-2.117-1.716-3.832-3.832-3.832h0c-2.117,0-3.832,1.716-3.832,3.832s1.716,3.832,3.832,3.832c2.117,0,3.832-1.716,3.832-3.832h0" fill="none" stroke="#000" stroke-miterlimit="11.339"/>
        <path d="M856.951,254.056c-1.564,1.426-1.676,3.85-.249,5.414h0c1.426,1.564,3.85,1.676,5.414.25h0c1.564-1.426,1.676-3.85.249-5.414h0c-1.426-1.564-3.85-1.676-5.414-.25h0" fill="none" stroke="#000" stroke-miterlimit="11.339"/>
        <path d="M856.702,19.092c1.426,1.564,3.85,1.676,5.414.249h0c1.564-1.426,1.676-3.85.249-5.414h0c-1.426-1.564-3.85-1.676-5.414-.25h0c-1.564,1.426-1.676,3.85-.249,5.414h0" fill="none" stroke="#000" stroke-miterlimit="11.339"/>
        <path d="M605.359,20.343c2.117,0,3.832-1.716,3.832-3.832h0c0-2.117-1.716-3.832-3.832-3.832h0c-2.117,0-3.832,1.716-3.832,3.832s1.716,3.832,3.832,3.832" fill="none" stroke="#000" stroke-miterlimit="11.339"/>
        <path d="M51.657,254.306c-1.426-1.564-3.85-1.676-5.414-.249h0c-1.564,1.426-1.676,3.85-.249,5.414,0,0,0,0,0,0,1.426,1.564,3.85,1.676,5.414.249h0c1.564-1.426,1.676-3.85.249-5.414,0,0,0,0,0,0" fill="none" stroke="#000" stroke-miterlimit="11.339"/>
        <path d="M299.167,256.848c-.022,2.116,1.676,3.85,3.792,3.872h0c2.117.022,3.85-1.676,3.872-3.792h0c.022-2.117-1.676-3.85-3.792-3.873h0c-2.116-.022-3.85,1.676-3.872,3.792h0" fill="none" stroke="#000" stroke-miterlimit="11.339"/>
        <path d="M299.167,272.898H20.479c-.075,0-.136-.061-.136-.136v-19.706H.636c-.075,0-.136-.061-.136-.136V20.479c0-.075.061-.136.136-.136h19.706V.636c0-.075.061-.136.136-.136h907.087c.075,0,.136.061.136.136h0v19.843c0,.075-.061.136-.136.136h-19.706v232.169h19.706c.075,0,.136.061.136.136h0v19.843c0,.075-.061.136-.136.136H299.167" fill="none" stroke="red" stroke-miterlimit="11.339"/>
      </g>
    </g>
  </g>
  <g id="Layer_2">
    <rect x="26.507" y="37.847" width="44.633" height="44.633" fill="none" stroke="blue" stroke-miterlimit="11.339"/>
    <rect x="26.507" y="190.918" width="44.633" height="44.633" fill="none" stroke="blue" stroke-miterlimit="11.339"/>
    <rect x="280.683" y="37.847" width="44.633" height="44.633" fill="none" stroke="blue" stroke-miterlimit="11.339"/>
    <rect x="280.683" y="190.918" width="44.633" height="44.633" fill="none" stroke="blue" stroke-miterlimit="11.339"/>
    <rect x="583.043" y="37.847" width="44.633" height="44.633" fill="none" stroke="blue" stroke-miterlimit="11.339"/>
    <rect x="583.043" y="190.918" width="44.633" height="44.633" fill="none" stroke="blue" stroke-miterlimit="11.339"/>
    <rect x="837.217" y="37.847" width="44.633" height="44.633" fill="none" stroke="blue" stroke-miterlimit="11.339"/>
    <rect x="837.217" y="190.918" width="44.633" height="44.633" fill="none" stroke="blue" stroke-miterlimit="11.339"/>
  </g>
</svg>