<?xml version="1.0" encoding="utf-8"?>
<!-- Generator: Adobe Illustrator 26.1.0, SVG Export Plug-In . SVG Version: 6.00 Build 0)  -->
<svg version="1.1" xmlns="http://www.w3.org/2000/svg" xmlns:xlink="http://www.w3.org/1999/xlink" x="0px" y="0px" width="1440px"
	 height="864px" viewBox="0 0 1440 864" enable-background="new 0 0 1440 864" xml:space="preserve">
<g id="Layer_1">
	<circle fill="#00FFFF" cx="310.65298" cy="317.81104" r="8.22047"/>
	<circle fill="#00FFFF" cx="564.82715" cy="317.81104" r="8.22047"/>
	<circle fill="#00FFFF" cx="867.18744" cy="317.81104" r="8.22047"/>
	<circle fill="#00FFFF" cx="1121.36157" cy="317.81104" r="8.22047"/>
	<circle fill="#00FFFF" cx="1121.36157" cy="558.18896" r="8.22047"/>
	<circle fill="#00FFFF" cx="867.18744" cy="558.18896" r="8.22047"/>
	<circle fill="#00FFFF" cx="564.82715" cy="558.18896" r="8.22047"/>
	<circle fill="#00FFFF" cx="310.65298" cy="558.18896" r="8.22047"/>
	<g id="global-translation-frame" transform="translate(2, 98) scale(1, -1)">
		<g id="opperation-1">
			<path fill="none" stroke="#000000" stroke-miterlimit="11.33858" d="M308.65298-223.64348
				c2.11661,0,3.83246,1.71584,3.83246,3.83244c0,0.00002,0,0.00002,0,0.00002c0,2.11659-1.71585,3.83243-3.83246,3.83243
				c-2.11658,0-3.83243-1.71584-3.83243-3.83243S306.53638-223.64348,308.65298-223.64348
				C308.65298-223.64348,308.65298-223.64348,308.65298-223.64348"/>
			<path fill="none" stroke="#000000" stroke-miterlimit="11.33858" d="M565.40955-222.64284
				c1.5639,1.42619,1.67566,3.85019,0.24945,5.41414c0,0.00003,0,0.00003,0,0.00003
				c-1.42621,1.56396-3.85022,1.67567-5.41418,0.2495c0-0.00002,0-0.00002,0-0.00003
				c-1.56403-1.42619-1.67566-3.85019-0.24951-5.41415c0-0.00002,0-0.00002,0.00006-0.00003
				c1.42615-1.56398,3.85016-1.67566,5.41412-0.2495C565.40948-222.64285,565.40948-222.64285,565.40955-222.64284"/>
			<path fill="none" stroke="#000000" stroke-miterlimit="11.33858" d="M869.0199-460.18896
				c0,2.11661-1.71588,3.83243-3.83246,3.83243l0,0c-2.11658,0-3.8324-1.71585-3.8324-3.83243s1.71582-3.83243,3.8324-3.83243
				C867.30402-464.02142,869.0199-462.30557,869.0199-460.18896C869.0199-460.18896,869.0199-460.18896,869.0199-460.18896"/>
			<path fill="none" stroke="#000000" stroke-miterlimit="11.33858" d="M1116.77917-457.35715
				c-1.56396-1.42621-1.67554-3.85019-0.24939-5.41415c0,0,0-0.00003,0-0.00003c1.42615-1.56396,3.85022-1.67566,5.41418-0.24948
				c0,0,0,0.00003,0,0.00003c1.56396,1.42621,1.67566,3.85019,0.24939,5.41415c0,0,0,0.00003,0,0.00003
				c-1.42615,1.56396-3.8501,1.67566-5.41418,0.24948C1116.77917-457.35712,1116.77917-457.35715,1116.77917-457.35715"/>
			<path fill="none" stroke="#000000" stroke-miterlimit="11.33858" d="M1116.52979-222.39339
				c1.42615-1.56398,3.85022-1.67566,5.41418-0.2495c0,0.00003,0,0.00003,0,0.00005
				c1.56396,1.42621,1.67566,3.85019,0.24939,5.41414c0,0.00003,0,0.00003,0,0.00003
				c-1.42615,1.56396-3.8501,1.67567-5.41418,0.2495c0-0.00002,0-0.00002,0-0.00003
				c-1.56396-1.42619-1.67554-3.85019-0.24939-5.41415C1116.52979-222.39337,1116.52979-222.39337,1116.52979-222.39339"/>
			<path fill="none" stroke="#000000" stroke-miterlimit="11.33858" d="M865.18744-223.64348
				c2.11658,0,3.83246,1.71584,3.83246,3.83244v0.00002c0,2.11659-1.71588,3.83243-3.83246,3.83243l0,0
				c-2.11658-0.00002-3.8324-1.71585-3.8324-3.83243C861.35504-221.92761,863.07086-223.64345,865.18744-223.64348"/>
			<path fill="none" stroke="#000000" stroke-miterlimit="11.33858" d="M311.4848-457.6066
				c-1.42618,1.56396-3.85016,1.67566-5.41412,0.24948c-0.00003-0.00003-0.00003-0.00003-0.00003-0.00003
				c-1.56396-1.42618-1.67566-3.85019-0.24948-5.41415c0,0,0-0.00003,0.00003-0.00003
				c1.42618-1.56396,3.85016-1.67566,5.41412-0.24948c0.00003,0.00003,0.00003,0.00003,0.00003,0.00003
				c1.56396,1.42618,1.67566,3.85019,0.24948,5.41415C311.48483-457.60663,311.48483-457.6066,311.4848-457.6066"/>
			<path fill="none" stroke="#000000" stroke-miterlimit="11.33858" d="M558.99475-460.14929
				c-0.02209-2.11649,1.67584-3.85007,3.7923-3.8721c0.00018,0,0.00031,0,0.00043,0c2.11652-0.02203,3.8501,1.67584,3.87213,3.79233
				c0,0.00015,0,0.00027,0,0.00043c0.02203,2.11649-1.6759,3.85007-3.79236,3.8721c-0.00012,0-0.00031,0-0.00043,0
				c-2.11646,0.02203-3.85004-1.67584-3.87207-3.79233C558.99475-460.14902,558.99475-460.14914,558.99475-460.14929"/>
			<path fill="none" stroke="#FF0000" stroke-miterlimit="11.33858" d="M558.99475-476.19904h-278.6882
				c-0.07516,0-0.13608,0.06091-0.13608,0.13605v19.70645h-19.70645c-0.07513,0-0.13605,0.06094-0.13605,0.13608v232.44093
				c0,0.07513,0.06091,0.13605,0.13605,0.13605h19.70645v19.70647c0,0.07513,0.06094,0.13605,0.13608,0.13605h907.08655
				c0.0752,0,0.13611-0.0609,0.13611-0.13605l0,0v-19.84251c0-0.07515-0.06091-0.13606-0.13611-0.13606l0,0h-19.70642v-232.16882
				h19.70642c0.0752,0.00003,0.13611-0.06088,0.13611-0.13605l0,0v-19.84253c0-0.07513-0.06091-0.13605-0.13611-0.13605l0,0
				H558.99475"/>
		</g>
	</g>
</g>
<g id="Layer_2">
	<g display="none">
		<path vector-effect="non-scaling-stroke" display="inline" fill="none" stroke="#0000FF" stroke-miterlimit="10" d="
			M293.64511,487.60629v1.41733v80.78741v1.4173h34.01575v-1.4173v-80.78741v-1.41733v-99.21259v-1.41733V306.189v-1.41733
			h-34.01575v1.41733v80.78738v1.41733V487.60629z"/>
		<path vector-effect="non-scaling-stroke" display="inline" fill="none" stroke="#0000FF" stroke-miterlimit="113.38582" d="
			M310.65298,355.08661c-3.52243-0.00174-6.37936,2.85236-6.3811,6.37479c-0.00177,3.52246,2.85233,6.37936,6.37479,6.38113
			c0.00211,0,0.00421,0,0.00632,0c3.52246,0,6.37796-2.85553,6.37796-6.37796
			C317.03094,357.94211,314.17545,355.08661,310.65298,355.08661z"/>
		<path vector-effect="non-scaling-stroke" display="inline" fill="none" stroke="#0000FF" stroke-miterlimit="113.38582" d="
			M310.65298,508.15747c-3.52243-0.00311-6.38046,2.84988-6.38354,6.37231c-0.00311,3.52246,2.84988,6.38049,6.37231,6.38361
			c0.00375,0,0.00751,0,0.01123,0c3.52246,0.00311,6.38049-2.84991,6.38358-6.37238
			c0.00311-3.52243-2.84988-6.38043-6.37231-6.38354C310.66049,508.15747,310.65674,508.15747,310.65298,508.15747z"/>
		<path vector-effect="non-scaling-stroke" display="inline" fill="none" stroke="#0000FF" stroke-miterlimit="113.38582" d="
			M310.65298,554.64569c-1.95691,0-3.5433,1.58636-3.5433,3.54327s1.5864,3.54333,3.5433,3.54333
			c1.95694,0,3.54333-1.58643,3.54333-3.54333S312.60992,554.64569,310.65298,554.64569z"/>
		<path vector-effect="non-scaling-stroke" display="inline" fill="none" stroke="#0000FF" stroke-miterlimit="113.38582" d="
			M310.65298,314.26773c-1.95691-0.00098-3.54407,1.58466-3.54501,3.54156c-0.00098,1.95691,1.58466,3.54407,3.54156,3.54504
			c0.00116,0,0.00232,0,0.00345,0c1.95694,0,3.54333-1.5864,3.54333-3.5433S312.60992,314.26773,310.65298,314.26773z"/>
	</g>
	
		<rect x="288.33514" y="339.14832" fill="none" stroke="#0000FF" stroke-miterlimit="11.33858" width="44.63251" height="44.63251"/>
	
		<rect x="288.33514" y="492.21918" fill="none" stroke="#0000FF" stroke-miterlimit="11.33858" width="44.63251" height="44.63251"/>
	<g display="none">
		<path vector-effect="non-scaling-stroke" display="inline" fill="none" stroke="#0000FF" stroke-miterlimit="10" d="
			M547.82086,487.60629v1.41733v80.78741v1.4173h34.01575v-1.4173v-80.78741v-1.41733v-99.21259v-1.41733V306.189v-1.41733
			h-34.01575v1.41733v80.78738v1.41733V487.60629z"/>
		<path vector-effect="non-scaling-stroke" display="inline" fill="none" stroke="#0000FF" stroke-miterlimit="113.38582" d="
			M564.82874,355.08661c-3.52246-0.00174-6.37939,2.85236-6.3811,6.37479c-0.00177,3.52246,2.85229,6.37936,6.37476,6.38113
			c0.00214,0,0.00421,0,0.00635,0c3.52246,0,6.37793-2.85553,6.37793-6.37796
			C571.20667,357.94211,568.3512,355.08661,564.82874,355.08661z"/>
		<path vector-effect="non-scaling-stroke" display="inline" fill="none" stroke="#0000FF" stroke-miterlimit="113.38582" d="
			M564.82874,508.15747c-3.52246-0.00311-6.38043,2.84988-6.38354,6.37231c-0.00311,3.52246,2.84985,6.38049,6.37231,6.38361
			c0.00372,0,0.00751,0,0.01123,0c3.52246,0.00311,6.38049-2.84991,6.38361-6.37238
			c0.00305-3.52243-2.84991-6.38043-6.37238-6.38354C564.83624,508.15747,564.83252,508.15747,564.82874,508.15747z"/>
		<path vector-effect="non-scaling-stroke" display="inline" fill="none" stroke="#0000FF" stroke-miterlimit="113.38582" d="
			M564.82874,554.64569c-1.95691,0-3.54327,1.58636-3.54327,3.54327s1.58636,3.54333,3.54327,3.54333
			s3.54333-1.58643,3.54333-3.54333S566.78564,554.64569,564.82874,554.64569z"/>
		<path vector-effect="non-scaling-stroke" display="inline" fill="none" stroke="#0000FF" stroke-miterlimit="113.38582" d="
			M564.82874,314.26773c-1.95691-0.00098-3.54407,1.58466-3.54504,3.54156c-0.00092,1.95691,1.58466,3.54407,3.54156,3.54504
			c0.00116,0,0.00232,0,0.00348,0c1.95691,0,3.54333-1.5864,3.54333-3.5433S566.78564,314.26773,564.82874,314.26773z"/>
	</g>
	
		<rect x="542.51093" y="339.14832" fill="none" stroke="#0000FF" stroke-miterlimit="11.33858" width="44.63251" height="44.63251"/>
	
		<rect x="542.51093" y="492.21918" fill="none" stroke="#0000FF" stroke-miterlimit="11.33858" width="44.63251" height="44.63251"/>
	<g display="none">
		<path vector-effect="non-scaling-stroke" display="inline" fill="none" stroke="#0000FF" stroke-miterlimit="10" d="
			M850.18115,487.60629v1.41733v80.78741v1.4173h34.01575v-1.4173v-80.78741v-1.41733v-99.21259v-1.41733V306.189v-1.41733
			h-34.01575v1.41733v80.78738v1.41733V487.60629z"/>
		<path vector-effect="non-scaling-stroke" display="inline" fill="none" stroke="#0000FF" stroke-miterlimit="113.38582" d="
			M867.18903,355.08661c-3.52246-0.00174-6.37933,2.85236-6.3811,6.37479c-0.00177,3.52246,2.85236,6.37936,6.37476,6.38113
			c0.00214,0,0.00427,0,0.00635,0c3.52246,0,6.37799-2.85553,6.37799-6.37796
			C873.56702,357.94211,870.71149,355.08661,867.18903,355.08661z"/>
		<path vector-effect="non-scaling-stroke" display="inline" fill="none" stroke="#0000FF" stroke-miterlimit="113.38582" d="
			M867.18903,508.15747c-3.5224-0.00311-6.38043,2.84988-6.38354,6.37231c-0.00311,3.52246,2.84985,6.38049,6.37231,6.38361
			c0.00372,0,0.00751,0,0.01123,0c3.52246,0.00311,6.38049-2.84991,6.38361-6.37238
			c0.00311-3.52243-2.84991-6.38043-6.37238-6.38354C867.19653,508.15747,867.19281,508.15747,867.18903,508.15747z"/>
		<path vector-effect="non-scaling-stroke" display="inline" fill="none" stroke="#0000FF" stroke-miterlimit="113.38582" d="
			M867.18903,554.64569c-1.95691,0-3.54327,1.58636-3.54327,3.54327s1.58636,3.54333,3.54327,3.54333
			s3.54333-1.58643,3.54333-3.54333S869.14594,554.64569,867.18903,554.64569z"/>
		<path vector-effect="non-scaling-stroke" display="inline" fill="none" stroke="#0000FF" stroke-miterlimit="113.38582" d="
			M867.18903,314.26773c-1.95691-0.00098-3.54407,1.58466-3.54504,3.54156c-0.00092,1.95691,1.58466,3.54407,3.54163,3.54504
			c0.0011,0,0.00226,0,0.00342,0c1.95691,0,3.54333-1.5864,3.54333-3.5433S869.14594,314.26773,867.18903,314.26773z"/>
	</g>
	
		<rect x="844.87122" y="339.14832" fill="none" stroke="#0000FF" stroke-miterlimit="11.33858" width="44.63251" height="44.63251"/>
	
		<rect x="844.87122" y="492.21918" fill="none" stroke="#0000FF" stroke-miterlimit="11.33858" width="44.63251" height="44.63251"/>
	<g display="none">
		<path vector-effect="non-scaling-stroke" display="inline" fill="none" stroke="#0000FF" stroke-miterlimit="10" d="
			M1104.35535,487.60629v1.41733v80.78741v1.4173h34.01575v-1.4173v-80.78741v-1.41733v-99.21259v-1.41733V306.189v-1.41733
			h-34.01575v1.41733v80.78738v1.41733V487.60629z"/>
		<path vector-effect="non-scaling-stroke" display="inline" fill="none" stroke="#0000FF" stroke-miterlimit="113.38582" d="
			M1121.36316,355.08661c-3.52246-0.00174-6.37927,2.85236-6.3811,6.37479c-0.00171,3.52246,2.85229,6.37936,6.37476,6.38113
			c0.0022,0,0.00427,0,0.00635,0c3.52246,0,6.37805-2.85553,6.37805-6.37796
			C1127.74121,357.94211,1124.88562,355.08661,1121.36316,355.08661z"/>
		<path vector-effect="non-scaling-stroke" display="inline" fill="none" stroke="#0000FF" stroke-miterlimit="113.38582" d="
			M1121.36316,508.15747c-3.52246-0.00311-6.38037,2.84988-6.38354,6.37231c-0.00305,3.52246,2.84985,6.38049,6.37231,6.38361
			c0.00378,0,0.00757,0,0.01123,0c3.52246,0.00311,6.38049-2.84991,6.38367-6.37238
			c0.00305-3.52243-2.84998-6.38043-6.37244-6.38354C1121.37073,508.15747,1121.36694,508.15747,1121.36316,508.15747z"/>
		<path vector-effect="non-scaling-stroke" display="inline" fill="none" stroke="#0000FF" stroke-miterlimit="113.38582" d="
			M1121.36316,554.64569c-1.95691,0-3.54321,1.58636-3.54321,3.54327s1.5863,3.54333,3.54321,3.54333
			s3.54333-1.58643,3.54333-3.54333S1123.32007,554.64569,1121.36316,554.64569z"/>
		<path vector-effect="non-scaling-stroke" display="inline" fill="none" stroke="#0000FF" stroke-miterlimit="113.38582" d="
			M1121.36316,314.26773c-1.95691-0.00098-3.54407,1.58466-3.54504,3.54156c-0.00085,1.95691,1.58472,3.54407,3.54163,3.54504
			c0.0011,0,0.00232,0,0.00342,0c1.95691,0,3.54333-1.5864,3.54333-3.5433S1123.32007,314.26773,1121.36316,314.26773z"/>
	</g>
	
		<rect x="1099.04541" y="339.14832" fill="none" stroke="#0000FF" stroke-miterlimit="11.33858" width="44.63251" height="44.63251"/>
	
		<rect x="1099.04541" y="492.21918" fill="none" stroke="#0000FF" stroke-miterlimit="11.33858" width="44.63251" height="44.63251"/>
	<g>
	</g>
	<g>
	</g>
	<g>
	</g>
	<g>
	</g>
	<g>
	</g>
	<g>
	</g>
</g>
</svg>
