<?xml version="1.0" encoding="utf-8"?>
<!-- Generator: Adobe Illustrator 26.1.0, SVG Export Plug-In . SVG Version: 6.00 Build 0)  -->
<svg version="1.1" id="Layer_1" xmlns="http://www.w3.org/2000/svg" xmlns:xlink="http://www.w3.org/1999/xlink" x="0px" y="0px"
	 width="1440px" height="864px" viewBox="0 0 1440 864" enable-background="new 0 0 1440 864" xml:space="preserve">
<circle fill="#00FFFF" cx="310.65298" cy="317.81104" r="8.22047"/>
<circle fill="#00FFFF" cx="564.82715" cy="317.81104" r="8.22047"/>
<circle fill="#00FFFF" cx="867.18744" cy="317.81104" r="8.22047"/>
<circle fill="#00FFFF" cx="1121.36157" cy="317.81104" r="8.22047"/>
<circle fill="#00FFFF" cx="1121.36157" cy="558.18896" r="8.22047"/>
<circle fill="#00FFFF" cx="867.18744" cy="558.18896" r="8.22047"/>
<circle fill="#00FFFF" cx="564.82715" cy="558.18896" r="8.22047"/>
<circle fill="#00FFFF" cx="310.65298" cy="558.18896" r="8.22047"/>
<g id="global-translation-frame" transform="translate(2, 98) scale(1, -1)">
	<g id="opperation-1">
		<polyline fill="none" stroke="#000000" stroke-miterlimit="11.33858" points="490.20636,-421.00284 490.20636,-422.06866 
			512.61145,-422.06866 512.61145,-399.6636 490.20636,-399.6636 490.20636,-421.00284 		"/>
		<polyline fill="none" stroke="#000000" stroke-miterlimit="11.33858" points="461.85989,-421.00284 461.85989,-422.06866 
			484.26495,-422.06866 484.26495,-399.6636 461.85989,-399.6636 461.85989,-421.00284 		"/>
		<polyline fill="none" stroke="#000000" stroke-miterlimit="11.33858" points="433.51346,-420.4614 433.51346,-421.79935 
			433.51346,-422.06866 455.91852,-422.06866 455.91852,-399.6636 433.51346,-399.6636 433.51346,-420.4614 		"/>
		<polyline fill="none" stroke="#000000" stroke-miterlimit="11.33858" points="405.16702,-420.4614 405.16702,-421.79935 
			405.16702,-422.06866 427.57205,-422.06866 427.57205,-399.6636 405.16702,-399.6636 405.16702,-420.4614 		"/>
		<polyline fill="none" stroke="#000000" stroke-miterlimit="11.33858" points="376.82056,-420.4614 376.82056,-421.79935 
			376.82056,-422.06866 399.22559,-422.06866 399.22559,-399.6636 376.82056,-399.6636 376.82056,-420.4614 		"/>
		<polyline fill="none" stroke="#000000" stroke-miterlimit="11.33858" points="369.81332,-422.06866 370.87915,-422.06866 
			370.87915,-399.6636 348.47409,-399.6636 348.47409,-422.06866 369.81332,-422.06866 		"/>
		<polyline fill="none" stroke="#000000" stroke-miterlimit="11.33858" points="370.87915,-429.61731 370.87915,-428.27936 
			370.87915,-428.01007 348.47409,-428.01007 348.47409,-450.4151 370.87915,-450.4151 370.87915,-429.61731 		"/>
		<polyline fill="none" stroke="#000000" stroke-miterlimit="11.33858" points="399.22559,-429.61731 399.22559,-428.27936 
			399.22559,-428.01007 376.82056,-428.01007 376.82056,-450.4151 399.22559,-450.4151 399.22559,-429.61731 		"/>
		<polyline fill="none" stroke="#000000" stroke-miterlimit="11.33858" points="427.57205,-429.61731 427.57205,-428.27936 
			427.57205,-428.01007 405.16702,-428.01007 405.16702,-450.4151 427.57205,-450.4151 427.57205,-429.61731 		"/>
		<polyline fill="none" stroke="#000000" stroke-miterlimit="11.33858" points="455.91852,-429.0759 455.91852,-428.01007 
			433.51346,-428.01007 433.51346,-450.4151 455.91852,-450.4151 455.91852,-429.0759 		"/>
		<polyline fill="none" stroke="#000000" stroke-miterlimit="11.33858" points="484.26495,-429.0759 484.26495,-428.01007 
			461.85989,-428.01007 461.85989,-450.4151 484.26495,-450.4151 484.26495,-429.0759 		"/>
		<polyline fill="none" stroke="#000000" stroke-miterlimit="11.33858" points="512.61145,-429.0759 512.61145,-428.01007 
			490.20636,-428.01007 490.20636,-450.4151 512.61145,-450.4151 512.61145,-429.0759 		"/>
		<polyline fill="none" stroke="#000000" stroke-miterlimit="11.33858" points="540.95789,-429.0759 540.95789,-428.01007 
			518.5528,-428.01007 518.5528,-450.4151 540.95789,-450.4151 540.95789,-429.0759 		"/>
		<polyline fill="none" stroke="#000000" stroke-miterlimit="11.33858" points="569.30432,-429.0759 569.30432,-428.01007 
			546.89929,-428.01007 546.89929,-450.4151 569.30432,-450.4151 569.30432,-429.0759 		"/>
		<polyline fill="none" stroke="#000000" stroke-miterlimit="11.33858" points="597.65076,-429.0759 597.65076,-428.01007 
			575.24573,-428.01007 575.24573,-450.4151 597.65076,-450.4151 597.65076,-429.0759 		"/>
		<polyline fill="none" stroke="#000000" stroke-miterlimit="11.33858" points="604.65802,-428.01007 603.59216,-428.01007 
			603.59216,-450.4151 625.99719,-450.4151 625.99719,-428.01007 604.65802,-428.01007 		"/>
		<polyline fill="none" stroke="#000000" stroke-miterlimit="11.33858" points="603.59216,-421.00284 603.59216,-422.06866 
			625.99719,-422.06866 625.99719,-399.6636 603.59216,-399.6636 603.59216,-421.00284 		"/>
		<polyline fill="none" stroke="#000000" stroke-miterlimit="11.33858" points="575.24573,-421.00284 575.24573,-422.06866 
			597.65076,-422.06866 597.65076,-399.6636 575.24573,-399.6636 575.24573,-421.00284 		"/>
		<polyline fill="none" stroke="#000000" stroke-miterlimit="11.33858" points="546.89929,-421.00284 546.89929,-422.06866 
			569.30432,-422.06866 569.30432,-399.6636 546.89929,-399.6636 546.89929,-421.00284 		"/>
		<polyline fill="none" stroke="#000000" stroke-miterlimit="11.33858" points="540.95789,-400.72943 540.95789,-399.6636 
			518.5528,-399.6636 518.5528,-422.06866 540.95789,-422.06866 540.95789,-400.72943 		"/>
		<polyline fill="none" stroke="#000000" stroke-miterlimit="11.33858" points="539.89203,-393.7222 540.95789,-393.7222 
			540.95789,-371.31717 518.5528,-371.31717 518.5528,-393.7222 539.89203,-393.7222 		"/>
		<polyline fill="none" stroke="#000000" stroke-miterlimit="11.33858" points="548.50653,-371.31717 547.16858,-371.31717 
			546.89929,-371.31717 546.89929,-393.7222 569.30432,-393.7222 569.30432,-371.31717 548.50653,-371.31717 		"/>
		<polyline fill="none" stroke="#000000" stroke-miterlimit="11.33858" points="548.50653,-342.9707 547.16858,-342.9707 
			546.89929,-342.9707 546.89929,-365.37573 569.30432,-365.37573 569.30432,-342.9707 548.50653,-342.9707 		"/>
		<polyline fill="none" stroke="#000000" stroke-miterlimit="11.33858" points="548.50653,-314.62424 547.16858,-314.62424 
			546.89929,-314.62424 546.89929,-337.0293 569.30432,-337.0293 569.30432,-314.62424 548.50653,-314.62424 		"/>
		<polyline fill="none" stroke="#000000" stroke-miterlimit="11.33858" points="546.89929,-307.617 546.89929,-308.68283 
			569.30432,-308.68283 569.30432,-286.27777 546.89929,-286.27777 546.89929,-307.617 		"/>
		<polyline fill="none" stroke="#000000" stroke-miterlimit="11.33858" points="518.5528,-307.617 518.5528,-308.68283 
			540.95789,-308.68283 540.95789,-286.27777 518.5528,-286.27777 518.5528,-307.617 		"/>
		<polyline fill="none" stroke="#000000" stroke-miterlimit="11.33858" points="512.61145,-287.34363 512.61145,-286.27777 
			490.20636,-286.27777 490.20636,-308.68283 512.61145,-308.68283 512.61145,-287.34363 		"/>
		<polyline fill="none" stroke="#000000" stroke-miterlimit="11.33858" points="490.20636,-279.27054 490.20636,-280.3364 
			512.61145,-280.3364 512.61145,-257.93134 490.20636,-257.93134 490.20636,-279.27054 		"/>
		<polyline fill="none" stroke="#000000" stroke-miterlimit="11.33858" points="484.26495,-258.99716 484.26495,-257.93134 
			461.85989,-257.93134 461.85989,-280.3364 484.26495,-280.3364 484.26495,-258.99716 		"/>
		<polyline fill="none" stroke="#000000" stroke-miterlimit="11.33858" points="461.85989,-250.92409 461.85989,-251.98993 
			484.26495,-251.98993 484.26495,-229.58487 461.85989,-229.58487 461.85989,-250.92409 		"/>
		<polyline fill="none" stroke="#000000" stroke-miterlimit="11.33858" points="454.85266,-251.98993 455.91852,-251.98993 
			455.91852,-229.58487 433.51346,-229.58487 433.51346,-251.98993 454.85266,-251.98993 		"/>
		<polyline fill="none" stroke="#000000" stroke-miterlimit="11.33858" points="454.85266,-280.3364 455.91852,-280.3364 
			455.91852,-257.93134 433.51346,-257.93134 433.51346,-280.3364 454.85266,-280.3364 		"/>
		<polyline fill="none" stroke="#000000" stroke-miterlimit="11.33858" points="434.57928,-286.27777 433.51346,-286.27777 
			433.51346,-308.68283 455.91852,-308.68283 455.91852,-286.27777 434.57928,-286.27777 		"/>
		<polyline fill="none" stroke="#000000" stroke-miterlimit="11.33858" points="406.23285,-286.27777 405.16702,-286.27777 
			405.16702,-308.68283 427.57205,-308.68283 427.57205,-286.27777 406.23285,-286.27777 		"/>
		<polyline fill="none" stroke="#000000" stroke-miterlimit="11.33858" points="377.88638,-286.27777 376.82056,-286.27777 
			376.82056,-308.68283 399.22559,-308.68283 399.22559,-286.27777 377.88638,-286.27777 		"/>
		<polyline fill="none" stroke="#000000" stroke-miterlimit="11.33858" points="369.83032,-308.68283 370.87915,-308.68283 
			370.87915,-286.27777 348.47409,-286.27777 348.47409,-308.68283 369.83032,-308.68283 		"/>
		<polyline fill="none" stroke="#000000" stroke-miterlimit="11.33858" points="370.87915,-315.67307 370.87915,-314.62424 
			348.47409,-314.62424 348.47409,-337.0293 370.87915,-337.0293 370.87915,-315.67307 		"/>
		<polyline fill="none" stroke="#000000" stroke-miterlimit="11.33858" points="399.22559,-315.67307 399.22559,-314.62424 
			376.82056,-314.62424 376.82056,-337.0293 399.22559,-337.0293 399.22559,-315.67307 		"/>
		<polyline fill="none" stroke="#000000" stroke-miterlimit="11.33858" points="405.16702,-335.98047 405.16702,-337.0293 
			427.57205,-337.0293 427.57205,-314.62424 405.16702,-314.62424 405.16702,-335.98047 		"/>
		<polyline fill="none" stroke="#000000" stroke-miterlimit="11.33858" points="405.16702,-364.32693 405.16702,-365.37573 
			427.57205,-365.37573 427.57205,-342.9707 405.16702,-342.9707 405.16702,-364.32693 		"/>
		<polyline fill="none" stroke="#000000" stroke-miterlimit="11.33858" points="406.21582,-371.31717 405.16702,-371.31717 
			405.16702,-393.7222 427.57205,-393.7222 427.57205,-371.31717 406.21582,-371.31717 		"/>
		<polyline fill="none" stroke="#000000" stroke-miterlimit="11.33858" points="399.22559,-372.36597 399.22559,-371.31717 
			376.82056,-371.31717 376.82056,-393.7222 399.22559,-393.7222 399.22559,-372.36597 		"/>
		<polyline fill="none" stroke="#000000" stroke-miterlimit="11.33858" points="376.82056,-364.32693 376.82056,-365.37573 
			399.22559,-365.37573 399.22559,-342.9707 376.82056,-342.9707 376.82056,-364.32693 		"/>
		<polyline fill="none" stroke="#000000" stroke-miterlimit="11.33858" points="369.83032,-365.37573 370.87915,-365.37573 
			370.87915,-342.9707 348.47409,-342.9707 348.47409,-365.37573 369.83032,-365.37573 		"/>
		<polyline fill="none" stroke="#000000" stroke-miterlimit="11.33858" points="350.08133,-371.31717 348.74338,-371.31717 
			348.47409,-371.31717 348.47409,-393.7222 370.87915,-393.7222 370.87915,-371.31717 350.08133,-371.31717 		"/>
		<polyline fill="none" stroke="#000000" stroke-miterlimit="11.33858" points="342.53268,-372.383 342.53268,-371.31717 
			320.12766,-371.31717 320.12766,-393.7222 342.53268,-393.7222 342.53268,-372.383 		"/>
		<polyline fill="none" stroke="#000000" stroke-miterlimit="11.33858" points="342.53268,-344.03653 342.53268,-342.9707 
			320.12766,-342.9707 320.12766,-365.37573 342.53268,-365.37573 342.53268,-344.03653 		"/>
		<polyline fill="none" stroke="#000000" stroke-miterlimit="11.33858" points="342.53268,-315.69006 342.53268,-314.62424 
			320.12766,-314.62424 320.12766,-337.0293 342.53268,-337.0293 342.53268,-315.69006 		"/>
		<polyline fill="none" stroke="#000000" stroke-miterlimit="11.33858" points="342.53268,-287.34363 342.53268,-286.27777 
			320.12766,-286.27777 320.12766,-308.68283 342.53268,-308.68283 342.53268,-287.34363 		"/>
		<polyline fill="none" stroke="#000000" stroke-miterlimit="11.33858" points="342.53268,-258.99716 342.53268,-257.93134 
			320.12766,-257.93134 320.12766,-280.3364 342.53268,-280.3364 342.53268,-258.99716 		"/>
		<polyline fill="none" stroke="#000000" stroke-miterlimit="11.33858" points="320.12766,-250.92409 320.12766,-251.98993 
			342.53268,-251.98993 342.53268,-229.58487 320.12766,-229.58487 320.12766,-250.92409 		"/>
		<polyline fill="none" stroke="#000000" stroke-miterlimit="11.33858" points="313.12039,-251.98993 314.18622,-251.98993 
			314.18622,-229.58487 291.78119,-229.58487 291.78119,-251.98993 313.12039,-251.98993 		"/>
		<polyline fill="none" stroke="#000000" stroke-miterlimit="11.33858" points="313.12039,-280.3364 314.18622,-280.3364 
			314.18622,-257.93134 291.78119,-257.93134 291.78119,-280.3364 313.12039,-280.3364 		"/>
		<polyline fill="none" stroke="#000000" stroke-miterlimit="11.33858" points="312.57898,-308.68283 313.91693,-308.68283 
			314.18622,-308.68283 314.18622,-286.27777 291.78119,-286.27777 291.78119,-308.68283 312.57898,-308.68283 		"/>
		<polyline fill="none" stroke="#000000" stroke-miterlimit="11.33858" points="312.57898,-337.0293 313.91693,-337.0293 
			314.18622,-337.0293 314.18622,-314.62424 291.78119,-314.62424 291.78119,-337.0293 312.57898,-337.0293 		"/>
		<polyline fill="none" stroke="#000000" stroke-miterlimit="11.33858" points="312.57898,-365.37573 313.91693,-365.37573 
			314.18622,-365.37573 314.18622,-342.9707 291.78119,-342.9707 291.78119,-365.37573 312.57898,-365.37573 		"/>
		<polyline fill="none" stroke="#000000" stroke-miterlimit="11.33858" points="292.83002,-371.31717 291.78119,-371.31717 
			291.78119,-393.7222 314.18622,-393.7222 314.18622,-371.31717 292.83002,-371.31717 		"/>
		<polyline fill="none" stroke="#000000" stroke-miterlimit="11.33858" points="285.83978,-372.36597 285.83978,-371.31717 
			263.43472,-371.31717 263.43472,-393.7222 285.83978,-393.7222 285.83978,-372.36597 		"/>
		<polyline fill="none" stroke="#000000" stroke-miterlimit="11.33858" points="285.83978,-344.01953 285.83978,-342.9707 
			263.43472,-342.9707 263.43472,-365.37573 285.83978,-365.37573 285.83978,-344.01953 		"/>
		<polyline fill="none" stroke="#000000" stroke-miterlimit="11.33858" points="285.83978,-315.67307 285.83978,-314.62424 
			263.43472,-314.62424 263.43472,-337.0293 285.83978,-337.0293 285.83978,-315.67307 		"/>
		<polyline fill="none" stroke="#000000" stroke-miterlimit="11.33858" points="285.83978,-287.88504 285.83978,-286.54709 
			285.83978,-286.27777 263.43472,-286.27777 263.43472,-308.68283 285.83978,-308.68283 285.83978,-287.88504 		"/>
		<polyline fill="none" stroke="#000000" stroke-miterlimit="11.33858" points="285.83978,-259.53857 285.83978,-258.20062 
			285.83978,-257.93134 263.43472,-257.93134 263.43472,-280.3364 285.83978,-280.3364 285.83978,-259.53857 		"/>
		<polyline fill="none" stroke="#000000" stroke-miterlimit="11.33858" points="284.77396,-251.98993 285.83978,-251.98993 
			285.83978,-229.58487 263.43472,-229.58487 263.43472,-251.98993 284.77396,-251.98993 		"/>
		<path fill="none" stroke="#000000" stroke-miterlimit="11.33858" d="M308.65298-223.64348
			c2.11661,0,3.83246,1.71584,3.83246,3.83244c0,0.00002,0,0.00002,0,0.00002c0,2.11659-1.71585,3.83243-3.83246,3.83243
			c-2.11658,0-3.83243-1.71584-3.83243-3.83243S306.53638-223.64348,308.65298-223.64348
			C308.65298-223.64348,308.65298-223.64348,308.65298-223.64348"/>
		<polyline fill="none" stroke="#000000" stroke-miterlimit="11.33858" points="370.87915,-231.19212 370.87915,-229.85417 
			370.87915,-229.58487 348.47409,-229.58487 348.47409,-251.98993 370.87915,-251.98993 370.87915,-231.19212 		"/>
		<polyline fill="none" stroke="#000000" stroke-miterlimit="11.33858" points="399.22559,-231.19212 399.22559,-229.85417 
			399.22559,-229.58487 376.82056,-229.58487 376.82056,-251.98993 399.22559,-251.98993 399.22559,-231.19212 		"/>
		<polyline fill="none" stroke="#000000" stroke-miterlimit="11.33858" points="405.16702,-250.38269 405.16702,-251.72064 
			405.16702,-251.98993 427.57205,-251.98993 427.57205,-229.58487 405.16702,-229.58487 405.16702,-250.38269 		"/>
		<polyline fill="none" stroke="#000000" stroke-miterlimit="11.33858" points="406.23285,-257.93134 405.16702,-257.93134 
			405.16702,-280.3364 427.57205,-280.3364 427.57205,-257.93134 406.23285,-257.93134 		"/>
		<polyline fill="none" stroke="#000000" stroke-miterlimit="11.33858" points="377.88638,-257.93134 376.82056,-257.93134 
			376.82056,-280.3364 399.22559,-280.3364 399.22559,-257.93134 377.88638,-257.93134 		"/>
		<polyline fill="none" stroke="#000000" stroke-miterlimit="11.33858" points="370.87915,-260.49387 370.87915,-257.93134 
			348.47409,-257.93134 348.47409,-280.3364 370.87915,-280.3364 370.87915,-260.49387 		"/>
		<polyline fill="none" stroke="#000000" stroke-miterlimit="11.33858" points="461.85989,-307.617 461.85989,-308.68283 
			484.26495,-308.68283 484.26495,-286.27777 461.85989,-286.27777 461.85989,-307.617 		"/>
		<polyline fill="none" stroke="#000000" stroke-miterlimit="11.33858" points="463.46716,-314.62424 462.12921,-314.62424 
			461.85989,-314.62424 461.85989,-337.0293 484.26495,-337.0293 484.26495,-314.62424 463.46716,-314.62424 		"/>
		<polyline fill="none" stroke="#000000" stroke-miterlimit="11.33858" points="454.31125,-337.0293 455.64923,-337.0293 
			455.91852,-337.0293 455.91852,-314.62424 433.51346,-314.62424 433.51346,-337.0293 454.31125,-337.0293 		"/>
		<polyline fill="none" stroke="#000000" stroke-miterlimit="11.33858" points="455.91852,-344.03653 455.91852,-342.9707 
			433.51346,-342.9707 433.51346,-365.37573 455.91852,-365.37573 455.91852,-344.03653 		"/>
		<polyline fill="none" stroke="#000000" stroke-miterlimit="11.33858" points="461.85989,-364.30991 461.85989,-365.37573 
			484.26495,-365.37573 484.26495,-342.9707 461.85989,-342.9707 461.85989,-364.30991 		"/>
		<polyline fill="none" stroke="#000000" stroke-miterlimit="11.33858" points="484.26495,-372.383 484.26495,-371.31717 
			461.85989,-371.31717 461.85989,-393.7222 484.26495,-393.7222 484.26495,-372.383 		"/>
		<polyline fill="none" stroke="#000000" stroke-miterlimit="11.33858" points="491.8136,-371.31717 490.47565,-371.31717 
			490.20636,-371.31717 490.20636,-393.7222 512.61145,-393.7222 512.61145,-371.31717 491.8136,-371.31717 		"/>
		<polyline fill="none" stroke="#000000" stroke-miterlimit="11.33858" points="511.00418,-365.37573 512.3421,-365.37573 
			512.61145,-365.37573 512.61145,-342.9707 490.20636,-342.9707 490.20636,-365.37573 511.00418,-365.37573 		"/>
		<polyline fill="none" stroke="#000000" stroke-miterlimit="11.33858" points="520.1601,-342.9707 518.82214,-342.9707 
			518.5528,-342.9707 518.5528,-365.37573 540.95789,-365.37573 540.95789,-342.9707 520.1601,-342.9707 		"/>
		<polyline fill="none" stroke="#000000" stroke-miterlimit="11.33858" points="518.5528,-335.96347 518.5528,-337.0293 
			540.95789,-337.0293 540.95789,-314.62424 518.5528,-314.62424 518.5528,-335.96347 		"/>
		<polyline fill="none" stroke="#000000" stroke-miterlimit="11.33858" points="512.61145,-315.69006 512.61145,-314.62424 
			490.20636,-314.62424 490.20636,-337.0293 512.61145,-337.0293 512.61145,-315.69006 		"/>
		<polyline fill="none" stroke="#000000" stroke-miterlimit="11.33858" points="519.61865,-257.93134 518.5528,-257.93134 
			518.5528,-280.3364 540.95789,-280.3364 540.95789,-257.93134 519.61865,-257.93134 		"/>
		<polyline fill="none" stroke="#000000" stroke-miterlimit="11.33858" points="518.5528,-250.92409 518.5528,-251.98993 
			540.95789,-251.98993 540.95789,-229.58487 518.5528,-229.58487 518.5528,-250.92409 		"/>
		<polyline fill="none" stroke="#000000" stroke-miterlimit="11.33858" points="511.54556,-251.98993 512.61145,-251.98993 
			512.61145,-229.58487 490.20636,-229.58487 490.20636,-251.98993 511.54556,-251.98993 		"/>
		<polyline fill="none" stroke="#000000" stroke-miterlimit="11.33858" points="569.30432,-258.99716 569.30432,-257.93134 
			546.89929,-257.93134 546.89929,-280.3364 569.30432,-280.3364 569.30432,-258.99716 		"/>
		<polyline fill="none" stroke="#000000" stroke-miterlimit="11.33858" points="597.65076,-258.99716 597.65076,-257.93134 
			575.24573,-257.93134 575.24573,-280.3364 597.65076,-280.3364 597.65076,-258.99716 		"/>
		<polyline fill="none" stroke="#000000" stroke-miterlimit="11.33858" points="604.65802,-257.93134 603.59216,-257.93134 
			603.59216,-280.3364 625.99719,-280.3364 625.99719,-257.93134 604.65802,-257.93134 		"/>
		<polyline fill="none" stroke="#000000" stroke-miterlimit="11.33858" points="603.59216,-250.92409 603.59216,-251.98993 
			625.99719,-251.98993 625.99719,-229.58487 603.59216,-229.58487 603.59216,-250.92409 		"/>
		<polyline fill="none" stroke="#000000" stroke-miterlimit="11.33858" points="575.24573,-250.92409 575.24573,-251.98993 
			597.65076,-251.98993 597.65076,-229.58487 575.24573,-229.58487 575.24573,-250.92409 		"/>
		<polyline fill="none" stroke="#000000" stroke-miterlimit="11.33858" points="566.46967,-229.58487 546.89929,-229.58487 
			546.89929,-251.98993 569.30432,-251.98993 569.30432,-229.58487 566.46967,-229.58487 		"/>
		<path fill="none" stroke="#000000" stroke-miterlimit="11.33858" d="M565.40955-222.64284
			c1.5639,1.42619,1.67566,3.85019,0.24945,5.41414c0,0.00003,0,0.00003,0,0.00003c-1.42621,1.56396-3.85022,1.67567-5.41418,0.2495
			c0-0.00002,0-0.00002,0-0.00003c-1.56403-1.42619-1.67566-3.85019-0.24951-5.41415c0-0.00002,0-0.00002,0.00006-0.00003
			c1.42615-1.56398,3.85016-1.67566,5.41412-0.2495C565.40948-222.64285,565.40948-222.64285,565.40955-222.64284"/>
		<polyline fill="none" stroke="#000000" stroke-miterlimit="11.33858" points="631.93866,-250.38269 631.93866,-251.72064 
			631.93866,-251.98993 654.34369,-251.98993 654.34369,-229.58487 631.93866,-229.58487 631.93866,-250.38269 		"/>
		<polyline fill="none" stroke="#000000" stroke-miterlimit="11.33858" points="631.93866,-278.72913 631.93866,-280.06708 
			631.93866,-280.3364 654.34369,-280.3364 654.34369,-257.93134 631.93866,-257.93134 631.93866,-278.72913 		"/>
		<polyline fill="none" stroke="#000000" stroke-miterlimit="11.33858" points="631.93866,-307.634 631.93866,-308.68283 
			654.34369,-308.68283 654.34369,-286.27777 631.93866,-286.27777 631.93866,-307.634 		"/>
		<polyline fill="none" stroke="#000000" stroke-miterlimit="11.33858" points="631.93866,-335.98047 631.93866,-337.0293 
			654.34369,-337.0293 654.34369,-314.62424 631.93866,-314.62424 631.93866,-335.98047 		"/>
		<polyline fill="none" stroke="#000000" stroke-miterlimit="11.33858" points="631.93866,-364.32693 631.93866,-365.37573 
			654.34369,-365.37573 654.34369,-342.9707 631.93866,-342.9707 631.93866,-364.32693 		"/>
		<polyline fill="none" stroke="#000000" stroke-miterlimit="11.33858" points="631.93866,-392.11496 631.93866,-393.45291 
			631.93866,-393.7222 654.34369,-393.7222 654.34369,-371.31717 631.93866,-371.31717 631.93866,-392.11496 		"/>
		<polyline fill="none" stroke="#000000" stroke-miterlimit="11.33858" points="631.93866,-420.4614 631.93866,-421.79935 
			631.93866,-422.06866 654.34369,-422.06866 654.34369,-399.6636 631.93866,-399.6636 631.93866,-420.4614 		"/>
		<polyline fill="none" stroke="#000000" stroke-miterlimit="11.33858" points="654.34369,-429.61731 654.34369,-428.27936 
			654.34369,-428.01007 631.93866,-428.01007 631.93866,-450.4151 654.34369,-450.4151 654.34369,-429.61731 		"/>
		<polyline fill="none" stroke="#000000" stroke-miterlimit="11.33858" points="661.35089,-428.01007 660.2851,-428.01007 
			660.2851,-450.4151 682.69012,-450.4151 682.69012,-428.01007 661.35089,-428.01007 		"/>
		<polyline fill="none" stroke="#000000" stroke-miterlimit="11.33858" points="661.35089,-399.6636 660.2851,-399.6636 
			660.2851,-422.06866 682.69012,-422.06866 682.69012,-399.6636 661.35089,-399.6636 		"/>
		<polyline fill="none" stroke="#000000" stroke-miterlimit="11.33858" points="661.33392,-371.31717 660.2851,-371.31717 
			660.2851,-393.7222 682.69012,-393.7222 682.69012,-371.31717 661.33392,-371.31717 		"/>
		<polyline fill="none" stroke="#000000" stroke-miterlimit="11.33858" points="661.33392,-342.9707 660.2851,-342.9707 
			660.2851,-365.37573 682.69012,-365.37573 682.69012,-342.9707 661.33392,-342.9707 		"/>
		<polyline fill="none" stroke="#000000" stroke-miterlimit="11.33858" points="661.33392,-314.62424 660.2851,-314.62424 
			660.2851,-337.0293 682.69012,-337.0293 682.69012,-314.62424 661.33392,-314.62424 		"/>
		<polyline fill="none" stroke="#000000" stroke-miterlimit="11.33858" points="661.35089,-286.27777 660.2851,-286.27777 
			660.2851,-308.68283 682.69012,-308.68283 682.69012,-286.27777 661.35089,-286.27777 		"/>
		<polyline fill="none" stroke="#000000" stroke-miterlimit="11.33858" points="661.35089,-257.93134 660.2851,-257.93134 
			660.2851,-280.3364 682.69012,-280.3364 682.69012,-257.93134 661.35089,-257.93134 		"/>
		<polyline fill="none" stroke="#000000" stroke-miterlimit="11.33858" points="681.62433,-251.98993 682.69012,-251.98993 
			682.69012,-229.58487 660.2851,-229.58487 660.2851,-251.98993 681.62433,-251.98993 		"/>
		<polyline fill="none" stroke="#000000" stroke-miterlimit="11.33858" points="688.63159,-250.38269 688.63159,-251.72064 
			688.63159,-251.98993 711.03656,-251.98993 711.03656,-229.58487 688.63159,-229.58487 688.63159,-250.38269 		"/>
		<polyline fill="none" stroke="#000000" stroke-miterlimit="11.33858" points="688.63159,-278.72913 688.63159,-280.06708 
			688.63159,-280.3364 711.03656,-280.3364 711.03656,-257.93134 688.63159,-257.93134 688.63159,-278.72913 		"/>
		<polyline fill="none" stroke="#000000" stroke-miterlimit="11.33858" points="688.63159,-307.634 688.63159,-308.68283 
			711.03656,-308.68283 711.03656,-286.27777 688.63159,-286.27777 688.63159,-307.634 		"/>
		<polyline fill="none" stroke="#000000" stroke-miterlimit="11.33858" points="688.63159,-335.98047 688.63159,-337.0293 
			711.03656,-337.0293 711.03656,-314.62424 688.63159,-314.62424 688.63159,-335.98047 		"/>
		<polyline fill="none" stroke="#000000" stroke-miterlimit="11.33858" points="688.63159,-364.32693 688.63159,-365.37573 
			711.03656,-365.37573 711.03656,-342.9707 688.63159,-342.9707 688.63159,-364.32693 		"/>
		<polyline fill="none" stroke="#000000" stroke-miterlimit="11.33858" points="688.63159,-392.11496 688.63159,-393.45291 
			688.63159,-393.7222 711.03656,-393.7222 711.03656,-371.31717 688.63159,-371.31717 688.63159,-392.11496 		"/>
		<polyline fill="none" stroke="#000000" stroke-miterlimit="11.33858" points="688.63159,-420.4614 688.63159,-421.79935 
			688.63159,-422.06866 711.03656,-422.06866 711.03656,-399.6636 688.63159,-399.6636 688.63159,-420.4614 		"/>
		<polyline fill="none" stroke="#000000" stroke-miterlimit="11.33858" points="711.03656,-429.61731 711.03656,-428.27936 
			711.03656,-428.01007 688.63159,-428.01007 688.63159,-450.4151 711.03656,-450.4151 711.03656,-429.61731 		"/>
		<polyline fill="none" stroke="#000000" stroke-miterlimit="11.33858" points="718.04382,-428.01007 716.97803,-428.01007 
			716.97803,-450.4151 739.38306,-450.4151 739.38306,-428.01007 718.04382,-428.01007 		"/>
		<polyline fill="none" stroke="#000000" stroke-miterlimit="11.33858" points="718.04382,-399.6636 716.97803,-399.6636 
			716.97803,-422.06866 739.38306,-422.06866 739.38306,-399.6636 718.04382,-399.6636 		"/>
		<polyline fill="none" stroke="#000000" stroke-miterlimit="11.33858" points="718.02686,-371.31717 716.97803,-371.31717 
			716.97803,-393.7222 739.38306,-393.7222 739.38306,-371.31717 718.02686,-371.31717 		"/>
		<polyline fill="none" stroke="#000000" stroke-miterlimit="11.33858" points="718.02686,-342.9707 716.97803,-342.9707 
			716.97803,-365.37573 739.38306,-365.37573 739.38306,-342.9707 718.02686,-342.9707 		"/>
		<polyline fill="none" stroke="#000000" stroke-miterlimit="11.33858" points="718.02686,-314.62424 716.97803,-314.62424 
			716.97803,-337.0293 739.38306,-337.0293 739.38306,-314.62424 718.02686,-314.62424 		"/>
		<polyline fill="none" stroke="#000000" stroke-miterlimit="11.33858" points="718.04382,-286.27777 716.97803,-286.27777 
			716.97803,-308.68283 739.38306,-308.68283 739.38306,-286.27777 718.04382,-286.27777 		"/>
		<polyline fill="none" stroke="#000000" stroke-miterlimit="11.33858" points="718.04382,-257.93134 716.97803,-257.93134 
			716.97803,-280.3364 739.38306,-280.3364 739.38306,-257.93134 718.04382,-257.93134 		"/>
		<polyline fill="none" stroke="#000000" stroke-miterlimit="11.33858" points="738.31726,-251.98993 739.38306,-251.98993 
			739.38306,-229.58487 716.97803,-229.58487 716.97803,-251.98993 738.31726,-251.98993 		"/>
		<polyline fill="none" stroke="#000000" stroke-miterlimit="11.33858" points="745.32446,-250.38269 745.32446,-251.72064 
			745.32446,-251.98993 767.72949,-251.98993 767.72949,-229.58487 745.32446,-229.58487 745.32446,-250.38269 		"/>
		<polyline fill="none" stroke="#000000" stroke-miterlimit="11.33858" points="745.32446,-278.72913 745.32446,-280.06708 
			745.32446,-280.3364 767.72949,-280.3364 767.72949,-257.93134 745.32446,-257.93134 745.32446,-278.72913 		"/>
		<polyline fill="none" stroke="#000000" stroke-miterlimit="11.33858" points="745.32446,-307.634 745.32446,-308.68283 
			767.72949,-308.68283 767.72949,-286.27777 745.32446,-286.27777 745.32446,-307.634 		"/>
		<polyline fill="none" stroke="#000000" stroke-miterlimit="11.33858" points="745.32446,-335.98047 745.32446,-337.0293 
			767.72949,-337.0293 767.72949,-314.62424 745.32446,-314.62424 745.32446,-335.98047 		"/>
		<polyline fill="none" stroke="#000000" stroke-miterlimit="11.33858" points="745.32446,-364.32693 745.32446,-365.37573 
			767.72949,-365.37573 767.72949,-342.9707 745.32446,-342.9707 745.32446,-364.32693 		"/>
		<polyline fill="none" stroke="#000000" stroke-miterlimit="11.33858" points="745.32446,-392.11496 745.32446,-393.45291 
			745.32446,-393.7222 767.72949,-393.7222 767.72949,-371.31717 745.32446,-371.31717 745.32446,-392.11496 		"/>
		<polyline fill="none" stroke="#000000" stroke-miterlimit="11.33858" points="745.32446,-420.4614 745.32446,-421.79935 
			745.32446,-422.06866 767.72949,-422.06866 767.72949,-399.6636 745.32446,-399.6636 745.32446,-420.4614 		"/>
		<polyline fill="none" stroke="#000000" stroke-miterlimit="11.33858" points="767.72949,-429.61731 767.72949,-428.27936 
			767.72949,-428.01007 745.32446,-428.01007 745.32446,-450.4151 767.72949,-450.4151 767.72949,-429.61731 		"/>
		<polyline fill="none" stroke="#000000" stroke-miterlimit="11.33858" points="774.73676,-428.01007 773.67096,-428.01007 
			773.67096,-450.4151 796.07593,-450.4151 796.07593,-428.01007 774.73676,-428.01007 		"/>
		<polyline fill="none" stroke="#000000" stroke-miterlimit="11.33858" points="774.73676,-399.6636 773.67096,-399.6636 
			773.67096,-422.06866 796.07593,-422.06866 796.07593,-399.6636 774.73676,-399.6636 		"/>
		<polyline fill="none" stroke="#000000" stroke-miterlimit="11.33858" points="774.71973,-371.31717 773.67096,-371.31717 
			773.67096,-393.7222 796.07593,-393.7222 796.07593,-371.31717 774.71973,-371.31717 		"/>
		<polyline fill="none" stroke="#000000" stroke-miterlimit="11.33858" points="774.71973,-342.9707 773.67096,-342.9707 
			773.67096,-365.37573 796.07593,-365.37573 796.07593,-342.9707 774.71973,-342.9707 		"/>
		<polyline fill="none" stroke="#000000" stroke-miterlimit="11.33858" points="774.71973,-314.62424 773.67096,-314.62424 
			773.67096,-337.0293 796.07593,-337.0293 796.07593,-314.62424 774.71973,-314.62424 		"/>
		<polyline fill="none" stroke="#000000" stroke-miterlimit="11.33858" points="774.73676,-286.27777 773.67096,-286.27777 
			773.67096,-308.68283 796.07593,-308.68283 796.07593,-286.27777 774.73676,-286.27777 		"/>
		<polyline fill="none" stroke="#000000" stroke-miterlimit="11.33858" points="774.73676,-257.93134 773.67096,-257.93134 
			773.67096,-280.3364 796.07593,-280.3364 796.07593,-257.93134 774.73676,-257.93134 		"/>
		<polyline fill="none" stroke="#000000" stroke-miterlimit="11.33858" points="795.01013,-251.98993 796.07593,-251.98993 
			796.07593,-229.58487 773.67096,-229.58487 773.67096,-251.98993 795.01013,-251.98993 		"/>
		<polyline fill="none" stroke="#000000" stroke-miterlimit="11.33858" points="802.0174,-250.38269 802.0174,-251.72064 
			802.0174,-251.98993 824.42242,-251.98993 824.42242,-229.58487 802.0174,-229.58487 802.0174,-250.38269 		"/>
		<polyline fill="none" stroke="#000000" stroke-miterlimit="11.33858" points="802.0174,-278.72913 802.0174,-280.06708 
			802.0174,-280.3364 824.42242,-280.3364 824.42242,-257.93134 802.0174,-257.93134 802.0174,-278.72913 		"/>
		<polyline fill="none" stroke="#000000" stroke-miterlimit="11.33858" points="802.0174,-307.634 802.0174,-308.68283 
			824.42242,-308.68283 824.42242,-286.27777 802.0174,-286.27777 802.0174,-307.634 		"/>
		<polyline fill="none" stroke="#000000" stroke-miterlimit="11.33858" points="802.0174,-335.98047 802.0174,-337.0293 
			824.42242,-337.0293 824.42242,-314.62424 802.0174,-314.62424 802.0174,-335.98047 		"/>
		<polyline fill="none" stroke="#000000" stroke-miterlimit="11.33858" points="802.0174,-364.32693 802.0174,-365.37573 
			824.42242,-365.37573 824.42242,-342.9707 802.0174,-342.9707 802.0174,-364.32693 		"/>
		<polyline fill="none" stroke="#000000" stroke-miterlimit="11.33858" points="802.0174,-392.11496 802.0174,-393.45291 
			802.0174,-393.7222 824.42242,-393.7222 824.42242,-371.31717 802.0174,-371.31717 802.0174,-392.11496 		"/>
		<polyline fill="none" stroke="#000000" stroke-miterlimit="11.33858" points="802.0174,-420.4614 802.0174,-421.79935 
			802.0174,-422.06866 824.42242,-422.06866 824.42242,-399.6636 802.0174,-399.6636 802.0174,-420.4614 		"/>
		<polyline fill="none" stroke="#000000" stroke-miterlimit="11.33858" points="824.42242,-429.61731 824.42242,-428.27936 
			824.42242,-428.01007 802.0174,-428.01007 802.0174,-450.4151 824.42242,-450.4151 824.42242,-429.61731 		"/>
		<polyline fill="none" stroke="#000000" stroke-miterlimit="11.33858" points="831.42963,-428.01007 830.36383,-428.01007 
			830.36383,-450.4151 852.76886,-450.4151 852.76886,-428.01007 831.42963,-428.01007 		"/>
		<polyline fill="none" stroke="#000000" stroke-miterlimit="11.33858" points="831.42963,-399.6636 830.36383,-399.6636 
			830.36383,-422.06866 852.76886,-422.06866 852.76886,-399.6636 831.42963,-399.6636 		"/>
		<polyline fill="none" stroke="#000000" stroke-miterlimit="11.33858" points="831.41266,-371.31717 830.36383,-371.31717 
			830.36383,-393.7222 852.76886,-393.7222 852.76886,-371.31717 831.41266,-371.31717 		"/>
		<polyline fill="none" stroke="#000000" stroke-miterlimit="11.33858" points="831.41266,-342.9707 830.36383,-342.9707 
			830.36383,-365.37573 852.76886,-365.37573 852.76886,-342.9707 831.41266,-342.9707 		"/>
		<polyline fill="none" stroke="#000000" stroke-miterlimit="11.33858" points="831.41266,-314.62424 830.36383,-314.62424 
			830.36383,-337.0293 852.76886,-337.0293 852.76886,-314.62424 831.41266,-314.62424 		"/>
		<polyline fill="none" stroke="#000000" stroke-miterlimit="11.33858" points="831.42963,-286.27777 830.36383,-286.27777 
			830.36383,-308.68283 852.76886,-308.68283 852.76886,-286.27777 831.42963,-286.27777 		"/>
		<polyline fill="none" stroke="#000000" stroke-miterlimit="11.33858" points="831.42963,-257.93134 830.36383,-257.93134 
			830.36383,-280.3364 852.76886,-280.3364 852.76886,-257.93134 831.42963,-257.93134 		"/>
		<polyline fill="none" stroke="#000000" stroke-miterlimit="11.33858" points="851.70306,-251.98993 852.76886,-251.98993 
			852.76886,-229.58487 830.36383,-229.58487 830.36383,-251.98993 851.70306,-251.98993 		"/>
		<polyline fill="none" stroke="#000000" stroke-miterlimit="11.33858" points="858.71033,-250.38269 858.71033,-251.72064 
			858.71033,-251.98993 881.1153,-251.98993 881.1153,-229.58487 858.71033,-229.58487 858.71033,-250.38269 		"/>
		<polyline fill="none" stroke="#000000" stroke-miterlimit="11.33858" points="858.71033,-278.72913 858.71033,-280.06708 
			858.71033,-280.3364 881.1153,-280.3364 881.1153,-257.93134 858.71033,-257.93134 858.71033,-278.72913 		"/>
		<polyline fill="none" stroke="#000000" stroke-miterlimit="11.33858" points="858.71033,-307.634 858.71033,-308.68283 
			881.1153,-308.68283 881.1153,-286.27777 858.71033,-286.27777 858.71033,-307.634 		"/>
		<polyline fill="none" stroke="#000000" stroke-miterlimit="11.33858" points="858.71033,-335.98047 858.71033,-337.0293 
			881.1153,-337.0293 881.1153,-314.62424 858.71033,-314.62424 858.71033,-335.98047 		"/>
		<polyline fill="none" stroke="#000000" stroke-miterlimit="11.33858" points="858.71033,-364.32693 858.71033,-365.37573 
			881.1153,-365.37573 881.1153,-342.9707 858.71033,-342.9707 858.71033,-364.32693 		"/>
		<polyline fill="none" stroke="#000000" stroke-miterlimit="11.33858" points="858.71033,-392.11496 858.71033,-393.45291 
			858.71033,-393.7222 881.1153,-393.7222 881.1153,-371.31717 858.71033,-371.31717 858.71033,-392.11496 		"/>
		<polyline fill="none" stroke="#000000" stroke-miterlimit="11.33858" points="858.71033,-420.4614 858.71033,-421.79935 
			858.71033,-422.06866 881.1153,-422.06866 881.1153,-399.6636 858.71033,-399.6636 858.71033,-420.4614 		"/>
		<polyline fill="none" stroke="#000000" stroke-miterlimit="11.33858" points="881.1153,-429.61731 881.1153,-428.27936 
			881.1153,-428.01007 858.71033,-428.01007 858.71033,-450.4151 881.1153,-450.4151 881.1153,-429.61731 		"/>
		<polyline fill="none" stroke="#000000" stroke-miterlimit="11.33858" points="888.12256,-428.01007 887.05676,-428.01007 
			887.05676,-450.4151 909.46179,-450.4151 909.46179,-428.01007 888.12256,-428.01007 		"/>
		<polyline fill="none" stroke="#000000" stroke-miterlimit="11.33858" points="888.12256,-399.6636 887.05676,-399.6636 
			887.05676,-422.06866 909.46179,-422.06866 909.46179,-399.6636 888.12256,-399.6636 		"/>
		<polyline fill="none" stroke="#000000" stroke-miterlimit="11.33858" points="888.10559,-371.31717 887.05676,-371.31717 
			887.05676,-393.7222 909.46179,-393.7222 909.46179,-371.31717 888.10559,-371.31717 		"/>
		<polyline fill="none" stroke="#000000" stroke-miterlimit="11.33858" points="888.10559,-342.9707 887.05676,-342.9707 
			887.05676,-365.37573 909.46179,-365.37573 909.46179,-342.9707 888.10559,-342.9707 		"/>
		<polyline fill="none" stroke="#000000" stroke-miterlimit="11.33858" points="888.10559,-314.62424 887.05676,-314.62424 
			887.05676,-337.0293 909.46179,-337.0293 909.46179,-314.62424 888.10559,-314.62424 		"/>
		<polyline fill="none" stroke="#000000" stroke-miterlimit="11.33858" points="888.12256,-286.27777 887.05676,-286.27777 
			887.05676,-308.68283 909.46179,-308.68283 909.46179,-286.27777 888.12256,-286.27777 		"/>
		<polyline fill="none" stroke="#000000" stroke-miterlimit="11.33858" points="888.12256,-257.93134 887.05676,-257.93134 
			887.05676,-280.3364 909.46179,-280.3364 909.46179,-257.93134 888.12256,-257.93134 		"/>
		<polyline fill="none" stroke="#000000" stroke-miterlimit="11.33858" points="908.396,-251.98993 909.46179,-251.98993 
			909.46179,-229.58487 887.05676,-229.58487 887.05676,-251.98993 908.396,-251.98993 		"/>
		<polyline fill="none" stroke="#000000" stroke-miterlimit="11.33858" points="915.4032,-250.38269 915.4032,-251.72064 
			915.4032,-251.98993 937.80823,-251.98993 937.80823,-229.58487 915.4032,-229.58487 915.4032,-250.38269 		"/>
		<polyline fill="none" stroke="#000000" stroke-miterlimit="11.33858" points="915.4032,-278.72913 915.4032,-280.06708 
			915.4032,-280.3364 937.80823,-280.3364 937.80823,-257.93134 915.4032,-257.93134 915.4032,-278.72913 		"/>
		<polyline fill="none" stroke="#000000" stroke-miterlimit="11.33858" points="915.4032,-307.634 915.4032,-308.68283 
			937.80823,-308.68283 937.80823,-286.27777 915.4032,-286.27777 915.4032,-307.634 		"/>
		<polyline fill="none" stroke="#000000" stroke-miterlimit="11.33858" points="915.4032,-335.98047 915.4032,-337.0293 
			937.80823,-337.0293 937.80823,-314.62424 915.4032,-314.62424 915.4032,-335.98047 		"/>
		<polyline fill="none" stroke="#000000" stroke-miterlimit="11.33858" points="915.4032,-364.32693 915.4032,-365.37573 
			937.80823,-365.37573 937.80823,-342.9707 915.4032,-342.9707 915.4032,-364.32693 		"/>
		<polyline fill="none" stroke="#000000" stroke-miterlimit="11.33858" points="915.4032,-392.11496 915.4032,-393.45291 
			915.4032,-393.7222 937.80823,-393.7222 937.80823,-371.31717 915.4032,-371.31717 915.4032,-392.11496 		"/>
		<polyline fill="none" stroke="#000000" stroke-miterlimit="11.33858" points="915.4032,-420.4614 915.4032,-421.79935 
			915.4032,-422.06866 937.80823,-422.06866 937.80823,-399.6636 915.4032,-399.6636 915.4032,-420.4614 		"/>
		<polyline fill="none" stroke="#000000" stroke-miterlimit="11.33858" points="937.80823,-429.61731 937.80823,-428.27936 
			937.80823,-428.01007 915.4032,-428.01007 915.4032,-450.4151 937.80823,-450.4151 937.80823,-429.61731 		"/>
		<polyline fill="none" stroke="#000000" stroke-miterlimit="11.33858" points="944.81549,-428.01007 943.74969,-428.01007 
			943.74969,-450.4151 966.15466,-450.4151 966.15466,-428.01007 944.81549,-428.01007 		"/>
		<polyline fill="none" stroke="#000000" stroke-miterlimit="11.33858" points="944.81549,-399.6636 943.74969,-399.6636 
			943.74969,-422.06866 966.15466,-422.06866 966.15466,-399.6636 944.81549,-399.6636 		"/>
		<polyline fill="none" stroke="#000000" stroke-miterlimit="11.33858" points="944.79846,-371.31717 943.74969,-371.31717 
			943.74969,-393.7222 966.15466,-393.7222 966.15466,-371.31717 944.79846,-371.31717 		"/>
		<polyline fill="none" stroke="#000000" stroke-miterlimit="11.33858" points="944.79846,-342.9707 943.74969,-342.9707 
			943.74969,-365.37573 966.15466,-365.37573 966.15466,-342.9707 944.79846,-342.9707 		"/>
		<polyline fill="none" stroke="#000000" stroke-miterlimit="11.33858" points="944.79846,-314.62424 943.74969,-314.62424 
			943.74969,-337.0293 966.15466,-337.0293 966.15466,-314.62424 944.79846,-314.62424 		"/>
		<polyline fill="none" stroke="#000000" stroke-miterlimit="11.33858" points="944.81549,-286.27777 943.74969,-286.27777 
			943.74969,-308.68283 966.15466,-308.68283 966.15466,-286.27777 944.81549,-286.27777 		"/>
		<polyline fill="none" stroke="#000000" stroke-miterlimit="11.33858" points="944.81549,-257.93134 943.74969,-257.93134 
			943.74969,-280.3364 966.15466,-280.3364 966.15466,-257.93134 944.81549,-257.93134 		"/>
		<polyline fill="none" stroke="#000000" stroke-miterlimit="11.33858" points="965.08887,-251.98993 966.15466,-251.98993 
			966.15466,-229.58487 943.74969,-229.58487 943.74969,-251.98993 965.08887,-251.98993 		"/>
		<polyline fill="none" stroke="#000000" stroke-miterlimit="11.33858" points="993.4353,-251.98993 994.50116,-251.98993 
			994.50116,-229.58487 972.09613,-229.58487 972.09613,-251.98993 993.4353,-251.98993 		"/>
		<polyline fill="none" stroke="#000000" stroke-miterlimit="11.33858" points="1021.78174,-251.98993 1022.8476,-251.98993 
			1022.8476,-229.58487 1000.44257,-229.58487 1000.44257,-251.98993 1021.78174,-251.98993 		"/>
		<polyline fill="none" stroke="#000000" stroke-miterlimit="11.33858" points="1050.12817,-251.98993 1051.19409,-251.98993 
			1051.19409,-229.58487 1028.78906,-229.58487 1028.78906,-251.98993 1050.12817,-251.98993 		"/>
		<polyline fill="none" stroke="#000000" stroke-miterlimit="11.33858" points="1078.47461,-251.98993 1079.54053,-251.98993 
			1079.54053,-229.58487 1057.1355,-229.58487 1057.1355,-251.98993 1078.47461,-251.98993 		"/>
		<polyline fill="none" stroke="#000000" stroke-miterlimit="11.33858" points="1106.82117,-251.98993 1107.88696,-251.98993 
			1107.88696,-229.58487 1085.48193,-229.58487 1085.48193,-251.98993 1106.82117,-251.98993 		"/>
		<polyline fill="none" stroke="#000000" stroke-miterlimit="11.33858" points="1135.1676,-251.98993 1136.2334,-251.98993 
			1136.2334,-229.58487 1113.82837,-229.58487 1113.82837,-251.98993 1135.1676,-251.98993 		"/>
		<polyline fill="none" stroke="#000000" stroke-miterlimit="11.33858" points="1142.1748,-250.92409 1142.1748,-251.98993 
			1164.57983,-251.98993 1164.57983,-229.58487 1142.1748,-229.58487 1142.1748,-250.92409 		"/>
		<polyline fill="none" stroke="#000000" stroke-miterlimit="11.33858" points="1143.24072,-257.93134 1142.1748,-257.93134 
			1142.1748,-280.3364 1164.57983,-280.3364 1164.57983,-257.93134 1143.24072,-257.93134 		"/>
		<polyline fill="none" stroke="#000000" stroke-miterlimit="11.33858" points="1114.89429,-257.93134 1113.82837,-257.93134 
			1113.82837,-280.3364 1136.2334,-280.3364 1136.2334,-257.93134 1114.89429,-257.93134 		"/>
		<polyline fill="none" stroke="#000000" stroke-miterlimit="11.33858" points="1086.54773,-257.93134 1085.48193,-257.93134 
			1085.48193,-280.3364 1107.88696,-280.3364 1107.88696,-257.93134 1086.54773,-257.93134 		"/>
		<polyline fill="none" stroke="#000000" stroke-miterlimit="11.33858" points="1058.20129,-257.93134 1057.1355,-257.93134 
			1057.1355,-280.3364 1079.54053,-280.3364 1079.54053,-257.93134 1058.20129,-257.93134 		"/>
		<polyline fill="none" stroke="#000000" stroke-miterlimit="11.33858" points="1029.85486,-257.93134 1028.78906,-257.93134 
			1028.78906,-280.3364 1051.19409,-280.3364 1051.19409,-257.93134 1029.85486,-257.93134 		"/>
		<polyline fill="none" stroke="#000000" stroke-miterlimit="11.33858" points="1001.50842,-257.93134 1000.44257,-257.93134 
			1000.44257,-280.3364 1022.8476,-280.3364 1022.8476,-257.93134 1001.50842,-257.93134 		"/>
		<polyline fill="none" stroke="#000000" stroke-miterlimit="11.33858" points="993.4353,-280.3364 994.50116,-280.3364 
			994.50116,-257.93134 972.09613,-257.93134 972.09613,-280.3364 993.4353,-280.3364 		"/>
		<polyline fill="none" stroke="#000000" stroke-miterlimit="11.33858" points="994.50116,-287.34363 994.50116,-286.27777 
			972.09613,-286.27777 972.09613,-308.68283 994.50116,-308.68283 994.50116,-287.34363 		"/>
		<polyline fill="none" stroke="#000000" stroke-miterlimit="11.33858" points="1022.8476,-287.34363 1022.8476,-286.27777 
			1000.44257,-286.27777 1000.44257,-308.68283 1022.8476,-308.68283 1022.8476,-287.34363 		"/>
		<polyline fill="none" stroke="#000000" stroke-miterlimit="11.33858" points="1051.19409,-287.34363 1051.19409,-286.27777 
			1028.78906,-286.27777 1028.78906,-308.68283 1051.19409,-308.68283 1051.19409,-287.34363 		"/>
		<polyline fill="none" stroke="#000000" stroke-miterlimit="11.33858" points="1079.54053,-287.34363 1079.54053,-286.27777 
			1057.1355,-286.27777 1057.1355,-308.68283 1079.54053,-308.68283 1079.54053,-287.34363 		"/>
		<polyline fill="none" stroke="#000000" stroke-miterlimit="11.33858" points="1107.88696,-287.34363 1107.88696,-286.27777 
			1085.48193,-286.27777 1085.48193,-308.68283 1107.88696,-308.68283 1107.88696,-287.34363 		"/>
		<polyline fill="none" stroke="#000000" stroke-miterlimit="11.33858" points="1136.2334,-287.34363 1136.2334,-286.27777 
			1113.82837,-286.27777 1113.82837,-308.68283 1136.2334,-308.68283 1136.2334,-287.34363 		"/>
		<polyline fill="none" stroke="#000000" stroke-miterlimit="11.33858" points="1142.1748,-307.617 1142.1748,-308.68283 
			1164.57983,-308.68283 1164.57983,-286.27777 1142.1748,-286.27777 1142.1748,-307.617 		"/>
		<polyline fill="none" stroke="#000000" stroke-miterlimit="11.33858" points="1143.7821,-314.62424 1142.44409,-314.62424 
			1142.1748,-314.62424 1142.1748,-337.0293 1164.57983,-337.0293 1164.57983,-314.62424 1143.7821,-314.62424 		"/>
		<polyline fill="none" stroke="#000000" stroke-miterlimit="11.33858" points="1115.43555,-314.62424 1114.09766,-314.62424 
			1113.82837,-314.62424 1113.82837,-337.0293 1136.2334,-337.0293 1136.2334,-314.62424 1115.43555,-314.62424 		"/>
		<polyline fill="none" stroke="#000000" stroke-miterlimit="11.33858" points="1087.08911,-314.62424 1085.75122,-314.62424 
			1085.48193,-314.62424 1085.48193,-337.0293 1107.88696,-337.0293 1107.88696,-314.62424 1087.08911,-314.62424 		"/>
		<polyline fill="none" stroke="#000000" stroke-miterlimit="11.33858" points="1058.74268,-314.62424 1057.40479,-314.62424 
			1057.1355,-314.62424 1057.1355,-337.0293 1079.54053,-337.0293 1079.54053,-314.62424 1058.74268,-314.62424 		"/>
		<polyline fill="none" stroke="#000000" stroke-miterlimit="11.33858" points="1030.39624,-314.62424 1029.05835,-314.62424 
			1028.78906,-314.62424 1028.78906,-337.0293 1051.19409,-337.0293 1051.19409,-314.62424 1030.39624,-314.62424 		"/>
		<polyline fill="none" stroke="#000000" stroke-miterlimit="11.33858" points="1002.0498,-314.62424 1000.71185,-314.62424 
			1000.44257,-314.62424 1000.44257,-337.0293 1022.8476,-337.0293 1022.8476,-314.62424 1002.0498,-314.62424 		"/>
		<polyline fill="none" stroke="#000000" stroke-miterlimit="11.33858" points="992.89392,-337.0293 994.23187,-337.0293 
			994.50116,-337.0293 994.50116,-314.62424 972.09613,-314.62424 972.09613,-337.0293 992.89392,-337.0293 		"/>
		<polyline fill="none" stroke="#000000" stroke-miterlimit="11.33858" points="994.50116,-344.03653 994.50116,-342.9707 
			972.09613,-342.9707 972.09613,-365.37573 994.50116,-365.37573 994.50116,-344.03653 		"/>
		<polyline fill="none" stroke="#000000" stroke-miterlimit="11.33858" points="1022.8476,-344.03653 1022.8476,-342.9707 
			1000.44257,-342.9707 1000.44257,-365.37573 1022.8476,-365.37573 1022.8476,-344.03653 		"/>
		<polyline fill="none" stroke="#000000" stroke-miterlimit="11.33858" points="1051.19409,-344.03653 1051.19409,-342.9707 
			1028.78906,-342.9707 1028.78906,-365.37573 1051.19409,-365.37573 1051.19409,-344.03653 		"/>
		<polyline fill="none" stroke="#000000" stroke-miterlimit="11.33858" points="1079.54053,-344.03653 1079.54053,-342.9707 
			1057.1355,-342.9707 1057.1355,-365.37573 1079.54053,-365.37573 1079.54053,-344.03653 		"/>
		<polyline fill="none" stroke="#000000" stroke-miterlimit="11.33858" points="1107.88696,-344.03653 1107.88696,-342.9707 
			1085.48193,-342.9707 1085.48193,-365.37573 1107.88696,-365.37573 1107.88696,-344.03653 		"/>
		<polyline fill="none" stroke="#000000" stroke-miterlimit="11.33858" points="1136.2334,-344.03653 1136.2334,-342.9707 
			1113.82837,-342.9707 1113.82837,-365.37573 1136.2334,-365.37573 1136.2334,-344.03653 		"/>
		<polyline fill="none" stroke="#000000" stroke-miterlimit="11.33858" points="1142.1748,-364.30991 1142.1748,-365.37573 
			1164.57983,-365.37573 1164.57983,-342.9707 1142.1748,-342.9707 1142.1748,-364.30991 		"/>
		<polyline fill="none" stroke="#000000" stroke-miterlimit="11.33858" points="1143.7821,-371.31717 1142.44409,-371.31717 
			1142.1748,-371.31717 1142.1748,-393.7222 1164.57983,-393.7222 1164.57983,-371.31717 1143.7821,-371.31717 		"/>
		<polyline fill="none" stroke="#000000" stroke-miterlimit="11.33858" points="1115.43555,-371.31717 1114.09766,-371.31717 
			1113.82837,-371.31717 1113.82837,-393.7222 1136.2334,-393.7222 1136.2334,-371.31717 1115.43555,-371.31717 		"/>
		<polyline fill="none" stroke="#000000" stroke-miterlimit="11.33858" points="1087.08911,-371.31717 1085.75122,-371.31717 
			1085.48193,-371.31717 1085.48193,-393.7222 1107.88696,-393.7222 1107.88696,-371.31717 1087.08911,-371.31717 		"/>
		<polyline fill="none" stroke="#000000" stroke-miterlimit="11.33858" points="1058.74268,-371.31717 1057.40479,-371.31717 
			1057.1355,-371.31717 1057.1355,-393.7222 1079.54053,-393.7222 1079.54053,-371.31717 1058.74268,-371.31717 		"/>
		<polyline fill="none" stroke="#000000" stroke-miterlimit="11.33858" points="1030.39624,-371.31717 1029.05835,-371.31717 
			1028.78906,-371.31717 1028.78906,-393.7222 1051.19409,-393.7222 1051.19409,-371.31717 1030.39624,-371.31717 		"/>
		<polyline fill="none" stroke="#000000" stroke-miterlimit="11.33858" points="1002.0498,-371.31717 1000.71185,-371.31717 
			1000.44257,-371.31717 1000.44257,-393.7222 1022.8476,-393.7222 1022.8476,-371.31717 1002.0498,-371.31717 		"/>
		<polyline fill="none" stroke="#000000" stroke-miterlimit="11.33858" points="993.4353,-393.7222 994.50116,-393.7222 
			994.50116,-371.31717 972.09613,-371.31717 972.09613,-393.7222 993.4353,-393.7222 		"/>
		<polyline fill="none" stroke="#000000" stroke-miterlimit="11.33858" points="994.50116,-400.72943 994.50116,-399.6636 
			972.09613,-399.6636 972.09613,-422.06866 994.50116,-422.06866 994.50116,-400.72943 		"/>
		<polyline fill="none" stroke="#000000" stroke-miterlimit="11.33858" points="1022.8476,-400.72943 1022.8476,-399.6636 
			1000.44257,-399.6636 1000.44257,-422.06866 1022.8476,-422.06866 1022.8476,-400.72943 		"/>
		<polyline fill="none" stroke="#000000" stroke-miterlimit="11.33858" points="1051.19409,-400.72943 1051.19409,-399.6636 
			1028.78906,-399.6636 1028.78906,-422.06866 1051.19409,-422.06866 1051.19409,-400.72943 		"/>
		<polyline fill="none" stroke="#000000" stroke-miterlimit="11.33858" points="1079.54053,-400.72943 1079.54053,-399.6636 
			1057.1355,-399.6636 1057.1355,-422.06866 1079.54053,-422.06866 1079.54053,-400.72943 		"/>
		<polyline fill="none" stroke="#000000" stroke-miterlimit="11.33858" points="1107.88696,-400.72943 1107.88696,-399.6636 
			1085.48193,-399.6636 1085.48193,-422.06866 1107.88696,-422.06866 1107.88696,-400.72943 		"/>
		<polyline fill="none" stroke="#000000" stroke-miterlimit="11.33858" points="1136.2334,-400.72943 1136.2334,-399.6636 
			1113.82837,-399.6636 1113.82837,-422.06866 1136.2334,-422.06866 1136.2334,-400.72943 		"/>
		<polyline fill="none" stroke="#000000" stroke-miterlimit="11.33858" points="1142.1748,-421.00284 1142.1748,-422.06866 
			1164.57983,-422.06866 1164.57983,-399.6636 1142.1748,-399.6636 1142.1748,-421.00284 		"/>
		<polyline fill="none" stroke="#000000" stroke-miterlimit="11.33858" points="1143.24072,-428.01007 1142.1748,-428.01007 
			1142.1748,-450.4151 1164.57983,-450.4151 1164.57983,-428.01007 1143.24072,-428.01007 		"/>
		<polyline fill="none" stroke="#000000" stroke-miterlimit="11.33858" points="1114.89429,-428.01007 1113.82837,-428.01007 
			1113.82837,-450.4151 1136.2334,-450.4151 1136.2334,-428.01007 1114.89429,-428.01007 		"/>
		<polyline fill="none" stroke="#000000" stroke-miterlimit="11.33858" points="1086.54773,-428.01007 1085.48193,-428.01007 
			1085.48193,-450.4151 1107.88696,-450.4151 1107.88696,-428.01007 1086.54773,-428.01007 		"/>
		<polyline fill="none" stroke="#000000" stroke-miterlimit="11.33858" points="1058.20129,-428.01007 1057.1355,-428.01007 
			1057.1355,-450.4151 1079.54053,-450.4151 1079.54053,-428.01007 1058.20129,-428.01007 		"/>
		<polyline fill="none" stroke="#000000" stroke-miterlimit="11.33858" points="1029.85486,-428.01007 1028.78906,-428.01007 
			1028.78906,-450.4151 1051.19409,-450.4151 1051.19409,-428.01007 1029.85486,-428.01007 		"/>
		<polyline fill="none" stroke="#000000" stroke-miterlimit="11.33858" points="1001.50842,-428.01007 1000.44257,-428.01007 
			1000.44257,-450.4151 1022.8476,-450.4151 1022.8476,-428.01007 1001.50842,-428.01007 		"/>
		<polyline fill="none" stroke="#000000" stroke-miterlimit="11.33858" points="972.09613,-433.67935 972.09613,-450.4151 
			994.50116,-450.4151 994.50116,-428.01007 972.09613,-428.01007 972.09613,-433.67935 		"/>
		<path fill="none" stroke="#000000" stroke-miterlimit="11.33858" d="M869.0199-460.18896
			c0,2.11661-1.71588,3.83243-3.83246,3.83243l0,0c-2.11658,0-3.8324-1.71585-3.8324-3.83243s1.71582-3.83243,3.8324-3.83243
			C867.30402-464.02142,869.0199-462.30557,869.0199-460.18896C869.0199-460.18896,869.0199-460.18896,869.0199-460.18896"/>
		<path fill="none" stroke="#000000" stroke-miterlimit="11.33858" d="M1116.77917-457.35715
			c-1.56396-1.42621-1.67554-3.85019-0.24939-5.41415c0,0,0-0.00003,0-0.00003c1.42615-1.56396,3.85022-1.67566,5.41418-0.24948
			c0,0,0,0.00003,0,0.00003c1.56396,1.42621,1.67566,3.85019,0.24939,5.41415c0,0,0,0.00003,0,0.00003
			c-1.42615,1.56396-3.8501,1.67566-5.41418,0.24948C1116.77917-457.35712,1116.77917-457.35715,1116.77917-457.35715"/>
		<path fill="none" stroke="#000000" stroke-miterlimit="11.33858" d="M1116.52979-222.39339
			c1.42615-1.56398,3.85022-1.67566,5.41418-0.2495c0,0.00003,0,0.00003,0,0.00005c1.56396,1.42621,1.67566,3.85019,0.24939,5.41414
			c0,0.00003,0,0.00003,0,0.00003c-1.42615,1.56396-3.8501,1.67567-5.41418,0.2495c0-0.00002,0-0.00002,0-0.00003
			c-1.56396-1.42619-1.67554-3.85019-0.24939-5.41415C1116.52979-222.39337,1116.52979-222.39337,1116.52979-222.39339"/>
		<path fill="none" stroke="#000000" stroke-miterlimit="11.33858" d="M865.18744-223.64348
			c2.11658,0,3.83246,1.71584,3.83246,3.83244v0.00002c0,2.11659-1.71588,3.83243-3.83246,3.83243l0,0
			c-2.11658-0.00002-3.8324-1.71585-3.8324-3.83243C861.35504-221.92761,863.07086-223.64345,865.18744-223.64348"/>
		<polyline fill="none" stroke="#000000" stroke-miterlimit="11.33858" points="624.94843,-308.68283 625.99719,-308.68283 
			625.99719,-286.27777 603.59216,-286.27777 603.59216,-308.68283 624.94843,-308.68283 		"/>
		<polyline fill="none" stroke="#000000" stroke-miterlimit="11.33858" points="624.94843,-337.0293 625.99719,-337.0293 
			625.99719,-314.62424 603.59216,-314.62424 603.59216,-337.0293 624.94843,-337.0293 		"/>
		<polyline fill="none" stroke="#000000" stroke-miterlimit="11.33858" points="605.1994,-342.9707 603.86145,-342.9707 
			603.59216,-342.9707 603.59216,-365.37573 625.99719,-365.37573 625.99719,-342.9707 605.1994,-342.9707 		"/>
		<polyline fill="none" stroke="#000000" stroke-miterlimit="11.33858" points="596.04352,-365.37573 597.38147,-365.37573 
			597.65076,-365.37573 597.65076,-342.9707 575.24573,-342.9707 575.24573,-365.37573 596.04352,-365.37573 		"/>
		<polyline fill="none" stroke="#000000" stroke-miterlimit="11.33858" points="597.65076,-372.383 597.65076,-371.31717 
			575.24573,-371.31717 575.24573,-393.7222 597.65076,-393.7222 597.65076,-372.383 		"/>
		<polyline fill="none" stroke="#000000" stroke-miterlimit="11.33858" points="605.1994,-371.31717 603.86145,-371.31717 
			603.59216,-371.31717 603.59216,-393.7222 625.99719,-393.7222 625.99719,-371.31717 605.1994,-371.31717 		"/>
		<polyline fill="none" stroke="#000000" stroke-miterlimit="11.33858" points="597.65076,-315.69006 597.65076,-314.62424 
			575.24573,-314.62424 575.24573,-337.0293 597.65076,-337.0293 597.65076,-315.69006 		"/>
		<polyline fill="none" stroke="#000000" stroke-miterlimit="11.33858" points="583.74969,-308.68283 597.65076,-308.68283 
			597.65076,-286.27777 575.24573,-286.27777 575.24573,-308.68283 583.74969,-308.68283 		"/>
		<polyline fill="none" stroke="#000000" stroke-miterlimit="11.33858" points="434.56229,-371.31717 433.51346,-371.31717 
			433.51346,-393.7222 455.91852,-393.7222 455.91852,-371.31717 434.56229,-371.31717 		"/>
		<polyline fill="none" stroke="#000000" stroke-miterlimit="11.33858" points="341.46686,-422.06866 342.53268,-422.06866 
			342.53268,-399.6636 320.12766,-399.6636 320.12766,-422.06866 341.46686,-422.06866 		"/>
		<polyline fill="none" stroke="#000000" stroke-miterlimit="11.33858" points="321.19348,-428.01007 320.12766,-428.01007 
			320.12766,-450.4151 342.53268,-450.4151 342.53268,-428.01007 321.19348,-428.01007 		"/>
		<polyline fill="none" stroke="#000000" stroke-miterlimit="11.33858" points="292.84702,-428.01007 291.78119,-428.01007 
			291.78119,-450.4151 314.18622,-450.4151 314.18622,-428.01007 292.84702,-428.01007 		"/>
		<polyline fill="none" stroke="#000000" stroke-miterlimit="11.33858" points="285.83978,-429.61731 285.83978,-428.27936 
			285.83978,-428.01007 263.43472,-428.01007 263.43472,-450.4151 285.83978,-450.4151 285.83978,-429.61731 		"/>
		<polyline fill="none" stroke="#000000" stroke-miterlimit="11.33858" points="284.77396,-422.06866 285.83978,-422.06866 
			285.83978,-399.6636 263.43472,-399.6636 263.43472,-422.06866 284.77396,-422.06866 		"/>
		<polyline fill="none" stroke="#000000" stroke-miterlimit="11.33858" points="291.78119,-420.4614 291.78119,-421.79935 
			291.78119,-422.06866 314.18622,-422.06866 314.18622,-399.6636 291.78119,-399.6636 291.78119,-420.4614 		"/>
		<path fill="none" stroke="#000000" stroke-miterlimit="11.33858" d="M311.4848-457.6066
			c-1.42618,1.56396-3.85016,1.67566-5.41412,0.24948c-0.00003-0.00003-0.00003-0.00003-0.00003-0.00003
			c-1.56396-1.42618-1.67566-3.85019-0.24948-5.41415c0,0,0-0.00003,0.00003-0.00003
			c1.42618-1.56396,3.85016-1.67566,5.41412-0.24948c0.00003,0.00003,0.00003,0.00003,0.00003,0.00003
			c1.56396,1.42618,1.67566,3.85019,0.24948,5.41415C311.48483-457.60663,311.48483-457.6066,311.4848-457.6066"/>
		<path fill="none" stroke="#000000" stroke-miterlimit="11.33858" d="M558.99475-460.14929
			c-0.02209-2.11649,1.67584-3.85007,3.7923-3.8721c0.00018,0,0.00031,0,0.00043,0c2.11652-0.02203,3.8501,1.67584,3.87213,3.79233
			c0,0.00015,0,0.00027,0,0.00043c0.02203,2.11649-1.6759,3.85007-3.79236,3.8721c-0.00012,0-0.00031,0-0.00043,0
			c-2.11646,0.02203-3.85004-1.67584-3.87207-3.79233C558.99475-460.14902,558.99475-460.14914,558.99475-460.14929"/>
		<path fill="none" stroke="#FF0000" stroke-miterlimit="11.33858" d="M558.99475-476.19904h-278.6882
			c-0.07516,0-0.13608,0.06091-0.13608,0.13605v19.70645h-19.70645c-0.07513,0-0.13605,0.06094-0.13605,0.13608v232.44093
			c0,0.07513,0.06091,0.13605,0.13605,0.13605h19.70645v19.70647c0,0.07513,0.06094,0.13605,0.13608,0.13605h907.08655
			c0.0752,0,0.13611-0.0609,0.13611-0.13605l0,0v-19.84251c0-0.07515-0.06091-0.13606-0.13611-0.13606l0,0h-19.70642v-232.16882
			h19.70642c0.0752,0.00003,0.13611-0.06088,0.13611-0.13605l0,0v-19.84253c0-0.07513-0.06091-0.13605-0.13611-0.13605l0,0
			H558.99475"/>
	</g>
</g>
<g>
</g>
<g>
</g>
<g>
</g>
<g>
</g>
<g>
</g>
<g>
</g>
</svg>
