<?xml version="1.0" encoding="UTF-8"?>
<svg id="Layer_1" xmlns="http://www.w3.org/2000/svg" width="327.449mm" height="96.449mm" viewBox="0 0 928.201 273.398">
  <circle cx="48.825" cy="16.51" r="8.22" fill="aqua"/>
  <circle cx="302.999" cy="16.51" r="8.22" fill="aqua"/>
  <circle cx="605.359" cy="16.51" r="8.22" fill="aqua"/>
  <circle cx="859.534" cy="16.51" r="8.22" fill="aqua"/>
  <circle cx="859.534" cy="256.888" r="8.22" fill="aqua"/>
  <circle cx="605.359" cy="256.888" r="8.22" fill="aqua"/>
  <circle cx="302.999" cy="256.888" r="8.22" fill="aqua"/>
  <circle cx="48.825" cy="256.888" r="8.22" fill="aqua"/>
  <g id="global-translation-frame">
    <g id="opperation-1">
      <polyline points="230.378 217.702 230.378 218.768 252.783 218.768 252.783 196.363 230.378 196.363 230.378 217.702" fill="none" stroke="#000" stroke-miterlimit="11.339"/>
      <polyline points="202.032 217.702 202.032 218.768 224.437 218.768 224.437 196.363 202.032 196.363 202.032 217.702" fill="none" stroke="#000" stroke-miterlimit="11.339"/>
      <polyline points="173.685 217.16 173.685 218.498 173.685 218.768 196.091 218.768 196.091 196.363 173.685 196.363 173.685 217.16" fill="none" stroke="#000" stroke-miterlimit="11.339"/>
      <polyline points="145.339 217.16 145.339 218.498 145.339 218.768 167.744 218.768 167.744 196.363 145.339 196.363 145.339 217.16" fill="none" stroke="#000" stroke-miterlimit="11.339"/>
      <polyline points="116.993 217.16 116.993 218.498 116.993 218.768 139.398 218.768 139.398 196.363 116.993 196.363 116.993 217.16" fill="none" stroke="#000" stroke-miterlimit="11.339"/>
      <polyline points="109.985 218.768 111.051 218.768 111.051 196.363 88.646 196.363 88.646 218.768 109.985 218.768" fill="none" stroke="#000" stroke-miterlimit="11.339"/>
      <polyline points="111.051 226.316 111.051 224.978 111.051 224.709 88.646 224.709 88.646 247.114 111.051 247.114 111.051 226.316" fill="none" stroke="#000" stroke-miterlimit="11.339"/>
      <polyline points="139.398 226.316 139.398 224.978 139.398 224.709 116.993 224.709 116.993 247.114 139.398 247.114 139.398 226.316" fill="none" stroke="#000" stroke-miterlimit="11.339"/>
      <polyline points="167.744 226.316 167.744 224.978 167.744 224.709 145.339 224.709 145.339 247.114 167.744 247.114 167.744 226.316" fill="none" stroke="#000" stroke-miterlimit="11.339"/>
      <polyline points="196.091 225.775 196.091 224.709 173.685 224.709 173.685 247.114 196.091 247.114 196.091 225.775" fill="none" stroke="#000" stroke-miterlimit="11.339"/>
      <polyline points="224.437 225.775 224.437 224.709 202.032 224.709 202.032 247.114 224.437 247.114 224.437 225.775" fill="none" stroke="#000" stroke-miterlimit="11.339"/>
      <polyline points="252.783 225.775 252.783 224.709 230.378 224.709 230.378 247.114 252.783 247.114 252.783 225.775" fill="none" stroke="#000" stroke-miterlimit="11.339"/>
      <polyline points="281.13 225.775 281.13 224.709 258.725 224.709 258.725 247.114 281.13 247.114 281.13 225.775" fill="none" stroke="#000" stroke-miterlimit="11.339"/>
      <polyline points="309.476 225.775 309.476 224.709 287.071 224.709 287.071 247.114 309.476 247.114 309.476 225.775" fill="none" stroke="#000" stroke-miterlimit="11.339"/>
      <polyline points="337.823 225.775 337.823 224.709 315.418 224.709 315.418 247.114 337.823 247.114 337.823 225.775" fill="none" stroke="#000" stroke-miterlimit="11.339"/>
      <polyline points="344.83 224.709 343.764 224.709 343.764 247.114 366.169 247.114 366.169 224.709 344.83 224.709" fill="none" stroke="#000" stroke-miterlimit="11.339"/>
      <polyline points="343.764 217.702 343.764 218.768 366.169 218.768 366.169 196.363 343.764 196.363 343.764 217.702" fill="none" stroke="#000" stroke-miterlimit="11.339"/>
      <polyline points="315.418 217.702 315.418 218.768 337.823 218.768 337.823 196.363 315.418 196.363 315.418 217.702" fill="none" stroke="#000" stroke-miterlimit="11.339"/>
      <polyline points="287.071 217.702 287.071 218.768 309.476 218.768 309.476 196.363 287.071 196.363 287.071 217.702" fill="none" stroke="#000" stroke-miterlimit="11.339"/>
      <polyline points="281.13 197.428 281.13 196.363 258.725 196.363 258.725 218.768 281.13 218.768 281.13 197.428" fill="none" stroke="#000" stroke-miterlimit="11.339"/>
      <polyline points="280.064 190.421 281.13 190.421 281.13 168.016 258.725 168.016 258.725 190.421 280.064 190.421" fill="none" stroke="#000" stroke-miterlimit="11.339"/>
      <polyline points="288.679 168.016 287.341 168.016 287.071 168.016 287.071 190.421 309.476 190.421 309.476 168.016 288.679 168.016" fill="none" stroke="#000" stroke-miterlimit="11.339"/>
      <polyline points="288.679 139.67 287.341 139.67 287.071 139.67 287.071 162.075 309.476 162.075 309.476 139.67 288.679 139.67" fill="none" stroke="#000" stroke-miterlimit="11.339"/>
      <polyline points="288.679 111.323 287.341 111.323 287.071 111.323 287.071 133.728 309.476 133.728 309.476 111.323 288.679 111.323" fill="none" stroke="#000" stroke-miterlimit="11.339"/>
      <polyline points="287.071 104.316 287.071 105.382 309.476 105.382 309.476 82.977 287.071 82.977 287.071 104.316" fill="none" stroke="#000" stroke-miterlimit="11.339"/>
      <polyline points="258.725 104.316 258.725 105.382 281.13 105.382 281.13 82.977 258.725 82.977 258.725 104.316" fill="none" stroke="#000" stroke-miterlimit="11.339"/>
      <polyline points="252.783 84.043 252.783 82.977 230.378 82.977 230.378 105.382 252.783 105.382 252.783 84.043" fill="none" stroke="#000" stroke-miterlimit="11.339"/>
      <polyline points="230.378 75.97 230.378 77.035 252.783 77.035 252.783 54.63 230.378 54.63 230.378 75.97" fill="none" stroke="#000" stroke-miterlimit="11.339"/>
      <polyline points="224.437 55.696 224.437 54.63 202.032 54.63 202.032 77.035 224.437 77.035 224.437 55.696" fill="none" stroke="#000" stroke-miterlimit="11.339"/>
      <polyline points="202.032 47.623 202.032 48.689 224.437 48.689 224.437 26.284 202.032 26.284 202.032 47.623" fill="none" stroke="#000" stroke-miterlimit="11.339"/>
      <polyline points="195.025 48.689 196.091 48.689 196.091 26.284 173.685 26.284 173.685 48.689 195.025 48.689" fill="none" stroke="#000" stroke-miterlimit="11.339"/>
      <polyline points="195.025 77.035 196.091 77.035 196.091 54.63 173.685 54.63 173.685 77.035 195.025 77.035" fill="none" stroke="#000" stroke-miterlimit="11.339"/>
      <polyline points="174.751 82.977 173.685 82.977 173.685 105.382 196.091 105.382 196.091 82.977 174.751 82.977" fill="none" stroke="#000" stroke-miterlimit="11.339"/>
      <polyline points="146.405 82.977 145.339 82.977 145.339 105.382 167.744 105.382 167.744 82.977 146.405 82.977" fill="none" stroke="#000" stroke-miterlimit="11.339"/>
      <polyline points="118.058 82.977 116.993 82.977 116.993 105.382 139.398 105.382 139.398 82.977 118.058 82.977" fill="none" stroke="#000" stroke-miterlimit="11.339"/>
      <polyline points="110.002 105.382 111.051 105.382 111.051 82.977 88.646 82.977 88.646 105.382 110.002 105.382" fill="none" stroke="#000" stroke-miterlimit="11.339"/>
      <polyline points="111.051 112.372 111.051 111.323 88.646 111.323 88.646 133.728 111.051 133.728 111.051 112.372" fill="none" stroke="#000" stroke-miterlimit="11.339"/>
      <polyline points="139.398 112.372 139.398 111.323 116.993 111.323 116.993 133.728 139.398 133.728 139.398 112.372" fill="none" stroke="#000" stroke-miterlimit="11.339"/>
      <polyline points="145.339 132.68 145.339 133.728 167.744 133.728 167.744 111.323 145.339 111.323 145.339 132.68" fill="none" stroke="#000" stroke-miterlimit="11.339"/>
      <polyline points="145.339 161.026 145.339 162.075 167.744 162.075 167.744 139.67 145.339 139.67 145.339 161.026" fill="none" stroke="#000" stroke-miterlimit="11.339"/>
      <polyline points="146.388 168.016 145.339 168.016 145.339 190.421 167.744 190.421 167.744 168.016 146.388 168.016" fill="none" stroke="#000" stroke-miterlimit="11.339"/>
      <polyline points="139.398 169.065 139.398 168.016 116.993 168.016 116.993 190.421 139.398 190.421 139.398 169.065" fill="none" stroke="#000" stroke-miterlimit="11.339"/>
      <polyline points="116.993 161.026 116.993 162.075 139.398 162.075 139.398 139.67 116.993 139.67 116.993 161.026" fill="none" stroke="#000" stroke-miterlimit="11.339"/>
      <polyline points="110.002 162.075 111.051 162.075 111.051 139.67 88.646 139.67 88.646 162.075 110.002 162.075" fill="none" stroke="#000" stroke-miterlimit="11.339"/>
      <polyline points="90.253 168.016 88.915 168.016 88.646 168.016 88.646 190.421 111.051 190.421 111.051 168.016 90.253 168.016" fill="none" stroke="#000" stroke-miterlimit="11.339"/>
      <polyline points="82.705 169.082 82.705 168.016 60.3 168.016 60.3 190.421 82.705 190.421 82.705 169.082" fill="none" stroke="#000" stroke-miterlimit="11.339"/>
      <polyline points="82.705 140.736 82.705 139.67 60.3 139.67 60.3 162.075 82.705 162.075 82.705 140.736" fill="none" stroke="#000" stroke-miterlimit="11.339"/>
      <polyline points="82.705 112.389 82.705 111.323 60.3 111.323 60.3 133.728 82.705 133.728 82.705 112.389" fill="none" stroke="#000" stroke-miterlimit="11.339"/>
      <polyline points="82.705 84.043 82.705 82.977 60.3 82.977 60.3 105.382 82.705 105.382 82.705 84.043" fill="none" stroke="#000" stroke-miterlimit="11.339"/>
      <polyline points="82.705 55.696 82.705 54.63 60.3 54.63 60.3 77.035 82.705 77.035 82.705 55.696" fill="none" stroke="#000" stroke-miterlimit="11.339"/>
      <polyline points="60.3 47.623 60.3 48.689 82.705 48.689 82.705 26.284 60.3 26.284 60.3 47.623" fill="none" stroke="#000" stroke-miterlimit="11.339"/>
      <polyline points="53.292 48.689 54.358 48.689 54.358 26.284 31.953 26.284 31.953 48.689 53.292 48.689" fill="none" stroke="#000" stroke-miterlimit="11.339"/>
      <polyline points="53.292 77.035 54.358 77.035 54.358 54.63 31.953 54.63 31.953 77.035 53.292 77.035" fill="none" stroke="#000" stroke-miterlimit="11.339"/>
      <polyline points="52.751 105.382 54.089 105.382 54.358 105.382 54.358 82.977 31.953 82.977 31.953 105.382 52.751 105.382" fill="none" stroke="#000" stroke-miterlimit="11.339"/>
      <polyline points="52.751 133.728 54.089 133.728 54.358 133.728 54.358 111.323 31.953 111.323 31.953 133.728 52.751 133.728" fill="none" stroke="#000" stroke-miterlimit="11.339"/>
      <polyline points="52.751 162.075 54.089 162.075 54.358 162.075 54.358 139.67 31.953 139.67 31.953 162.075 52.751 162.075" fill="none" stroke="#000" stroke-miterlimit="11.339"/>
      <polyline points="33.002 168.016 31.953 168.016 31.953 190.421 54.358 190.421 54.358 168.016 33.002 168.016" fill="none" stroke="#000" stroke-miterlimit="11.339"/>
      <polyline points="26.012 169.065 26.012 168.016 3.607 168.016 3.607 190.421 26.012 190.421 26.012 169.065" fill="none" stroke="#000" stroke-miterlimit="11.339"/>
      <polyline points="26.012 140.719 26.012 139.67 3.607 139.67 3.607 162.075 26.012 162.075 26.012 140.719" fill="none" stroke="#000" stroke-miterlimit="11.339"/>
      <polyline points="26.012 112.372 26.012 111.323 3.607 111.323 3.607 133.728 26.012 133.728 26.012 112.372" fill="none" stroke="#000" stroke-miterlimit="11.339"/>
      <polyline points="26.012 84.584 26.012 83.246 26.012 82.977 3.607 82.977 3.607 105.382 26.012 105.382 26.012 84.584" fill="none" stroke="#000" stroke-miterlimit="11.339"/>
      <polyline points="26.012 56.238 26.012 54.9 26.012 54.63 3.607 54.63 3.607 77.035 26.012 77.035 26.012 56.238" fill="none" stroke="#000" stroke-miterlimit="11.339"/>
      <polyline points="24.946 48.689 26.012 48.689 26.012 26.284 3.607 26.284 3.607 48.689 24.946 48.689" fill="none" stroke="#000" stroke-miterlimit="11.339"/>
      <path d="M48.825,20.343c2.117,0,3.832-1.716,3.832-3.832h0c0-2.117-1.716-3.832-3.832-3.832s-3.832,1.716-3.832,3.832,1.716,3.832,3.832,3.832h0" fill="none" stroke="#000" stroke-miterlimit="11.339"/>
      <polyline points="111.051 27.891 111.051 26.553 111.051 26.284 88.646 26.284 88.646 48.689 111.051 48.689 111.051 27.891" fill="none" stroke="#000" stroke-miterlimit="11.339"/>
      <polyline points="139.398 27.891 139.398 26.553 139.398 26.284 116.993 26.284 116.993 48.689 139.398 48.689 139.398 27.891" fill="none" stroke="#000" stroke-miterlimit="11.339"/>
      <polyline points="145.339 47.082 145.339 48.42 145.339 48.689 167.744 48.689 167.744 26.284 145.339 26.284 145.339 47.082" fill="none" stroke="#000" stroke-miterlimit="11.339"/>
      <polyline points="146.405 54.63 145.339 54.63 145.339 77.035 167.744 77.035 167.744 54.63 146.405 54.63" fill="none" stroke="#000" stroke-miterlimit="11.339"/>
      <polyline points="118.058 54.63 116.993 54.63 116.993 77.035 139.398 77.035 139.398 54.63 118.058 54.63" fill="none" stroke="#000" stroke-miterlimit="11.339"/>
      <polyline points="111.051 57.193 111.051 54.63 88.646 54.63 88.646 77.035 111.051 77.035 111.051 57.193" fill="none" stroke="#000" stroke-miterlimit="11.339"/>
      <polyline points="202.032 104.316 202.032 105.382 224.437 105.382 224.437 82.977 202.032 82.977 202.032 104.316" fill="none" stroke="#000" stroke-miterlimit="11.339"/>
      <polyline points="203.639 111.323 202.301 111.323 202.032 111.323 202.032 133.728 224.437 133.728 224.437 111.323 203.639 111.323" fill="none" stroke="#000" stroke-miterlimit="11.339"/>
      <polyline points="194.483 133.728 195.821 133.728 196.091 133.728 196.091 111.323 173.685 111.323 173.685 133.728 194.483 133.728" fill="none" stroke="#000" stroke-miterlimit="11.339"/>
      <polyline points="196.091 140.736 196.091 139.67 173.685 139.67 173.685 162.075 196.091 162.075 196.091 140.736" fill="none" stroke="#000" stroke-miterlimit="11.339"/>
      <polyline points="202.032 161.009 202.032 162.075 224.437 162.075 224.437 139.67 202.032 139.67 202.032 161.009" fill="none" stroke="#000" stroke-miterlimit="11.339"/>
      <polyline points="224.437 169.082 224.437 168.016 202.032 168.016 202.032 190.421 224.437 190.421 224.437 169.082" fill="none" stroke="#000" stroke-miterlimit="11.339"/>
      <polyline points="231.986 168.016 230.648 168.016 230.378 168.016 230.378 190.421 252.783 190.421 252.783 168.016 231.986 168.016" fill="none" stroke="#000" stroke-miterlimit="11.339"/>
      <polyline points="251.176 162.075 252.514 162.075 252.783 162.075 252.783 139.67 230.378 139.67 230.378 162.075 251.176 162.075" fill="none" stroke="#000" stroke-miterlimit="11.339"/>
      <polyline points="260.332 139.67 258.994 139.67 258.725 139.67 258.725 162.075 281.13 162.075 281.13 139.67 260.332 139.67" fill="none" stroke="#000" stroke-miterlimit="11.339"/>
      <polyline points="258.725 132.663 258.725 133.728 281.13 133.728 281.13 111.323 258.725 111.323 258.725 132.663" fill="none" stroke="#000" stroke-miterlimit="11.339"/>
      <polyline points="252.783 112.389 252.783 111.323 230.378 111.323 230.378 133.728 252.783 133.728 252.783 112.389" fill="none" stroke="#000" stroke-miterlimit="11.339"/>
      <polyline points="259.791 54.63 258.725 54.63 258.725 77.035 281.13 77.035 281.13 54.63 259.791 54.63" fill="none" stroke="#000" stroke-miterlimit="11.339"/>
      <polyline points="258.725 47.623 258.725 48.689 281.13 48.689 281.13 26.284 258.725 26.284 258.725 47.623" fill="none" stroke="#000" stroke-miterlimit="11.339"/>
      <polyline points="251.718 48.689 252.783 48.689 252.783 26.284 230.378 26.284 230.378 48.689 251.718 48.689" fill="none" stroke="#000" stroke-miterlimit="11.339"/>
      <polyline points="309.476 55.696 309.476 54.63 287.071 54.63 287.071 77.035 309.476 77.035 309.476 55.696" fill="none" stroke="#000" stroke-miterlimit="11.339"/>
      <polyline points="337.823 55.696 337.823 54.63 315.418 54.63 315.418 77.035 337.823 77.035 337.823 55.696" fill="none" stroke="#000" stroke-miterlimit="11.339"/>
      <polyline points="344.83 54.63 343.764 54.63 343.764 77.035 366.169 77.035 366.169 54.63 344.83 54.63" fill="none" stroke="#000" stroke-miterlimit="11.339"/>
      <polyline points="343.764 47.623 343.764 48.689 366.169 48.689 366.169 26.284 343.764 26.284 343.764 47.623" fill="none" stroke="#000" stroke-miterlimit="11.339"/>
      <polyline points="315.418 47.623 315.418 48.689 337.823 48.689 337.823 26.284 315.418 26.284 315.418 47.623" fill="none" stroke="#000" stroke-miterlimit="11.339"/>
      <polyline points="306.642 26.284 287.071 26.284 287.071 48.689 309.476 48.689 309.476 26.284 306.642 26.284" fill="none" stroke="#000" stroke-miterlimit="11.339"/>
      <path d="M305.582,19.342c1.564-1.426,1.676-3.85.249-5.414h0c-1.426-1.564-3.85-1.676-5.414-.25h0c-1.564,1.426-1.676,3.85-.25,5.414t0,0c1.426,1.564,3.85,1.676,5.414.249t0,0" fill="none" stroke="#000" stroke-miterlimit="11.339"/>
      <polyline points="372.111 47.082 372.111 48.42 372.111 48.689 394.516 48.689 394.516 26.284 372.111 26.284 372.111 47.082" fill="none" stroke="#000" stroke-miterlimit="11.339"/>
      <polyline points="372.111 75.428 372.111 76.766 372.111 77.035 394.516 77.035 394.516 54.63 372.111 54.63 372.111 75.428" fill="none" stroke="#000" stroke-miterlimit="11.339"/>
      <polyline points="372.111 104.333 372.111 105.382 394.516 105.382 394.516 82.977 372.111 82.977 372.111 104.333" fill="none" stroke="#000" stroke-miterlimit="11.339"/>
      <polyline points="372.111 132.68 372.111 133.728 394.516 133.728 394.516 111.323 372.111 111.323 372.111 132.68" fill="none" stroke="#000" stroke-miterlimit="11.339"/>
      <polyline points="372.111 161.026 372.111 162.075 394.516 162.075 394.516 139.67 372.111 139.67 372.111 161.026" fill="none" stroke="#000" stroke-miterlimit="11.339"/>
      <polyline points="372.111 188.814 372.111 190.152 372.111 190.421 394.516 190.421 394.516 168.016 372.111 168.016 372.111 188.814" fill="none" stroke="#000" stroke-miterlimit="11.339"/>
      <polyline points="372.111 217.16 372.111 218.498 372.111 218.768 394.516 218.768 394.516 196.363 372.111 196.363 372.111 217.16" fill="none" stroke="#000" stroke-miterlimit="11.339"/>
      <polyline points="394.516 226.316 394.516 224.978 394.516 224.709 372.111 224.709 372.111 247.114 394.516 247.114 394.516 226.316" fill="none" stroke="#000" stroke-miterlimit="11.339"/>
      <polyline points="401.523 224.709 400.457 224.709 400.457 247.114 422.862 247.114 422.862 224.709 401.523 224.709" fill="none" stroke="#000" stroke-miterlimit="11.339"/>
      <polyline points="401.523 196.363 400.457 196.363 400.457 218.768 422.862 218.768 422.862 196.363 401.523 196.363" fill="none" stroke="#000" stroke-miterlimit="11.339"/>
      <polyline points="401.506 168.016 400.457 168.016 400.457 190.421 422.862 190.421 422.862 168.016 401.506 168.016" fill="none" stroke="#000" stroke-miterlimit="11.339"/>
      <polyline points="401.506 139.67 400.457 139.67 400.457 162.075 422.862 162.075 422.862 139.67 401.506 139.67" fill="none" stroke="#000" stroke-miterlimit="11.339"/>
      <polyline points="401.506 111.323 400.457 111.323 400.457 133.728 422.862 133.728 422.862 111.323 401.506 111.323" fill="none" stroke="#000" stroke-miterlimit="11.339"/>
      <polyline points="401.523 82.977 400.457 82.977 400.457 105.382 422.862 105.382 422.862 82.977 401.523 82.977" fill="none" stroke="#000" stroke-miterlimit="11.339"/>
      <polyline points="401.523 54.63 400.457 54.63 400.457 77.035 422.862 77.035 422.862 54.63 401.523 54.63" fill="none" stroke="#000" stroke-miterlimit="11.339"/>
      <polyline points="421.796 48.689 422.862 48.689 422.862 26.284 400.457 26.284 400.457 48.689 421.796 48.689" fill="none" stroke="#000" stroke-miterlimit="11.339"/>
      <polyline points="428.804 47.082 428.804 48.42 428.804 48.689 451.209 48.689 451.209 26.284 428.804 26.284 428.804 47.082" fill="none" stroke="#000" stroke-miterlimit="11.339"/>
      <polyline points="428.804 75.428 428.804 76.766 428.804 77.035 451.209 77.035 451.209 54.63 428.804 54.63 428.804 75.428" fill="none" stroke="#000" stroke-miterlimit="11.339"/>
      <polyline points="428.804 104.333 428.804 105.382 451.209 105.382 451.209 82.977 428.804 82.977 428.804 104.333" fill="none" stroke="#000" stroke-miterlimit="11.339"/>
      <polyline points="428.804 132.68 428.804 133.728 451.209 133.728 451.209 111.323 428.804 111.323 428.804 132.68" fill="none" stroke="#000" stroke-miterlimit="11.339"/>
      <polyline points="428.804 161.026 428.804 162.075 451.209 162.075 451.209 139.67 428.804 139.67 428.804 161.026" fill="none" stroke="#000" stroke-miterlimit="11.339"/>
      <polyline points="428.804 188.814 428.804 190.152 428.804 190.421 451.209 190.421 451.209 168.016 428.804 168.016 428.804 188.814" fill="none" stroke="#000" stroke-miterlimit="11.339"/>
      <polyline points="428.804 217.16 428.804 218.498 428.804 218.768 451.209 218.768 451.209 196.363 428.804 196.363 428.804 217.16" fill="none" stroke="#000" stroke-miterlimit="11.339"/>
      <polyline points="451.209 226.316 451.209 224.978 451.209 224.709 428.804 224.709 428.804 247.114 451.209 247.114 451.209 226.316" fill="none" stroke="#000" stroke-miterlimit="11.339"/>
      <polyline points="458.216 224.709 457.15 224.709 457.15 247.114 479.555 247.114 479.555 224.709 458.216 224.709" fill="none" stroke="#000" stroke-miterlimit="11.339"/>
      <polyline points="458.216 196.363 457.15 196.363 457.15 218.768 479.555 218.768 479.555 196.363 458.216 196.363" fill="none" stroke="#000" stroke-miterlimit="11.339"/>
      <polyline points="458.199 168.016 457.15 168.016 457.15 190.421 479.555 190.421 479.555 168.016 458.199 168.016" fill="none" stroke="#000" stroke-miterlimit="11.339"/>
      <polyline points="458.199 139.67 457.15 139.67 457.15 162.075 479.555 162.075 479.555 139.67 458.199 139.67" fill="none" stroke="#000" stroke-miterlimit="11.339"/>
      <polyline points="458.199 111.323 457.15 111.323 457.15 133.728 479.555 133.728 479.555 111.323 458.199 111.323" fill="none" stroke="#000" stroke-miterlimit="11.339"/>
      <polyline points="458.216 82.977 457.15 82.977 457.15 105.382 479.555 105.382 479.555 82.977 458.216 82.977" fill="none" stroke="#000" stroke-miterlimit="11.339"/>
      <polyline points="458.216 54.63 457.15 54.63 457.15 77.035 479.555 77.035 479.555 54.63 458.216 54.63" fill="none" stroke="#000" stroke-miterlimit="11.339"/>
      <polyline points="478.489 48.689 479.555 48.689 479.555 26.284 457.15 26.284 457.15 48.689 478.489 48.689" fill="none" stroke="#000" stroke-miterlimit="11.339"/>
      <polyline points="485.496 47.082 485.496 48.42 485.496 48.689 507.902 48.689 507.902 26.284 485.496 26.284 485.496 47.082" fill="none" stroke="#000" stroke-miterlimit="11.339"/>
      <polyline points="485.496 75.428 485.496 76.766 485.496 77.035 507.902 77.035 507.902 54.63 485.496 54.63 485.496 75.428" fill="none" stroke="#000" stroke-miterlimit="11.339"/>
      <polyline points="485.496 104.333 485.496 105.382 507.902 105.382 507.902 82.977 485.496 82.977 485.496 104.333" fill="none" stroke="#000" stroke-miterlimit="11.339"/>
      <polyline points="485.496 132.68 485.496 133.728 507.902 133.728 507.902 111.323 485.496 111.323 485.496 132.68" fill="none" stroke="#000" stroke-miterlimit="11.339"/>
      <polyline points="485.496 161.026 485.496 162.075 507.902 162.075 507.902 139.67 485.496 139.67 485.496 161.026" fill="none" stroke="#000" stroke-miterlimit="11.339"/>
      <polyline points="485.496 188.814 485.496 190.152 485.496 190.421 507.902 190.421 507.902 168.016 485.496 168.016 485.496 188.814" fill="none" stroke="#000" stroke-miterlimit="11.339"/>
      <polyline points="485.496 217.16 485.496 218.498 485.496 218.768 507.902 218.768 507.902 196.363 485.496 196.363 485.496 217.16" fill="none" stroke="#000" stroke-miterlimit="11.339"/>
      <polyline points="507.902 226.316 507.902 224.978 507.902 224.709 485.496 224.709 485.496 247.114 507.902 247.114 507.902 226.316" fill="none" stroke="#000" stroke-miterlimit="11.339"/>
      <polyline points="514.909 224.709 513.843 224.709 513.843 247.114 536.248 247.114 536.248 224.709 514.909 224.709" fill="none" stroke="#000" stroke-miterlimit="11.339"/>
      <polyline points="514.909 196.363 513.843 196.363 513.843 218.768 536.248 218.768 536.248 196.363 514.909 196.363" fill="none" stroke="#000" stroke-miterlimit="11.339"/>
      <polyline points="514.892 168.016 513.843 168.016 513.843 190.421 536.248 190.421 536.248 168.016 514.892 168.016" fill="none" stroke="#000" stroke-miterlimit="11.339"/>
      <polyline points="514.892 139.67 513.843 139.67 513.843 162.075 536.248 162.075 536.248 139.67 514.892 139.67" fill="none" stroke="#000" stroke-miterlimit="11.339"/>
      <polyline points="514.892 111.323 513.843 111.323 513.843 133.728 536.248 133.728 536.248 111.323 514.892 111.323" fill="none" stroke="#000" stroke-miterlimit="11.339"/>
      <polyline points="514.909 82.977 513.843 82.977 513.843 105.382 536.248 105.382 536.248 82.977 514.909 82.977" fill="none" stroke="#000" stroke-miterlimit="11.339"/>
      <polyline points="514.909 54.63 513.843 54.63 513.843 77.035 536.248 77.035 536.248 54.63 514.909 54.63" fill="none" stroke="#000" stroke-miterlimit="11.339"/>
      <polyline points="535.182 48.689 536.248 48.689 536.248 26.284 513.843 26.284 513.843 48.689 535.182 48.689" fill="none" stroke="#000" stroke-miterlimit="11.339"/>
      <polyline points="542.189 47.082 542.189 48.42 542.189 48.689 564.594 48.689 564.594 26.284 542.189 26.284 542.189 47.082" fill="none" stroke="#000" stroke-miterlimit="11.339"/>
      <polyline points="542.189 75.428 542.189 76.766 542.189 77.035 564.594 77.035 564.594 54.63 542.189 54.63 542.189 75.428" fill="none" stroke="#000" stroke-miterlimit="11.339"/>
      <polyline points="542.189 104.333 542.189 105.382 564.594 105.382 564.594 82.977 542.189 82.977 542.189 104.333" fill="none" stroke="#000" stroke-miterlimit="11.339"/>
      <polyline points="542.189 132.68 542.189 133.728 564.594 133.728 564.594 111.323 542.189 111.323 542.189 132.68" fill="none" stroke="#000" stroke-miterlimit="11.339"/>
      <polyline points="542.189 161.026 542.189 162.075 564.594 162.075 564.594 139.67 542.189 139.67 542.189 161.026" fill="none" stroke="#000" stroke-miterlimit="11.339"/>
      <polyline points="542.189 188.814 542.189 190.152 542.189 190.421 564.594 190.421 564.594 168.016 542.189 168.016 542.189 188.814" fill="none" stroke="#000" stroke-miterlimit="11.339"/>
      <polyline points="542.189 217.16 542.189 218.498 542.189 218.768 564.594 218.768 564.594 196.363 542.189 196.363 542.189 217.16" fill="none" stroke="#000" stroke-miterlimit="11.339"/>
      <polyline points="564.594 226.316 564.594 224.978 564.594 224.709 542.189 224.709 542.189 247.114 564.594 247.114 564.594 226.316" fill="none" stroke="#000" stroke-miterlimit="11.339"/>
      <polyline points="571.602 224.709 570.536 224.709 570.536 247.114 592.941 247.114 592.941 224.709 571.602 224.709" fill="none" stroke="#000" stroke-miterlimit="11.339"/>
      <polyline points="571.602 196.363 570.536 196.363 570.536 218.768 592.941 218.768 592.941 196.363 571.602 196.363" fill="none" stroke="#000" stroke-miterlimit="11.339"/>
      <polyline points="571.585 168.016 570.536 168.016 570.536 190.421 592.941 190.421 592.941 168.016 571.585 168.016" fill="none" stroke="#000" stroke-miterlimit="11.339"/>
      <polyline points="571.585 139.67 570.536 139.67 570.536 162.075 592.941 162.075 592.941 139.67 571.585 139.67" fill="none" stroke="#000" stroke-miterlimit="11.339"/>
      <polyline points="571.585 111.323 570.536 111.323 570.536 133.728 592.941 133.728 592.941 111.323 571.585 111.323" fill="none" stroke="#000" stroke-miterlimit="11.339"/>
      <polyline points="571.602 82.977 570.536 82.977 570.536 105.382 592.941 105.382 592.941 82.977 571.602 82.977" fill="none" stroke="#000" stroke-miterlimit="11.339"/>
      <polyline points="571.602 54.63 570.536 54.63 570.536 77.035 592.941 77.035 592.941 54.63 571.602 54.63" fill="none" stroke="#000" stroke-miterlimit="11.339"/>
      <polyline points="591.875 48.689 592.941 48.689 592.941 26.284 570.536 26.284 570.536 48.689 591.875 48.689" fill="none" stroke="#000" stroke-miterlimit="11.339"/>
      <polyline points="598.882 47.082 598.882 48.42 598.882 48.689 621.287 48.689 621.287 26.284 598.882 26.284 598.882 47.082" fill="none" stroke="#000" stroke-miterlimit="11.339"/>
      <polyline points="598.882 75.428 598.882 76.766 598.882 77.035 621.287 77.035 621.287 54.63 598.882 54.63 598.882 75.428" fill="none" stroke="#000" stroke-miterlimit="11.339"/>
      <polyline points="598.882 104.333 598.882 105.382 621.287 105.382 621.287 82.977 598.882 82.977 598.882 104.333" fill="none" stroke="#000" stroke-miterlimit="11.339"/>
      <polyline points="598.882 132.68 598.882 133.728 621.287 133.728 621.287 111.323 598.882 111.323 598.882 132.68" fill="none" stroke="#000" stroke-miterlimit="11.339"/>
      <polyline points="598.882 161.026 598.882 162.075 621.287 162.075 621.287 139.67 598.882 139.67 598.882 161.026" fill="none" stroke="#000" stroke-miterlimit="11.339"/>
      <polyline points="598.882 188.814 598.882 190.152 598.882 190.421 621.287 190.421 621.287 168.016 598.882 168.016 598.882 188.814" fill="none" stroke="#000" stroke-miterlimit="11.339"/>
      <polyline points="598.882 217.16 598.882 218.498 598.882 218.768 621.287 218.768 621.287 196.363 598.882 196.363 598.882 217.16" fill="none" stroke="#000" stroke-miterlimit="11.339"/>
      <polyline points="621.287 226.316 621.287 224.978 621.287 224.709 598.882 224.709 598.882 247.114 621.287 247.114 621.287 226.316" fill="none" stroke="#000" stroke-miterlimit="11.339"/>
      <polyline points="628.295 224.709 627.229 224.709 627.229 247.114 649.634 247.114 649.634 224.709 628.295 224.709" fill="none" stroke="#000" stroke-miterlimit="11.339"/>
      <polyline points="628.295 196.363 627.229 196.363 627.229 218.768 649.634 218.768 649.634 196.363 628.295 196.363" fill="none" stroke="#000" stroke-miterlimit="11.339"/>
      <polyline points="628.278 168.016 627.229 168.016 627.229 190.421 649.634 190.421 649.634 168.016 628.278 168.016" fill="none" stroke="#000" stroke-miterlimit="11.339"/>
      <polyline points="628.278 139.67 627.229 139.67 627.229 162.075 649.634 162.075 649.634 139.67 628.278 139.67" fill="none" stroke="#000" stroke-miterlimit="11.339"/>
      <polyline points="628.278 111.323 627.229 111.323 627.229 133.728 649.634 133.728 649.634 111.323 628.278 111.323" fill="none" stroke="#000" stroke-miterlimit="11.339"/>
      <polyline points="628.295 82.977 627.229 82.977 627.229 105.382 649.634 105.382 649.634 82.977 628.295 82.977" fill="none" stroke="#000" stroke-miterlimit="11.339"/>
      <polyline points="628.295 54.63 627.229 54.63 627.229 77.035 649.634 77.035 649.634 54.63 628.295 54.63" fill="none" stroke="#000" stroke-miterlimit="11.339"/>
      <polyline points="648.568 48.689 649.634 48.689 649.634 26.284 627.229 26.284 627.229 48.689 648.568 48.689" fill="none" stroke="#000" stroke-miterlimit="11.339"/>
      <polyline points="655.575 47.082 655.575 48.42 655.575 48.689 677.98 48.689 677.98 26.284 655.575 26.284 655.575 47.082" fill="none" stroke="#000" stroke-miterlimit="11.339"/>
      <polyline points="655.575 75.428 655.575 76.766 655.575 77.035 677.98 77.035 677.98 54.63 655.575 54.63 655.575 75.428" fill="none" stroke="#000" stroke-miterlimit="11.339"/>
      <polyline points="655.575 104.333 655.575 105.382 677.98 105.382 677.98 82.977 655.575 82.977 655.575 104.333" fill="none" stroke="#000" stroke-miterlimit="11.339"/>
      <polyline points="655.575 132.68 655.575 133.728 677.98 133.728 677.98 111.323 655.575 111.323 655.575 132.68" fill="none" stroke="#000" stroke-miterlimit="11.339"/>
      <polyline points="655.575 161.026 655.575 162.075 677.98 162.075 677.98 139.67 655.575 139.67 655.575 161.026" fill="none" stroke="#000" stroke-miterlimit="11.339"/>
      <polyline points="655.575 188.814 655.575 190.152 655.575 190.421 677.98 190.421 677.98 168.016 655.575 168.016 655.575 188.814" fill="none" stroke="#000" stroke-miterlimit="11.339"/>
      <polyline points="655.575 217.16 655.575 218.498 655.575 218.768 677.98 218.768 677.98 196.363 655.575 196.363 655.575 217.16" fill="none" stroke="#000" stroke-miterlimit="11.339"/>
      <polyline points="677.98 226.316 677.98 224.978 677.98 224.709 655.575 224.709 655.575 247.114 677.98 247.114 677.98 226.316" fill="none" stroke="#000" stroke-miterlimit="11.339"/>
      <polyline points="684.988 224.709 683.922 224.709 683.922 247.114 706.327 247.114 706.327 224.709 684.988 224.709" fill="none" stroke="#000" stroke-miterlimit="11.339"/>
      <polyline points="684.988 196.363 683.922 196.363 683.922 218.768 706.327 218.768 706.327 196.363 684.988 196.363" fill="none" stroke="#000" stroke-miterlimit="11.339"/>
      <polyline points="684.97 168.016 683.922 168.016 683.922 190.421 706.327 190.421 706.327 168.016 684.97 168.016" fill="none" stroke="#000" stroke-miterlimit="11.339"/>
      <polyline points="684.97 139.67 683.922 139.67 683.922 162.075 706.327 162.075 706.327 139.67 684.97 139.67" fill="none" stroke="#000" stroke-miterlimit="11.339"/>
      <polyline points="684.97 111.323 683.922 111.323 683.922 133.728 706.327 133.728 706.327 111.323 684.97 111.323" fill="none" stroke="#000" stroke-miterlimit="11.339"/>
      <polyline points="684.988 82.977 683.922 82.977 683.922 105.382 706.327 105.382 706.327 82.977 684.988 82.977" fill="none" stroke="#000" stroke-miterlimit="11.339"/>
      <polyline points="684.988 54.63 683.922 54.63 683.922 77.035 706.327 77.035 706.327 54.63 684.988 54.63" fill="none" stroke="#000" stroke-miterlimit="11.339"/>
      <polyline points="705.261 48.689 706.327 48.689 706.327 26.284 683.922 26.284 683.922 48.689 705.261 48.689" fill="none" stroke="#000" stroke-miterlimit="11.339"/>
      <polyline points="733.607 48.689 734.673 48.689 734.673 26.284 712.268 26.284 712.268 48.689 733.607 48.689" fill="none" stroke="#000" stroke-miterlimit="11.339"/>
      <polyline points="761.954 48.689 763.02 48.689 763.02 26.284 740.615 26.284 740.615 48.689 761.954 48.689" fill="none" stroke="#000" stroke-miterlimit="11.339"/>
      <polyline points="790.3 48.689 791.366 48.689 791.366 26.284 768.961 26.284 768.961 48.689 790.3 48.689" fill="none" stroke="#000" stroke-miterlimit="11.339"/>
      <polyline points="818.647 48.689 819.713 48.689 819.713 26.284 797.308 26.284 797.308 48.689 818.647 48.689" fill="none" stroke="#000" stroke-miterlimit="11.339"/>
      <polyline points="846.993 48.689 848.059 48.689 848.059 26.284 825.654 26.284 825.654 48.689 846.993 48.689" fill="none" stroke="#000" stroke-miterlimit="11.339"/>
      <polyline points="875.34 48.689 876.405 48.689 876.405 26.284 854 26.284 854 48.689 875.34 48.689" fill="none" stroke="#000" stroke-miterlimit="11.339"/>
      <polyline points="882.347 47.623 882.347 48.689 904.752 48.689 904.752 26.284 882.347 26.284 882.347 47.623" fill="none" stroke="#000" stroke-miterlimit="11.339"/>
      <polyline points="883.413 54.63 882.347 54.63 882.347 77.035 904.752 77.035 904.752 54.63 883.413 54.63" fill="none" stroke="#000" stroke-miterlimit="11.339"/>
      <polyline points="855.066 54.63 854 54.63 854 77.035 876.405 77.035 876.405 54.63 855.066 54.63" fill="none" stroke="#000" stroke-miterlimit="11.339"/>
      <polyline points="826.72 54.63 825.654 54.63 825.654 77.035 848.059 77.035 848.059 54.63 826.72 54.63" fill="none" stroke="#000" stroke-miterlimit="11.339"/>
      <polyline points="798.373 54.63 797.308 54.63 797.308 77.035 819.713 77.035 819.713 54.63 798.373 54.63" fill="none" stroke="#000" stroke-miterlimit="11.339"/>
      <polyline points="770.027 54.63 768.961 54.63 768.961 77.035 791.366 77.035 791.366 54.63 770.027 54.63" fill="none" stroke="#000" stroke-miterlimit="11.339"/>
      <polyline points="741.68 54.63 740.615 54.63 740.615 77.035 763.02 77.035 763.02 54.63 741.68 54.63" fill="none" stroke="#000" stroke-miterlimit="11.339"/>
      <polyline points="733.607 77.035 734.673 77.035 734.673 54.63 712.268 54.63 712.268 77.035 733.607 77.035" fill="none" stroke="#000" stroke-miterlimit="11.339"/>
      <polyline points="734.673 84.043 734.673 82.977 712.268 82.977 712.268 105.382 734.673 105.382 734.673 84.043" fill="none" stroke="#000" stroke-miterlimit="11.339"/>
      <polyline points="763.02 84.043 763.02 82.977 740.615 82.977 740.615 105.382 763.02 105.382 763.02 84.043" fill="none" stroke="#000" stroke-miterlimit="11.339"/>
      <polyline points="791.366 84.043 791.366 82.977 768.961 82.977 768.961 105.382 791.366 105.382 791.366 84.043" fill="none" stroke="#000" stroke-miterlimit="11.339"/>
      <polyline points="819.713 84.043 819.713 82.977 797.308 82.977 797.308 105.382 819.713 105.382 819.713 84.043" fill="none" stroke="#000" stroke-miterlimit="11.339"/>
      <polyline points="848.059 84.043 848.059 82.977 825.654 82.977 825.654 105.382 848.059 105.382 848.059 84.043" fill="none" stroke="#000" stroke-miterlimit="11.339"/>
      <polyline points="876.405 84.043 876.405 82.977 854 82.977 854 105.382 876.405 105.382 876.405 84.043" fill="none" stroke="#000" stroke-miterlimit="11.339"/>
      <polyline points="882.347 104.316 882.347 105.382 904.752 105.382 904.752 82.977 882.347 82.977 882.347 104.316" fill="none" stroke="#000" stroke-miterlimit="11.339"/>
      <polyline points="883.954 111.323 882.616 111.323 882.347 111.323 882.347 133.728 904.752 133.728 904.752 111.323 883.954 111.323" fill="none" stroke="#000" stroke-miterlimit="11.339"/>
      <polyline points="855.608 111.323 854.27 111.323 854 111.323 854 133.728 876.405 133.728 876.405 111.323 855.608 111.323" fill="none" stroke="#000" stroke-miterlimit="11.339"/>
      <polyline points="827.261 111.323 825.923 111.323 825.654 111.323 825.654 133.728 848.059 133.728 848.059 111.323 827.261 111.323" fill="none" stroke="#000" stroke-miterlimit="11.339"/>
      <polyline points="798.915 111.323 797.577 111.323 797.308 111.323 797.308 133.728 819.713 133.728 819.713 111.323 798.915 111.323" fill="none" stroke="#000" stroke-miterlimit="11.339"/>
      <polyline points="770.568 111.323 769.23 111.323 768.961 111.323 768.961 133.728 791.366 133.728 791.366 111.323 770.568 111.323" fill="none" stroke="#000" stroke-miterlimit="11.339"/>
      <polyline points="742.222 111.323 740.884 111.323 740.615 111.323 740.615 133.728 763.02 133.728 763.02 111.323 742.222 111.323" fill="none" stroke="#000" stroke-miterlimit="11.339"/>
      <polyline points="733.066 133.728 734.404 133.728 734.673 133.728 734.673 111.323 712.268 111.323 712.268 133.728 733.066 133.728" fill="none" stroke="#000" stroke-miterlimit="11.339"/>
      <polyline points="734.673 140.736 734.673 139.67 712.268 139.67 712.268 162.075 734.673 162.075 734.673 140.736" fill="none" stroke="#000" stroke-miterlimit="11.339"/>
      <polyline points="763.02 140.736 763.02 139.67 740.615 139.67 740.615 162.075 763.02 162.075 763.02 140.736" fill="none" stroke="#000" stroke-miterlimit="11.339"/>
      <polyline points="791.366 140.736 791.366 139.67 768.961 139.67 768.961 162.075 791.366 162.075 791.366 140.736" fill="none" stroke="#000" stroke-miterlimit="11.339"/>
      <polyline points="819.713 140.736 819.713 139.67 797.308 139.67 797.308 162.075 819.713 162.075 819.713 140.736" fill="none" stroke="#000" stroke-miterlimit="11.339"/>
      <polyline points="848.059 140.736 848.059 139.67 825.654 139.67 825.654 162.075 848.059 162.075 848.059 140.736" fill="none" stroke="#000" stroke-miterlimit="11.339"/>
      <polyline points="876.405 140.736 876.405 139.67 854 139.67 854 162.075 876.405 162.075 876.405 140.736" fill="none" stroke="#000" stroke-miterlimit="11.339"/>
      <polyline points="882.347 161.009 882.347 162.075 904.752 162.075 904.752 139.67 882.347 139.67 882.347 161.009" fill="none" stroke="#000" stroke-miterlimit="11.339"/>
      <polyline points="883.954 168.016 882.616 168.016 882.347 168.016 882.347 190.421 904.752 190.421 904.752 168.016 883.954 168.016" fill="none" stroke="#000" stroke-miterlimit="11.339"/>
      <polyline points="855.608 168.016 854.27 168.016 854 168.016 854 190.421 876.405 190.421 876.405 168.016 855.608 168.016" fill="none" stroke="#000" stroke-miterlimit="11.339"/>
      <polyline points="827.261 168.016 825.923 168.016 825.654 168.016 825.654 190.421 848.059 190.421 848.059 168.016 827.261 168.016" fill="none" stroke="#000" stroke-miterlimit="11.339"/>
      <polyline points="798.915 168.016 797.577 168.016 797.308 168.016 797.308 190.421 819.713 190.421 819.713 168.016 798.915 168.016" fill="none" stroke="#000" stroke-miterlimit="11.339"/>
      <polyline points="770.568 168.016 769.23 168.016 768.961 168.016 768.961 190.421 791.366 190.421 791.366 168.016 770.568 168.016" fill="none" stroke="#000" stroke-miterlimit="11.339"/>
      <polyline points="742.222 168.016 740.884 168.016 740.615 168.016 740.615 190.421 763.02 190.421 763.02 168.016 742.222 168.016" fill="none" stroke="#000" stroke-miterlimit="11.339"/>
      <polyline points="733.607 190.421 734.673 190.421 734.673 168.016 712.268 168.016 712.268 190.421 733.607 190.421" fill="none" stroke="#000" stroke-miterlimit="11.339"/>
      <polyline points="734.673 197.428 734.673 196.363 712.268 196.363 712.268 218.768 734.673 218.768 734.673 197.428" fill="none" stroke="#000" stroke-miterlimit="11.339"/>
      <polyline points="763.02 197.428 763.02 196.363 740.615 196.363 740.615 218.768 763.02 218.768 763.02 197.428" fill="none" stroke="#000" stroke-miterlimit="11.339"/>
      <polyline points="791.366 197.428 791.366 196.363 768.961 196.363 768.961 218.768 791.366 218.768 791.366 197.428" fill="none" stroke="#000" stroke-miterlimit="11.339"/>
      <polyline points="819.713 197.428 819.713 196.363 797.308 196.363 797.308 218.768 819.713 218.768 819.713 197.428" fill="none" stroke="#000" stroke-miterlimit="11.339"/>
      <polyline points="848.059 197.428 848.059 196.363 825.654 196.363 825.654 218.768 848.059 218.768 848.059 197.428" fill="none" stroke="#000" stroke-miterlimit="11.339"/>
      <polyline points="876.405 197.428 876.405 196.363 854 196.363 854 218.768 876.405 218.768 876.405 197.428" fill="none" stroke="#000" stroke-miterlimit="11.339"/>
      <polyline points="882.347 217.702 882.347 218.768 904.752 218.768 904.752 196.363 882.347 196.363 882.347 217.702" fill="none" stroke="#000" stroke-miterlimit="11.339"/>
      <polyline points="883.413 224.709 882.347 224.709 882.347 247.114 904.752 247.114 904.752 224.709 883.413 224.709" fill="none" stroke="#000" stroke-miterlimit="11.339"/>
      <polyline points="855.066 224.709 854 224.709 854 247.114 876.405 247.114 876.405 224.709 855.066 224.709" fill="none" stroke="#000" stroke-miterlimit="11.339"/>
      <polyline points="826.72 224.709 825.654 224.709 825.654 247.114 848.059 247.114 848.059 224.709 826.72 224.709" fill="none" stroke="#000" stroke-miterlimit="11.339"/>
      <polyline points="798.373 224.709 797.308 224.709 797.308 247.114 819.713 247.114 819.713 224.709 798.373 224.709" fill="none" stroke="#000" stroke-miterlimit="11.339"/>
      <polyline points="770.027 224.709 768.961 224.709 768.961 247.114 791.366 247.114 791.366 224.709 770.027 224.709" fill="none" stroke="#000" stroke-miterlimit="11.339"/>
      <polyline points="741.68 224.709 740.615 224.709 740.615 247.114 763.02 247.114 763.02 224.709 741.68 224.709" fill="none" stroke="#000" stroke-miterlimit="11.339"/>
      <polyline points="712.268 230.378 712.268 247.114 734.673 247.114 734.673 224.709 712.268 224.709 712.268 230.378" fill="none" stroke="#000" stroke-miterlimit="11.339"/>
      <path d="M609.192,256.888c0-2.117-1.716-3.832-3.832-3.832h0c-2.117,0-3.832,1.716-3.832,3.832s1.716,3.832,3.832,3.832c2.117,0,3.832-1.716,3.832-3.832h0" fill="none" stroke="#000" stroke-miterlimit="11.339"/>
      <path d="M856.951,254.056c-1.564,1.426-1.676,3.85-.249,5.414h0c1.426,1.564,3.85,1.676,5.414.25h0c1.564-1.426,1.676-3.85.249-5.414h0c-1.426-1.564-3.85-1.676-5.414-.25h0" fill="none" stroke="#000" stroke-miterlimit="11.339"/>
      <path d="M856.702,19.092c1.426,1.564,3.85,1.676,5.414.249h0c1.564-1.426,1.676-3.85.249-5.414h0c-1.426-1.564-3.85-1.676-5.414-.25h0c-1.564,1.426-1.676,3.85-.249,5.414h0" fill="none" stroke="#000" stroke-miterlimit="11.339"/>
      <path d="M605.359,20.343c2.117,0,3.832-1.716,3.832-3.832h0c0-2.117-1.716-3.832-3.832-3.832h0c-2.117,0-3.832,1.716-3.832,3.832s1.716,3.832,3.832,3.832" fill="none" stroke="#000" stroke-miterlimit="11.339"/>
      <polyline points="365.12 105.382 366.169 105.382 366.169 82.977 343.764 82.977 343.764 105.382 365.12 105.382" fill="none" stroke="#000" stroke-miterlimit="11.339"/>
      <polyline points="365.12 133.728 366.169 133.728 366.169 111.323 343.764 111.323 343.764 133.728 365.12 133.728" fill="none" stroke="#000" stroke-miterlimit="11.339"/>
      <polyline points="345.371 139.67 344.033 139.67 343.764 139.67 343.764 162.075 366.169 162.075 366.169 139.67 345.371 139.67" fill="none" stroke="#000" stroke-miterlimit="11.339"/>
      <polyline points="336.216 162.075 337.553 162.075 337.823 162.075 337.823 139.67 315.418 139.67 315.418 162.075 336.216 162.075" fill="none" stroke="#000" stroke-miterlimit="11.339"/>
      <polyline points="337.823 169.082 337.823 168.016 315.418 168.016 315.418 190.421 337.823 190.421 337.823 169.082" fill="none" stroke="#000" stroke-miterlimit="11.339"/>
      <polyline points="345.371 168.016 344.033 168.016 343.764 168.016 343.764 190.421 366.169 190.421 366.169 168.016 345.371 168.016" fill="none" stroke="#000" stroke-miterlimit="11.339"/>
      <polyline points="337.823 112.389 337.823 111.323 315.418 111.323 315.418 133.728 337.823 133.728 337.823 112.389" fill="none" stroke="#000" stroke-miterlimit="11.339"/>
      <polyline points="323.922 105.382 337.823 105.382 337.823 82.977 315.418 82.977 315.418 105.382 323.922 105.382" fill="none" stroke="#000" stroke-miterlimit="11.339"/>
      <polyline points="174.734 168.016 173.685 168.016 173.685 190.421 196.091 190.421 196.091 168.016 174.734 168.016" fill="none" stroke="#000" stroke-miterlimit="11.339"/>
      <polyline points="81.639 218.768 82.705 218.768 82.705 196.363 60.3 196.363 60.3 218.768 81.639 218.768" fill="none" stroke="#000" stroke-miterlimit="11.339"/>
      <polyline points="61.366 224.709 60.3 224.709 60.3 247.114 82.705 247.114 82.705 224.709 61.366 224.709" fill="none" stroke="#000" stroke-miterlimit="11.339"/>
      <polyline points="33.019 224.709 31.953 224.709 31.953 247.114 54.358 247.114 54.358 224.709 33.019 224.709" fill="none" stroke="#000" stroke-miterlimit="11.339"/>
      <polyline points="26.012 226.316 26.012 224.978 26.012 224.709 3.607 224.709 3.607 247.114 26.012 247.114 26.012 226.316" fill="none" stroke="#000" stroke-miterlimit="11.339"/>
      <polyline points="24.946 218.768 26.012 218.768 26.012 196.363 3.607 196.363 3.607 218.768 24.946 218.768" fill="none" stroke="#000" stroke-miterlimit="11.339"/>
      <polyline points="31.953 217.16 31.953 218.498 31.953 218.768 54.358 218.768 54.358 196.363 31.953 196.363 31.953 217.16" fill="none" stroke="#000" stroke-miterlimit="11.339"/>
      <path d="M51.657,254.306c-1.426-1.564-3.85-1.676-5.414-.249h0c-1.564,1.426-1.676,3.85-.249,5.414,0,0,0,0,0,0,1.426,1.564,3.85,1.676,5.414.249h0c1.564-1.426,1.676-3.85.249-5.414,0,0,0,0,0,0" fill="none" stroke="#000" stroke-miterlimit="11.339"/>
      <path d="M299.167,256.848c-.022,2.116,1.676,3.85,3.792,3.872h0c2.117.022,3.85-1.676,3.872-3.792h0c.022-2.117-1.676-3.85-3.792-3.873h0c-2.116-.022-3.85,1.676-3.872,3.792h0" fill="none" stroke="#000" stroke-miterlimit="11.339"/>
      <path d="M299.167,272.898H20.479c-.075,0-.136-.061-.136-.136v-19.706H.636c-.075,0-.136-.061-.136-.136V20.479c0-.075.061-.136.136-.136h19.706V.636c0-.075.061-.136.136-.136h907.087c.075,0,.136.061.136.136h0v19.843c0,.075-.061.136-.136.136h-19.706v232.169h19.706c.075,0,.136.061.136.136h0v19.843c0,.075-.061.136-.136.136H299.167" fill="none" stroke="red" stroke-miterlimit="11.339"/>
    </g>
  </g>
</svg>