<?xml version="1.0" encoding="UTF-8"?>
<svg id="Layer_1" xmlns="http://www.w3.org/2000/svg" width="335.449mm" height="96.449mm" viewBox="0 0 950.878 273.398">
  <circle cx="71.502" cy="16.51" r="7.228" fill="aqua"/>
  <circle cx="325.676" cy="16.51" r="7.228" fill="aqua"/>
  <circle cx="628.037" cy="16.51" r="7.228" fill="aqua"/>
  <circle cx="882.211" cy="16.51" r="7.228" fill="aqua"/>
  <circle cx="882.211" cy="256.888" r="7.228" fill="aqua"/>
  <circle cx="628.037" cy="256.888" r="7.228" fill="aqua"/>
  <circle cx="325.676" cy="256.888" r="7.228" fill="aqua"/>
  <circle cx="71.502" cy="256.888" r="7.228" fill="aqua"/>
  <g id="global-translation-frame">
    <g id="opperation-1">
      <polyline points="388.846 226.316 388.846 224.978 388.846 224.709 366.441 224.709 366.441 247.114 388.846 247.114 388.846 226.316" fill="none" stroke="#000" stroke-miterlimit="11.339"/>
      <polyline points="388.846 197.97 388.846 196.632 388.846 196.363 366.441 196.363 366.441 218.768 388.846 218.768 388.846 197.97" fill="none" stroke="#000" stroke-miterlimit="11.339"/>
      <polyline points="388.846 169.065 388.846 168.016 366.441 168.016 366.441 190.421 388.846 190.421 388.846 169.065" fill="none" stroke="#000" stroke-miterlimit="11.339"/>
      <polyline points="388.846 140.719 388.846 139.67 366.441 139.67 366.441 162.075 388.846 162.075 388.846 140.719" fill="none" stroke="#000" stroke-miterlimit="11.339"/>
      <polyline points="388.846 112.372 388.846 111.323 366.441 111.323 366.441 133.728 388.846 133.728 388.846 112.372" fill="none" stroke="#000" stroke-miterlimit="11.339"/>
      <polyline points="388.846 84.584 388.846 83.246 388.846 82.977 366.441 82.977 366.441 105.382 388.846 105.382 388.846 84.584" fill="none" stroke="#000" stroke-miterlimit="11.339"/>
      <polyline points="388.846 56.238 388.846 54.9 388.846 54.63 366.441 54.63 366.441 77.035 388.846 77.035 388.846 56.238" fill="none" stroke="#000" stroke-miterlimit="11.339"/>
      <polyline points="366.441 47.082 366.441 48.42 366.441 48.689 388.846 48.689 388.846 26.284 366.441 26.284 366.441 47.082" fill="none" stroke="#000" stroke-miterlimit="11.339"/>
      <polyline points="338.095 47.623 338.095 48.689 360.5 48.689 360.5 26.284 338.095 26.284 338.095 47.623" fill="none" stroke="#000" stroke-miterlimit="11.339"/>
      <polyline points="309.749 47.623 309.749 48.689 332.154 48.689 332.154 26.284 309.749 26.284 309.749 47.623" fill="none" stroke="#000" stroke-miterlimit="11.339"/>
      <polyline points="302.741 48.689 303.807 48.689 303.807 26.284 281.402 26.284 281.402 48.689 302.741 48.689" fill="none" stroke="#000" stroke-miterlimit="11.339"/>
      <polyline points="302.741 77.035 303.807 77.035 303.807 54.63 281.402 54.63 281.402 77.035 302.741 77.035" fill="none" stroke="#000" stroke-miterlimit="11.339"/>
      <polyline points="302.2 105.382 303.538 105.382 303.807 105.382 303.807 82.977 281.402 82.977 281.402 105.382 302.2 105.382" fill="none" stroke="#000" stroke-miterlimit="11.339"/>
      <polyline points="302.2 133.728 303.538 133.728 303.807 133.728 303.807 111.323 281.402 111.323 281.402 133.728 302.2 133.728" fill="none" stroke="#000" stroke-miterlimit="11.339"/>
      <polyline points="283.009 139.67 281.671 139.67 281.402 139.67 281.402 162.075 303.807 162.075 303.807 139.67 283.009 139.67" fill="none" stroke="#000" stroke-miterlimit="11.339"/>
      <polyline points="275.461 140.736 275.461 139.67 253.056 139.67 253.056 162.075 275.461 162.075 275.461 140.736" fill="none" stroke="#000" stroke-miterlimit="11.339"/>
      <polyline points="253.056 132.663 253.056 133.728 275.461 133.728 275.461 111.323 253.056 111.323 253.056 132.663" fill="none" stroke="#000" stroke-miterlimit="11.339"/>
      <polyline points="224.709 132.663 224.709 133.728 247.114 133.728 247.114 111.323 224.709 111.323 224.709 132.663" fill="none" stroke="#000" stroke-miterlimit="11.339"/>
      <polyline points="217.16 133.728 218.498 133.728 218.768 133.728 218.768 111.323 196.363 111.323 196.363 133.728 217.16 133.728" fill="none" stroke="#000" stroke-miterlimit="11.339"/>
      <polyline points="217.16 162.075 218.498 162.075 218.768 162.075 218.768 139.67 196.363 139.67 196.363 162.075 217.16 162.075" fill="none" stroke="#000" stroke-miterlimit="11.339"/>
      <polyline points="218.768 169.082 218.768 168.016 196.363 168.016 196.363 190.421 218.768 190.421 218.768 169.082" fill="none" stroke="#000" stroke-miterlimit="11.339"/>
      <polyline points="226.316 168.016 224.978 168.016 224.709 168.016 224.709 190.421 247.114 190.421 247.114 168.016 226.316 168.016" fill="none" stroke="#000" stroke-miterlimit="11.339"/>
      <polyline points="238.882 162.075 247.114 162.075 247.114 139.67 224.709 139.67 224.709 162.075 238.882 162.075" fill="none" stroke="#000" stroke-miterlimit="11.339"/>
      <polyline points="275.461 169.082 275.461 168.016 253.056 168.016 253.056 190.421 275.461 190.421 275.461 169.082" fill="none" stroke="#000" stroke-miterlimit="11.339"/>
      <polyline points="303.807 169.082 303.807 168.016 281.402 168.016 281.402 190.421 303.807 190.421 303.807 169.082" fill="none" stroke="#000" stroke-miterlimit="11.339"/>
      <polyline points="332.154 169.082 332.154 168.016 309.749 168.016 309.749 190.421 332.154 190.421 332.154 169.082" fill="none" stroke="#000" stroke-miterlimit="11.339"/>
      <polyline points="339.702 168.016 338.364 168.016 338.095 168.016 338.095 190.421 360.5 190.421 360.5 168.016 339.702 168.016" fill="none" stroke="#000" stroke-miterlimit="11.339"/>
      <polyline points="339.702 139.67 338.364 139.67 338.095 139.67 338.095 162.075 360.5 162.075 360.5 139.67 339.702 139.67" fill="none" stroke="#000" stroke-miterlimit="11.339"/>
      <polyline points="339.702 111.323 338.364 111.323 338.095 111.323 338.095 133.728 360.5 133.728 360.5 111.323 339.702 111.323" fill="none" stroke="#000" stroke-miterlimit="11.339"/>
      <polyline points="339.161 82.977 338.095 82.977 338.095 105.382 360.5 105.382 360.5 82.977 339.161 82.977" fill="none" stroke="#000" stroke-miterlimit="11.339"/>
      <polyline points="338.095 75.97 338.095 77.035 360.5 77.035 360.5 54.63 338.095 54.63 338.095 75.97" fill="none" stroke="#000" stroke-miterlimit="11.339"/>
      <polyline points="331.088 77.035 332.154 77.035 332.154 54.63 309.749 54.63 309.749 77.035 331.088 77.035" fill="none" stroke="#000" stroke-miterlimit="11.339"/>
      <polyline points="330.546 105.382 331.884 105.382 332.154 105.382 332.154 82.977 309.749 82.977 309.749 105.382 330.546 105.382" fill="none" stroke="#000" stroke-miterlimit="11.339"/>
      <polyline points="330.546 133.728 331.884 133.728 332.154 133.728 332.154 111.323 309.749 111.323 309.749 133.728 330.546 133.728" fill="none" stroke="#000" stroke-miterlimit="11.339"/>
      <polyline points="332.154 140.736 332.154 139.67 309.749 139.67 309.749 162.075 332.154 162.075 332.154 140.736" fill="none" stroke="#000" stroke-miterlimit="11.339"/>
      <polyline points="339.161 196.363 338.095 196.363 338.095 218.768 360.5 218.768 360.5 196.363 339.161 196.363" fill="none" stroke="#000" stroke-miterlimit="11.339"/>
      <polyline points="310.814 196.363 309.749 196.363 309.749 218.768 332.154 218.768 332.154 196.363 310.814 196.363" fill="none" stroke="#000" stroke-miterlimit="11.339"/>
      <polyline points="282.468 196.363 281.402 196.363 281.402 218.768 303.807 218.768 303.807 196.363 282.468 196.363" fill="none" stroke="#000" stroke-miterlimit="11.339"/>
      <polyline points="254.121 196.363 253.056 196.363 253.056 218.768 275.461 218.768 275.461 196.363 254.121 196.363" fill="none" stroke="#000" stroke-miterlimit="11.339"/>
      <polyline points="225.775 196.363 224.709 196.363 224.709 218.768 247.114 218.768 247.114 196.363 225.775 196.363" fill="none" stroke="#000" stroke-miterlimit="11.339"/>
      <polyline points="197.429 196.363 196.363 196.363 196.363 218.768 218.768 218.768 218.768 196.363 197.429 196.363" fill="none" stroke="#000" stroke-miterlimit="11.339"/>
      <polyline points="169.082 196.363 168.016 196.363 168.016 218.768 190.421 218.768 190.421 196.363 169.082 196.363" fill="none" stroke="#000" stroke-miterlimit="11.339"/>
      <polyline points="140.736 196.363 139.67 196.363 139.67 218.768 162.075 218.768 162.075 196.363 140.736 196.363" fill="none" stroke="#000" stroke-miterlimit="11.339"/>
      <polyline points="112.389 196.363 111.323 196.363 111.323 218.768 133.728 218.768 133.728 196.363 112.389 196.363" fill="none" stroke="#000" stroke-miterlimit="11.339"/>
      <polyline points="104.316 218.768 105.382 218.768 105.382 196.363 82.977 196.363 82.977 218.768 104.316 218.768" fill="none" stroke="#000" stroke-miterlimit="11.339"/>
      <polyline points="105.382 226.316 105.382 224.978 105.382 224.709 82.977 224.709 82.977 247.114 105.382 247.114 105.382 226.316" fill="none" stroke="#000" stroke-miterlimit="11.339"/>
      <polyline points="133.728 226.316 133.728 224.978 133.728 224.709 111.323 224.709 111.323 247.114 133.728 247.114 133.728 226.316" fill="none" stroke="#000" stroke-miterlimit="11.339"/>
      <polyline points="162.075 226.316 162.075 224.978 162.075 224.709 139.67 224.709 139.67 247.114 162.075 247.114 162.075 226.316" fill="none" stroke="#000" stroke-miterlimit="11.339"/>
      <polyline points="190.421 225.775 190.421 224.709 168.016 224.709 168.016 247.114 190.421 247.114 190.421 225.775" fill="none" stroke="#000" stroke-miterlimit="11.339"/>
      <polyline points="218.768 225.775 218.768 224.709 196.363 224.709 196.363 247.114 218.768 247.114 218.768 225.775" fill="none" stroke="#000" stroke-miterlimit="11.339"/>
      <polyline points="247.114 225.775 247.114 224.709 224.709 224.709 224.709 247.114 247.114 247.114 247.114 225.775" fill="none" stroke="#000" stroke-miterlimit="11.339"/>
      <polyline points="275.461 225.775 275.461 224.709 253.056 224.709 253.056 247.114 275.461 247.114 275.461 225.775" fill="none" stroke="#000" stroke-miterlimit="11.339"/>
      <polyline points="303.807 225.775 303.807 224.709 281.402 224.709 281.402 247.114 303.807 247.114 303.807 225.775" fill="none" stroke="#000" stroke-miterlimit="11.339"/>
      <polyline points="332.154 225.775 332.154 224.709 309.749 224.709 309.749 247.114 332.154 247.114 332.154 225.775" fill="none" stroke="#000" stroke-miterlimit="11.339"/>
      <polyline points="338.095 236.048 338.095 247.114 360.5 247.114 360.5 224.709 338.095 224.709 338.095 236.048" fill="none" stroke="#000" stroke-miterlimit="11.339"/>
      <path d="M328.508,254.306c-1.426-1.564-3.85-1.676-5.414-.249h0c-1.564,1.426-1.676,3.85-.249,5.414h0c1.426,1.564,3.85,1.676,5.414.25h0c1.564-1.426,1.676-3.85.249-5.414h0" fill="none" stroke="#000" stroke-miterlimit="11.339"/>
      <polyline points="395.854 224.709 394.788 224.709 394.788 247.114 417.193 247.114 417.193 224.709 395.854 224.709" fill="none" stroke="#000" stroke-miterlimit="11.339"/>
      <polyline points="395.854 196.363 394.788 196.363 394.788 218.768 417.193 218.768 417.193 196.363 395.854 196.363" fill="none" stroke="#000" stroke-miterlimit="11.339"/>
      <polyline points="395.837 168.016 394.788 168.016 394.788 190.421 417.193 190.421 417.193 168.016 395.837 168.016" fill="none" stroke="#000" stroke-miterlimit="11.339"/>
      <polyline points="395.837 139.67 394.788 139.67 394.788 162.075 417.193 162.075 417.193 139.67 395.837 139.67" fill="none" stroke="#000" stroke-miterlimit="11.339"/>
      <polyline points="395.837 111.323 394.788 111.323 394.788 133.728 417.193 133.728 417.193 111.323 395.837 111.323" fill="none" stroke="#000" stroke-miterlimit="11.339"/>
      <polyline points="395.854 82.977 394.788 82.977 394.788 105.382 417.193 105.382 417.193 82.977 395.854 82.977" fill="none" stroke="#000" stroke-miterlimit="11.339"/>
      <polyline points="395.854 54.63 394.788 54.63 394.788 77.035 417.193 77.035 417.193 54.63 395.854 54.63" fill="none" stroke="#000" stroke-miterlimit="11.339"/>
      <polyline points="416.127 48.689 417.193 48.689 417.193 26.284 394.788 26.284 394.788 48.689 416.127 48.689" fill="none" stroke="#000" stroke-miterlimit="11.339"/>
      <polyline points="423.134 47.082 423.134 48.42 423.134 48.689 445.539 48.689 445.539 26.284 423.134 26.284 423.134 47.082" fill="none" stroke="#000" stroke-miterlimit="11.339"/>
      <polyline points="423.134 75.428 423.134 76.766 423.134 77.035 445.539 77.035 445.539 54.63 423.134 54.63 423.134 75.428" fill="none" stroke="#000" stroke-miterlimit="11.339"/>
      <polyline points="423.134 104.333 423.134 105.382 445.539 105.382 445.539 82.977 423.134 82.977 423.134 104.333" fill="none" stroke="#000" stroke-miterlimit="11.339"/>
      <polyline points="423.134 132.68 423.134 133.728 445.539 133.728 445.539 111.323 423.134 111.323 423.134 132.68" fill="none" stroke="#000" stroke-miterlimit="11.339"/>
      <polyline points="423.134 161.026 423.134 162.075 445.539 162.075 445.539 139.67 423.134 139.67 423.134 161.026" fill="none" stroke="#000" stroke-miterlimit="11.339"/>
      <polyline points="423.134 188.814 423.134 190.152 423.134 190.421 445.539 190.421 445.539 168.016 423.134 168.016 423.134 188.814" fill="none" stroke="#000" stroke-miterlimit="11.339"/>
      <polyline points="423.134 217.16 423.134 218.498 423.134 218.768 445.539 218.768 445.539 196.363 423.134 196.363 423.134 217.16" fill="none" stroke="#000" stroke-miterlimit="11.339"/>
      <polyline points="445.539 226.316 445.539 224.978 445.539 224.709 423.134 224.709 423.134 247.114 445.539 247.114 445.539 226.316" fill="none" stroke="#000" stroke-miterlimit="11.339"/>
      <polyline points="452.547 224.709 451.481 224.709 451.481 247.114 473.886 247.114 473.886 224.709 452.547 224.709" fill="none" stroke="#000" stroke-miterlimit="11.339"/>
      <polyline points="452.547 196.363 451.481 196.363 451.481 218.768 473.886 218.768 473.886 196.363 452.547 196.363" fill="none" stroke="#000" stroke-miterlimit="11.339"/>
      <polyline points="452.53 168.016 451.481 168.016 451.481 190.421 473.886 190.421 473.886 168.016 452.53 168.016" fill="none" stroke="#000" stroke-miterlimit="11.339"/>
      <polyline points="452.53 139.67 451.481 139.67 451.481 162.075 473.886 162.075 473.886 139.67 452.53 139.67" fill="none" stroke="#000" stroke-miterlimit="11.339"/>
      <polyline points="452.53 111.323 451.481 111.323 451.481 133.728 473.886 133.728 473.886 111.323 452.53 111.323" fill="none" stroke="#000" stroke-miterlimit="11.339"/>
      <polyline points="452.547 82.977 451.481 82.977 451.481 105.382 473.886 105.382 473.886 82.977 452.547 82.977" fill="none" stroke="#000" stroke-miterlimit="11.339"/>
      <polyline points="452.547 54.63 451.481 54.63 451.481 77.035 473.886 77.035 473.886 54.63 452.547 54.63" fill="none" stroke="#000" stroke-miterlimit="11.339"/>
      <polyline points="472.82 48.689 473.886 48.689 473.886 26.284 451.481 26.284 451.481 48.689 472.82 48.689" fill="none" stroke="#000" stroke-miterlimit="11.339"/>
      <polyline points="479.827 47.082 479.827 48.42 479.827 48.689 502.232 48.689 502.232 26.284 479.827 26.284 479.827 47.082" fill="none" stroke="#000" stroke-miterlimit="11.339"/>
      <polyline points="479.827 75.428 479.827 76.766 479.827 77.035 502.232 77.035 502.232 54.63 479.827 54.63 479.827 75.428" fill="none" stroke="#000" stroke-miterlimit="11.339"/>
      <polyline points="479.827 104.333 479.827 105.382 502.232 105.382 502.232 82.977 479.827 82.977 479.827 104.333" fill="none" stroke="#000" stroke-miterlimit="11.339"/>
      <polyline points="479.827 132.68 479.827 133.728 502.232 133.728 502.232 111.323 479.827 111.323 479.827 132.68" fill="none" stroke="#000" stroke-miterlimit="11.339"/>
      <polyline points="479.827 161.026 479.827 162.075 502.232 162.075 502.232 139.67 479.827 139.67 479.827 161.026" fill="none" stroke="#000" stroke-miterlimit="11.339"/>
      <polyline points="479.827 188.814 479.827 190.152 479.827 190.421 502.232 190.421 502.232 168.016 479.827 168.016 479.827 188.814" fill="none" stroke="#000" stroke-miterlimit="11.339"/>
      <polyline points="479.827 217.16 479.827 218.498 479.827 218.768 502.232 218.768 502.232 196.363 479.827 196.363 479.827 217.16" fill="none" stroke="#000" stroke-miterlimit="11.339"/>
      <polyline points="502.232 226.316 502.232 224.978 502.232 224.709 479.827 224.709 479.827 247.114 502.232 247.114 502.232 226.316" fill="none" stroke="#000" stroke-miterlimit="11.339"/>
      <polyline points="509.24 224.709 508.174 224.709 508.174 247.114 530.579 247.114 530.579 224.709 509.24 224.709" fill="none" stroke="#000" stroke-miterlimit="11.339"/>
      <polyline points="509.24 196.363 508.174 196.363 508.174 218.768 530.579 218.768 530.579 196.363 509.24 196.363" fill="none" stroke="#000" stroke-miterlimit="11.339"/>
      <polyline points="509.223 168.016 508.174 168.016 508.174 190.421 530.579 190.421 530.579 168.016 509.223 168.016" fill="none" stroke="#000" stroke-miterlimit="11.339"/>
      <polyline points="509.223 139.67 508.174 139.67 508.174 162.075 530.579 162.075 530.579 139.67 509.223 139.67" fill="none" stroke="#000" stroke-miterlimit="11.339"/>
      <polyline points="509.223 111.323 508.174 111.323 508.174 133.728 530.579 133.728 530.579 111.323 509.223 111.323" fill="none" stroke="#000" stroke-miterlimit="11.339"/>
      <polyline points="509.24 82.977 508.174 82.977 508.174 105.382 530.579 105.382 530.579 82.977 509.24 82.977" fill="none" stroke="#000" stroke-miterlimit="11.339"/>
      <polyline points="509.24 54.63 508.174 54.63 508.174 77.035 530.579 77.035 530.579 54.63 509.24 54.63" fill="none" stroke="#000" stroke-miterlimit="11.339"/>
      <polyline points="529.513 48.689 530.579 48.689 530.579 26.284 508.174 26.284 508.174 48.689 529.513 48.689" fill="none" stroke="#000" stroke-miterlimit="11.339"/>
      <polyline points="536.52 47.082 536.52 48.42 536.52 48.689 558.925 48.689 558.925 26.284 536.52 26.284 536.52 47.082" fill="none" stroke="#000" stroke-miterlimit="11.339"/>
      <polyline points="536.52 75.428 536.52 76.766 536.52 77.035 558.925 77.035 558.925 54.63 536.52 54.63 536.52 75.428" fill="none" stroke="#000" stroke-miterlimit="11.339"/>
      <polyline points="536.52 104.333 536.52 105.382 558.925 105.382 558.925 82.977 536.52 82.977 536.52 104.333" fill="none" stroke="#000" stroke-miterlimit="11.339"/>
      <polyline points="536.52 132.68 536.52 133.728 558.925 133.728 558.925 111.323 536.52 111.323 536.52 132.68" fill="none" stroke="#000" stroke-miterlimit="11.339"/>
      <polyline points="536.52 161.026 536.52 162.075 558.925 162.075 558.925 139.67 536.52 139.67 536.52 161.026" fill="none" stroke="#000" stroke-miterlimit="11.339"/>
      <polyline points="536.52 188.814 536.52 190.152 536.52 190.421 558.925 190.421 558.925 168.016 536.52 168.016 536.52 188.814" fill="none" stroke="#000" stroke-miterlimit="11.339"/>
      <polyline points="536.52 217.16 536.52 218.498 536.52 218.768 558.925 218.768 558.925 196.363 536.52 196.363 536.52 217.16" fill="none" stroke="#000" stroke-miterlimit="11.339"/>
      <polyline points="558.925 226.316 558.925 224.978 558.925 224.709 536.52 224.709 536.52 247.114 558.925 247.114 558.925 226.316" fill="none" stroke="#000" stroke-miterlimit="11.339"/>
      <polyline points="565.932 224.709 564.867 224.709 564.867 247.114 587.272 247.114 587.272 224.709 565.932 224.709" fill="none" stroke="#000" stroke-miterlimit="11.339"/>
      <polyline points="565.932 196.363 564.867 196.363 564.867 218.768 587.272 218.768 587.272 196.363 565.932 196.363" fill="none" stroke="#000" stroke-miterlimit="11.339"/>
      <polyline points="565.915 168.016 564.867 168.016 564.867 190.421 587.272 190.421 587.272 168.016 565.915 168.016" fill="none" stroke="#000" stroke-miterlimit="11.339"/>
      <polyline points="565.915 139.67 564.867 139.67 564.867 162.075 587.272 162.075 587.272 139.67 565.915 139.67" fill="none" stroke="#000" stroke-miterlimit="11.339"/>
      <polyline points="565.915 111.323 564.867 111.323 564.867 133.728 587.272 133.728 587.272 111.323 565.915 111.323" fill="none" stroke="#000" stroke-miterlimit="11.339"/>
      <polyline points="565.932 82.977 564.867 82.977 564.867 105.382 587.272 105.382 587.272 82.977 565.932 82.977" fill="none" stroke="#000" stroke-miterlimit="11.339"/>
      <polyline points="565.932 54.63 564.867 54.63 564.867 77.035 587.272 77.035 587.272 54.63 565.932 54.63" fill="none" stroke="#000" stroke-miterlimit="11.339"/>
      <polyline points="586.206 48.689 587.272 48.689 587.272 26.284 564.867 26.284 564.867 48.689 586.206 48.689" fill="none" stroke="#000" stroke-miterlimit="11.339"/>
      <polyline points="593.213 47.082 593.213 48.42 593.213 48.689 615.618 48.689 615.618 26.284 593.213 26.284 593.213 47.082" fill="none" stroke="#000" stroke-miterlimit="11.339"/>
      <polyline points="593.213 75.428 593.213 76.766 593.213 77.035 615.618 77.035 615.618 54.63 593.213 54.63 593.213 75.428" fill="none" stroke="#000" stroke-miterlimit="11.339"/>
      <polyline points="593.213 104.333 593.213 105.382 615.618 105.382 615.618 82.977 593.213 82.977 593.213 104.333" fill="none" stroke="#000" stroke-miterlimit="11.339"/>
      <polyline points="593.213 132.68 593.213 133.728 615.618 133.728 615.618 111.323 593.213 111.323 593.213 132.68" fill="none" stroke="#000" stroke-miterlimit="11.339"/>
      <polyline points="593.213 161.026 593.213 162.075 615.618 162.075 615.618 139.67 593.213 139.67 593.213 161.026" fill="none" stroke="#000" stroke-miterlimit="11.339"/>
      <polyline points="593.213 188.814 593.213 190.152 593.213 190.421 615.618 190.421 615.618 168.016 593.213 168.016 593.213 188.814" fill="none" stroke="#000" stroke-miterlimit="11.339"/>
      <polyline points="593.213 217.16 593.213 218.498 593.213 218.768 615.618 218.768 615.618 196.363 593.213 196.363 593.213 217.16" fill="none" stroke="#000" stroke-miterlimit="11.339"/>
      <polyline points="615.618 226.316 615.618 224.978 615.618 224.709 593.213 224.709 593.213 247.114 615.618 247.114 615.618 226.316" fill="none" stroke="#000" stroke-miterlimit="11.339"/>
      <polyline points="622.625 224.709 621.56 224.709 621.56 247.114 643.965 247.114 643.965 224.709 622.625 224.709" fill="none" stroke="#000" stroke-miterlimit="11.339"/>
      <polyline points="622.625 196.363 621.56 196.363 621.56 218.768 643.965 218.768 643.965 196.363 622.625 196.363" fill="none" stroke="#000" stroke-miterlimit="11.339"/>
      <polyline points="622.608 168.016 621.56 168.016 621.56 190.421 643.965 190.421 643.965 168.016 622.608 168.016" fill="none" stroke="#000" stroke-miterlimit="11.339"/>
      <polyline points="622.608 139.67 621.56 139.67 621.56 162.075 643.965 162.075 643.965 139.67 622.608 139.67" fill="none" stroke="#000" stroke-miterlimit="11.339"/>
      <polyline points="622.608 111.323 621.56 111.323 621.56 133.728 643.965 133.728 643.965 111.323 622.608 111.323" fill="none" stroke="#000" stroke-miterlimit="11.339"/>
      <polyline points="622.625 82.977 621.56 82.977 621.56 105.382 643.965 105.382 643.965 82.977 622.625 82.977" fill="none" stroke="#000" stroke-miterlimit="11.339"/>
      <polyline points="622.625 54.63 621.56 54.63 621.56 77.035 643.965 77.035 643.965 54.63 622.625 54.63" fill="none" stroke="#000" stroke-miterlimit="11.339"/>
      <polyline points="642.899 48.689 643.965 48.689 643.965 26.284 621.56 26.284 621.56 48.689 642.899 48.689" fill="none" stroke="#000" stroke-miterlimit="11.339"/>
      <polyline points="649.906 47.082 649.906 48.42 649.906 48.689 672.311 48.689 672.311 26.284 649.906 26.284 649.906 47.082" fill="none" stroke="#000" stroke-miterlimit="11.339"/>
      <polyline points="649.906 75.428 649.906 76.766 649.906 77.035 672.311 77.035 672.311 54.63 649.906 54.63 649.906 75.428" fill="none" stroke="#000" stroke-miterlimit="11.339"/>
      <polyline points="649.906 104.333 649.906 105.382 672.311 105.382 672.311 82.977 649.906 82.977 649.906 104.333" fill="none" stroke="#000" stroke-miterlimit="11.339"/>
      <polyline points="649.906 132.68 649.906 133.728 672.311 133.728 672.311 111.323 649.906 111.323 649.906 132.68" fill="none" stroke="#000" stroke-miterlimit="11.339"/>
      <polyline points="649.906 161.026 649.906 162.075 672.311 162.075 672.311 139.67 649.906 139.67 649.906 161.026" fill="none" stroke="#000" stroke-miterlimit="11.339"/>
      <polyline points="649.906 188.814 649.906 190.152 649.906 190.421 672.311 190.421 672.311 168.016 649.906 168.016 649.906 188.814" fill="none" stroke="#000" stroke-miterlimit="11.339"/>
      <polyline points="649.906 217.16 649.906 218.498 649.906 218.768 672.311 218.768 672.311 196.363 649.906 196.363 649.906 217.16" fill="none" stroke="#000" stroke-miterlimit="11.339"/>
      <polyline points="672.311 226.316 672.311 224.978 672.311 224.709 649.906 224.709 649.906 247.114 672.311 247.114 672.311 226.316" fill="none" stroke="#000" stroke-miterlimit="11.339"/>
      <polyline points="679.318 224.709 678.252 224.709 678.252 247.114 700.658 247.114 700.658 224.709 679.318 224.709" fill="none" stroke="#000" stroke-miterlimit="11.339"/>
      <polyline points="679.318 196.363 678.252 196.363 678.252 218.768 700.658 218.768 700.658 196.363 679.318 196.363" fill="none" stroke="#000" stroke-miterlimit="11.339"/>
      <polyline points="679.301 168.016 678.252 168.016 678.252 190.421 700.658 190.421 700.658 168.016 679.301 168.016" fill="none" stroke="#000" stroke-miterlimit="11.339"/>
      <polyline points="679.301 139.67 678.252 139.67 678.252 162.075 700.658 162.075 700.658 139.67 679.301 139.67" fill="none" stroke="#000" stroke-miterlimit="11.339"/>
      <polyline points="679.301 111.323 678.252 111.323 678.252 133.728 700.658 133.728 700.658 111.323 679.301 111.323" fill="none" stroke="#000" stroke-miterlimit="11.339"/>
      <polyline points="679.318 82.977 678.252 82.977 678.252 105.382 700.658 105.382 700.658 82.977 679.318 82.977" fill="none" stroke="#000" stroke-miterlimit="11.339"/>
      <polyline points="679.318 54.63 678.252 54.63 678.252 77.035 700.658 77.035 700.658 54.63 679.318 54.63" fill="none" stroke="#000" stroke-miterlimit="11.339"/>
      <polyline points="699.592 48.689 700.658 48.689 700.658 26.284 678.252 26.284 678.252 48.689 699.592 48.689" fill="none" stroke="#000" stroke-miterlimit="11.339"/>
      <polyline points="727.938 48.689 729.004 48.689 729.004 26.284 706.599 26.284 706.599 48.689 727.938 48.689" fill="none" stroke="#000" stroke-miterlimit="11.339"/>
      <polyline points="756.285 48.689 757.35 48.689 757.35 26.284 734.945 26.284 734.945 48.689 756.285 48.689" fill="none" stroke="#000" stroke-miterlimit="11.339"/>
      <polyline points="784.631 48.689 785.697 48.689 785.697 26.284 763.292 26.284 763.292 48.689 784.631 48.689" fill="none" stroke="#000" stroke-miterlimit="11.339"/>
      <polyline points="812.977 48.689 814.043 48.689 814.043 26.284 791.638 26.284 791.638 48.689 812.977 48.689" fill="none" stroke="#000" stroke-miterlimit="11.339"/>
      <polyline points="841.324 48.689 842.39 48.689 842.39 26.284 819.985 26.284 819.985 48.689 841.324 48.689" fill="none" stroke="#000" stroke-miterlimit="11.339"/>
      <polyline points="869.67 48.689 870.736 48.689 870.736 26.284 848.331 26.284 848.331 48.689 869.67 48.689" fill="none" stroke="#000" stroke-miterlimit="11.339"/>
      <polyline points="898.017 48.689 899.083 48.689 899.083 26.284 876.678 26.284 876.678 48.689 898.017 48.689" fill="none" stroke="#000" stroke-miterlimit="11.339"/>
      <polyline points="905.024 47.623 905.024 48.689 927.429 48.689 927.429 26.284 905.024 26.284 905.024 47.623" fill="none" stroke="#000" stroke-miterlimit="11.339"/>
      <polyline points="906.09 54.63 905.024 54.63 905.024 77.035 927.429 77.035 927.429 54.63 906.09 54.63" fill="none" stroke="#000" stroke-miterlimit="11.339"/>
      <polyline points="877.744 54.63 876.678 54.63 876.678 77.035 899.083 77.035 899.083 54.63 877.744 54.63" fill="none" stroke="#000" stroke-miterlimit="11.339"/>
      <polyline points="849.397 54.63 848.331 54.63 848.331 77.035 870.736 77.035 870.736 54.63 849.397 54.63" fill="none" stroke="#000" stroke-miterlimit="11.339"/>
      <polyline points="821.051 54.63 819.985 54.63 819.985 77.035 842.39 77.035 842.39 54.63 821.051 54.63" fill="none" stroke="#000" stroke-miterlimit="11.339"/>
      <polyline points="792.704 54.63 791.638 54.63 791.638 77.035 814.043 77.035 814.043 54.63 792.704 54.63" fill="none" stroke="#000" stroke-miterlimit="11.339"/>
      <polyline points="764.358 54.63 763.292 54.63 763.292 77.035 785.697 77.035 785.697 54.63 764.358 54.63" fill="none" stroke="#000" stroke-miterlimit="11.339"/>
      <polyline points="736.011 54.63 734.945 54.63 734.945 77.035 757.35 77.035 757.35 54.63 736.011 54.63" fill="none" stroke="#000" stroke-miterlimit="11.339"/>
      <polyline points="727.938 77.035 729.004 77.035 729.004 54.63 706.599 54.63 706.599 77.035 727.938 77.035" fill="none" stroke="#000" stroke-miterlimit="11.339"/>
      <polyline points="729.004 84.043 729.004 82.977 706.599 82.977 706.599 105.382 729.004 105.382 729.004 84.043" fill="none" stroke="#000" stroke-miterlimit="11.339"/>
      <polyline points="757.35 84.043 757.35 82.977 734.945 82.977 734.945 105.382 757.35 105.382 757.35 84.043" fill="none" stroke="#000" stroke-miterlimit="11.339"/>
      <polyline points="785.697 84.043 785.697 82.977 763.292 82.977 763.292 105.382 785.697 105.382 785.697 84.043" fill="none" stroke="#000" stroke-miterlimit="11.339"/>
      <polyline points="814.043 84.043 814.043 82.977 791.638 82.977 791.638 105.382 814.043 105.382 814.043 84.043" fill="none" stroke="#000" stroke-miterlimit="11.339"/>
      <polyline points="842.39 84.043 842.39 82.977 819.985 82.977 819.985 105.382 842.39 105.382 842.39 84.043" fill="none" stroke="#000" stroke-miterlimit="11.339"/>
      <polyline points="870.736 84.043 870.736 82.977 848.331 82.977 848.331 105.382 870.736 105.382 870.736 84.043" fill="none" stroke="#000" stroke-miterlimit="11.339"/>
      <polyline points="899.083 84.043 899.083 82.977 876.678 82.977 876.678 105.382 899.083 105.382 899.083 84.043" fill="none" stroke="#000" stroke-miterlimit="11.339"/>
      <polyline points="905.024 104.316 905.024 105.382 927.429 105.382 927.429 82.977 905.024 82.977 905.024 104.316" fill="none" stroke="#000" stroke-miterlimit="11.339"/>
      <polyline points="906.631 111.323 905.293 111.323 905.024 111.323 905.024 133.728 927.429 133.728 927.429 111.323 906.631 111.323" fill="none" stroke="#000" stroke-miterlimit="11.339"/>
      <polyline points="878.285 111.323 876.947 111.323 876.678 111.323 876.678 133.728 899.083 133.728 899.083 111.323 878.285 111.323" fill="none" stroke="#000" stroke-miterlimit="11.339"/>
      <polyline points="849.938 111.323 848.601 111.323 848.331 111.323 848.331 133.728 870.736 133.728 870.736 111.323 849.938 111.323" fill="none" stroke="#000" stroke-miterlimit="11.339"/>
      <polyline points="821.592 111.323 820.254 111.323 819.985 111.323 819.985 133.728 842.39 133.728 842.39 111.323 821.592 111.323" fill="none" stroke="#000" stroke-miterlimit="11.339"/>
      <polyline points="793.246 111.323 791.908 111.323 791.638 111.323 791.638 133.728 814.043 133.728 814.043 111.323 793.246 111.323" fill="none" stroke="#000" stroke-miterlimit="11.339"/>
      <polyline points="764.899 111.323 763.561 111.323 763.292 111.323 763.292 133.728 785.697 133.728 785.697 111.323 764.899 111.323" fill="none" stroke="#000" stroke-miterlimit="11.339"/>
      <polyline points="736.553 111.323 735.215 111.323 734.945 111.323 734.945 133.728 757.35 133.728 757.35 111.323 736.553 111.323" fill="none" stroke="#000" stroke-miterlimit="11.339"/>
      <polyline points="727.397 133.728 728.735 133.728 729.004 133.728 729.004 111.323 706.599 111.323 706.599 133.728 727.397 133.728" fill="none" stroke="#000" stroke-miterlimit="11.339"/>
      <polyline points="729.004 140.736 729.004 139.67 706.599 139.67 706.599 162.075 729.004 162.075 729.004 140.736" fill="none" stroke="#000" stroke-miterlimit="11.339"/>
      <polyline points="757.35 140.736 757.35 139.67 734.945 139.67 734.945 162.075 757.35 162.075 757.35 140.736" fill="none" stroke="#000" stroke-miterlimit="11.339"/>
      <polyline points="785.697 140.736 785.697 139.67 763.292 139.67 763.292 162.075 785.697 162.075 785.697 140.736" fill="none" stroke="#000" stroke-miterlimit="11.339"/>
      <polyline points="814.043 140.736 814.043 139.67 791.638 139.67 791.638 162.075 814.043 162.075 814.043 140.736" fill="none" stroke="#000" stroke-miterlimit="11.339"/>
      <polyline points="842.39 140.736 842.39 139.67 819.985 139.67 819.985 162.075 842.39 162.075 842.39 140.736" fill="none" stroke="#000" stroke-miterlimit="11.339"/>
      <polyline points="870.736 140.736 870.736 139.67 848.331 139.67 848.331 162.075 870.736 162.075 870.736 140.736" fill="none" stroke="#000" stroke-miterlimit="11.339"/>
      <polyline points="899.083 140.736 899.083 139.67 876.678 139.67 876.678 162.075 899.083 162.075 899.083 140.736" fill="none" stroke="#000" stroke-miterlimit="11.339"/>
      <polyline points="905.024 161.009 905.024 162.075 927.429 162.075 927.429 139.67 905.024 139.67 905.024 161.009" fill="none" stroke="#000" stroke-miterlimit="11.339"/>
      <polyline points="906.631 168.016 905.293 168.016 905.024 168.016 905.024 190.421 927.429 190.421 927.429 168.016 906.631 168.016" fill="none" stroke="#000" stroke-miterlimit="11.339"/>
      <polyline points="878.285 168.016 876.947 168.016 876.678 168.016 876.678 190.421 899.083 190.421 899.083 168.016 878.285 168.016" fill="none" stroke="#000" stroke-miterlimit="11.339"/>
      <polyline points="849.938 168.016 848.601 168.016 848.331 168.016 848.331 190.421 870.736 190.421 870.736 168.016 849.938 168.016" fill="none" stroke="#000" stroke-miterlimit="11.339"/>
      <polyline points="821.592 168.016 820.254 168.016 819.985 168.016 819.985 190.421 842.39 190.421 842.39 168.016 821.592 168.016" fill="none" stroke="#000" stroke-miterlimit="11.339"/>
      <polyline points="793.246 168.016 791.908 168.016 791.638 168.016 791.638 190.421 814.043 190.421 814.043 168.016 793.246 168.016" fill="none" stroke="#000" stroke-miterlimit="11.339"/>
      <polyline points="764.899 168.016 763.561 168.016 763.292 168.016 763.292 190.421 785.697 190.421 785.697 168.016 764.899 168.016" fill="none" stroke="#000" stroke-miterlimit="11.339"/>
      <polyline points="736.553 168.016 735.215 168.016 734.945 168.016 734.945 190.421 757.35 190.421 757.35 168.016 736.553 168.016" fill="none" stroke="#000" stroke-miterlimit="11.339"/>
      <polyline points="727.938 190.421 729.004 190.421 729.004 168.016 706.599 168.016 706.599 190.421 727.938 190.421" fill="none" stroke="#000" stroke-miterlimit="11.339"/>
      <polyline points="729.004 197.428 729.004 196.363 706.599 196.363 706.599 218.768 729.004 218.768 729.004 197.428" fill="none" stroke="#000" stroke-miterlimit="11.339"/>
      <polyline points="757.35 197.428 757.35 196.363 734.945 196.363 734.945 218.768 757.35 218.768 757.35 197.428" fill="none" stroke="#000" stroke-miterlimit="11.339"/>
      <polyline points="785.697 197.428 785.697 196.363 763.292 196.363 763.292 218.768 785.697 218.768 785.697 197.428" fill="none" stroke="#000" stroke-miterlimit="11.339"/>
      <polyline points="814.043 197.428 814.043 196.363 791.638 196.363 791.638 218.768 814.043 218.768 814.043 197.428" fill="none" stroke="#000" stroke-miterlimit="11.339"/>
      <polyline points="842.39 197.428 842.39 196.363 819.985 196.363 819.985 218.768 842.39 218.768 842.39 197.428" fill="none" stroke="#000" stroke-miterlimit="11.339"/>
      <polyline points="870.736 197.428 870.736 196.363 848.331 196.363 848.331 218.768 870.736 218.768 870.736 197.428" fill="none" stroke="#000" stroke-miterlimit="11.339"/>
      <polyline points="899.083 197.428 899.083 196.363 876.678 196.363 876.678 218.768 899.083 218.768 899.083 197.428" fill="none" stroke="#000" stroke-miterlimit="11.339"/>
      <polyline points="905.024 217.702 905.024 218.768 927.429 218.768 927.429 196.363 905.024 196.363 905.024 217.702" fill="none" stroke="#000" stroke-miterlimit="11.339"/>
      <polyline points="906.09 224.709 905.024 224.709 905.024 247.114 927.429 247.114 927.429 224.709 906.09 224.709" fill="none" stroke="#000" stroke-miterlimit="11.339"/>
      <polyline points="877.744 224.709 876.678 224.709 876.678 247.114 899.083 247.114 899.083 224.709 877.744 224.709" fill="none" stroke="#000" stroke-miterlimit="11.339"/>
      <polyline points="849.397 224.709 848.331 224.709 848.331 247.114 870.736 247.114 870.736 224.709 849.397 224.709" fill="none" stroke="#000" stroke-miterlimit="11.339"/>
      <polyline points="821.051 224.709 819.985 224.709 819.985 247.114 842.39 247.114 842.39 224.709 821.051 224.709" fill="none" stroke="#000" stroke-miterlimit="11.339"/>
      <polyline points="792.704 224.709 791.638 224.709 791.638 247.114 814.043 247.114 814.043 224.709 792.704 224.709" fill="none" stroke="#000" stroke-miterlimit="11.339"/>
      <polyline points="764.358 224.709 763.292 224.709 763.292 247.114 785.697 247.114 785.697 224.709 764.358 224.709" fill="none" stroke="#000" stroke-miterlimit="11.339"/>
      <polyline points="736.011 224.709 734.945 224.709 734.945 247.114 757.35 247.114 757.35 224.709 736.011 224.709" fill="none" stroke="#000" stroke-miterlimit="11.339"/>
      <polyline points="706.599 233.213 706.599 247.114 729.004 247.114 729.004 224.709 706.599 224.709 706.599 233.213" fill="none" stroke="#000" stroke-miterlimit="11.339"/>
      <path d="M631.869,256.888c0-2.117-1.716-3.832-3.832-3.832h0c-2.117,0-3.832,1.716-3.832,3.832s1.716,3.832,3.832,3.832c2.117,0,3.832-1.716,3.832-3.832h0" fill="none" stroke="#000" stroke-miterlimit="11.339"/>
      <path d="M879.628,254.056c-1.564,1.426-1.676,3.85-.249,5.414h0c1.426,1.564,3.85,1.676,5.414.25h0c1.564-1.426,1.676-3.85.249-5.414h0c-1.426-1.564-3.85-1.676-5.414-.25h0" fill="none" stroke="#000" stroke-miterlimit="11.339"/>
      <path d="M879.379,19.092c1.426,1.564,3.85,1.676,5.414.249h0c1.564-1.426,1.676-3.85.249-5.414h0c-1.426-1.564-3.85-1.676-5.414-.25h0c-1.564,1.426-1.676,3.85-.249,5.414h0" fill="none" stroke="#000" stroke-miterlimit="11.339"/>
      <path d="M631.855,16.862c.195-2.108-1.355-3.974-3.463-4.169-.001,0-.003,0-.004,0-2.108-.195-3.974,1.355-4.169,3.463,0,.001,0,.003,0,.004-.195,2.108,1.355,3.974,3.463,4.169.001,0,.003,0,.004,0,2.108.195,3.974-1.355,4.169-3.463,0-.001,0-.003,0-.004" fill="none" stroke="#000" stroke-miterlimit="11.339"/>
      <path d="M325.676,20.343c2.117,0,3.832-1.716,3.832-3.832h0c0-2.117-1.716-3.832-3.832-3.832s-3.832,1.716-3.832,3.832,1.716,3.832,3.832,3.832h0" fill="none" stroke="#000" stroke-miterlimit="11.339"/>
      <polyline points="274.395 48.689 275.461 48.689 275.461 26.284 253.056 26.284 253.056 48.689 274.395 48.689" fill="none" stroke="#000" stroke-miterlimit="11.339"/>
      <polyline points="254.121 54.63 253.056 54.63 253.056 77.035 275.461 77.035 275.461 54.63 254.121 54.63" fill="none" stroke="#000" stroke-miterlimit="11.339"/>
      <polyline points="247.114 55.696 247.114 54.63 224.709 54.63 224.709 77.035 247.114 77.035 247.114 55.696" fill="none" stroke="#000" stroke-miterlimit="11.339"/>
      <polyline points="224.709 47.623 224.709 48.689 247.114 48.689 247.114 26.284 224.709 26.284 224.709 47.623" fill="none" stroke="#000" stroke-miterlimit="11.339"/>
      <polyline points="196.363 47.623 196.363 48.689 218.768 48.689 218.768 26.284 196.363 26.284 196.363 47.623" fill="none" stroke="#000" stroke-miterlimit="11.339"/>
      <polyline points="189.355 48.689 190.421 48.689 190.421 26.284 168.016 26.284 168.016 48.689 189.355 48.689" fill="none" stroke="#000" stroke-miterlimit="11.339"/>
      <polyline points="189.355 77.035 190.421 77.035 190.421 54.63 168.016 54.63 168.016 77.035 189.355 77.035" fill="none" stroke="#000" stroke-miterlimit="11.339"/>
      <polyline points="169.082 82.977 168.016 82.977 168.016 105.382 190.421 105.382 190.421 82.977 169.082 82.977" fill="none" stroke="#000" stroke-miterlimit="11.339"/>
      <polyline points="161.026 105.382 162.075 105.382 162.075 82.977 139.67 82.977 139.67 105.382 161.026 105.382" fill="none" stroke="#000" stroke-miterlimit="11.339"/>
      <polyline points="162.075 112.372 162.075 111.323 139.67 111.323 139.67 133.728 162.075 133.728 162.075 112.372" fill="none" stroke="#000" stroke-miterlimit="11.339"/>
      <polyline points="168.016 132.68 168.016 133.728 190.421 133.728 190.421 111.323 168.016 111.323 168.016 132.68" fill="none" stroke="#000" stroke-miterlimit="11.339"/>
      <polyline points="169.065 139.67 168.016 139.67 168.016 162.075 190.421 162.075 190.421 139.67 169.065 139.67" fill="none" stroke="#000" stroke-miterlimit="11.339"/>
      <polyline points="161.026 162.075 162.075 162.075 162.075 139.67 139.67 139.67 139.67 162.075 161.026 162.075" fill="none" stroke="#000" stroke-miterlimit="11.339"/>
      <polyline points="140.719 168.016 139.67 168.016 139.67 190.421 162.075 190.421 162.075 168.016 140.719 168.016" fill="none" stroke="#000" stroke-miterlimit="11.339"/>
      <polyline points="112.372 168.016 111.323 168.016 111.323 190.421 133.728 190.421 133.728 168.016 112.372 168.016" fill="none" stroke="#000" stroke-miterlimit="11.339"/>
      <polyline points="105.382 169.065 105.382 168.016 82.977 168.016 82.977 190.421 105.382 190.421 105.382 169.065" fill="none" stroke="#000" stroke-miterlimit="11.339"/>
      <polyline points="105.382 140.719 105.382 139.67 82.977 139.67 82.977 162.075 105.382 162.075 105.382 140.719" fill="none" stroke="#000" stroke-miterlimit="11.339"/>
      <polyline points="105.382 112.372 105.382 111.323 82.977 111.323 82.977 133.728 105.382 133.728 105.382 112.372" fill="none" stroke="#000" stroke-miterlimit="11.339"/>
      <polyline points="105.382 84.584 105.382 83.246 105.382 82.977 82.977 82.977 82.977 105.382 105.382 105.382 105.382 84.584" fill="none" stroke="#000" stroke-miterlimit="11.339"/>
      <polyline points="104.316 77.035 105.382 77.035 105.382 54.63 82.977 54.63 82.977 77.035 104.316 77.035" fill="none" stroke="#000" stroke-miterlimit="11.339"/>
      <polyline points="112.389 54.63 111.323 54.63 111.323 77.035 133.728 77.035 133.728 54.63 112.389 54.63" fill="none" stroke="#000" stroke-miterlimit="11.339"/>
      <polyline points="111.323 47.082 111.323 48.42 111.323 48.689 133.728 48.689 133.728 26.284 111.323 26.284 111.323 47.082" fill="none" stroke="#000" stroke-miterlimit="11.339"/>
      <polyline points="82.977 47.623 82.977 48.689 105.382 48.689 105.382 26.284 82.977 26.284 82.977 47.623" fill="none" stroke="#000" stroke-miterlimit="11.339"/>
      <polyline points="75.97 48.689 77.035 48.689 77.035 26.284 54.63 26.284 54.63 48.689 75.97 48.689" fill="none" stroke="#000" stroke-miterlimit="11.339"/>
      <polyline points="75.97 77.035 77.035 77.035 77.035 54.63 54.63 54.63 54.63 77.035 75.97 77.035" fill="none" stroke="#000" stroke-miterlimit="11.339"/>
      <polyline points="75.428 105.382 76.766 105.382 77.035 105.382 77.035 82.977 54.63 82.977 54.63 105.382 75.428 105.382" fill="none" stroke="#000" stroke-miterlimit="11.339"/>
      <polyline points="75.428 133.728 76.766 133.728 77.035 133.728 77.035 111.323 54.63 111.323 54.63 133.728 75.428 133.728" fill="none" stroke="#000" stroke-miterlimit="11.339"/>
      <polyline points="75.428 162.075 76.766 162.075 77.035 162.075 77.035 139.67 54.63 139.67 54.63 162.075 75.428 162.075" fill="none" stroke="#000" stroke-miterlimit="11.339"/>
      <polyline points="56.238 168.016 54.9 168.016 54.63 168.016 54.63 190.421 77.035 190.421 77.035 168.016 56.238 168.016" fill="none" stroke="#000" stroke-miterlimit="11.339"/>
      <polyline points="48.689 169.082 48.689 168.016 26.284 168.016 26.284 190.421 48.689 190.421 48.689 169.082" fill="none" stroke="#000" stroke-miterlimit="11.339"/>
      <polyline points="48.689 140.736 48.689 139.67 26.284 139.67 26.284 162.075 48.689 162.075 48.689 140.736" fill="none" stroke="#000" stroke-miterlimit="11.339"/>
      <polyline points="48.689 112.389 48.689 111.323 26.284 111.323 26.284 133.728 48.689 133.728 48.689 112.389" fill="none" stroke="#000" stroke-miterlimit="11.339"/>
      <polyline points="48.689 84.043 48.689 82.977 26.284 82.977 26.284 105.382 48.689 105.382 48.689 84.043" fill="none" stroke="#000" stroke-miterlimit="11.339"/>
      <polyline points="48.689 55.696 48.689 54.63 26.284 54.63 26.284 77.035 48.689 77.035 48.689 55.696" fill="none" stroke="#000" stroke-miterlimit="11.339"/>
      <polyline points="47.623 48.689 48.689 48.689 48.689 26.284 26.284 26.284 26.284 48.689 47.623 48.689" fill="none" stroke="#000" stroke-miterlimit="11.339"/>
      <path d="M74.085,19.342c1.564-1.426,1.676-3.85.249-5.414h0c-1.426-1.564-3.85-1.676-5.414-.25,0,0,0,0,0,0-1.564,1.426-1.676,3.85-.249,5.414,0,0,0,0,0,0,1.426,1.564,3.85,1.676,5.414.249,0,0,0,0,0,0" fill="none" stroke="#000" stroke-miterlimit="11.339"/>
      <polyline points="139.67 47.082 139.67 48.42 139.67 48.689 162.075 48.689 162.075 26.284 139.67 26.284 139.67 47.082" fill="none" stroke="#000" stroke-miterlimit="11.339"/>
      <polyline points="140.736 54.63 139.67 54.63 139.67 77.035 162.075 77.035 162.075 54.63 140.736 54.63" fill="none" stroke="#000" stroke-miterlimit="11.339"/>
      <polyline points="132.68 105.382 133.728 105.382 133.728 82.977 111.323 82.977 111.323 105.382 132.68 105.382" fill="none" stroke="#000" stroke-miterlimit="11.339"/>
      <polyline points="132.68 133.728 133.728 133.728 133.728 111.323 111.323 111.323 111.323 133.728 132.68 133.728" fill="none" stroke="#000" stroke-miterlimit="11.339"/>
      <polyline points="133.728 140.719 133.728 139.67 111.323 139.67 111.323 162.075 133.728 162.075 133.728 140.719" fill="none" stroke="#000" stroke-miterlimit="11.339"/>
      <polyline points="169.065 168.016 168.016 168.016 168.016 190.421 190.421 190.421 190.421 168.016 169.065 168.016" fill="none" stroke="#000" stroke-miterlimit="11.339"/>
      <polyline points="217.16 105.382 218.498 105.382 218.768 105.382 218.768 82.977 196.363 82.977 196.363 105.382 217.16 105.382" fill="none" stroke="#000" stroke-miterlimit="11.339"/>
      <polyline points="245.507 105.382 246.845 105.382 247.114 105.382 247.114 82.977 224.709 82.977 224.709 105.382 245.507 105.382" fill="none" stroke="#000" stroke-miterlimit="11.339"/>
      <polyline points="253.056 99.985 253.056 105.382 275.461 105.382 275.461 82.977 253.056 82.977 253.056 99.985" fill="none" stroke="#000" stroke-miterlimit="11.339"/>
      <polyline points="217.702 77.035 218.768 77.035 218.768 54.63 196.363 54.63 196.363 77.035 217.702 77.035" fill="none" stroke="#000" stroke-miterlimit="11.339"/>
      <polyline points="55.696 196.363 54.63 196.363 54.63 218.768 77.035 218.768 77.035 196.363 55.696 196.363" fill="none" stroke="#000" stroke-miterlimit="11.339"/>
      <polyline points="47.623 218.768 48.689 218.768 48.689 196.363 26.284 196.363 26.284 218.768 47.623 218.768" fill="none" stroke="#000" stroke-miterlimit="11.339"/>
      <polyline points="48.689 225.775 48.689 224.709 26.284 224.709 26.284 247.114 48.689 247.114 48.689 225.775" fill="none" stroke="#000" stroke-miterlimit="11.339"/>
      <polyline points="54.63 233.213 54.63 247.114 77.035 247.114 77.035 224.709 54.63 224.709 54.63 233.213" fill="none" stroke="#000" stroke-miterlimit="11.339"/>
      <path d="M69.277,253.767c-1.724,1.229-2.125,3.622-.896,5.345h0c1.229,1.724,3.622,2.126,5.345.897,0,0,0,0,0,0,1.724-1.229,2.125-3.622.896-5.345,0,0,0,0,0,0-1.229-1.724-3.622-2.125-5.345-.896,0,0,0,0,0,0" fill="none" stroke="#000" stroke-miterlimit="11.339"/>
      <path d="M69.277,272.898H.636c-.075,0-.136-.061-.136-.136V.636c0-.075.061-.136.136-.136h949.606c.075,0,.136.061.136.136h0v19.843c0,.075-.061.136-.136.136h-19.706v232.169h19.706c.075,0,.136.061.136.136h0v19.843c0,.075-.061.136-.136.136H69.277" fill="none" stroke="red" stroke-miterlimit="11.339"/>
    </g>
  </g>
</svg>