<?xml version="1.0" encoding="utf-8"?>
<!-- Generator: Adobe Illustrator 26.1.0, SVG Export Plug-In . SVG Version: 6.00 Build 0)  -->
<svg version="1.1" id="Layer_1" xmlns="http://www.w3.org/2000/svg" xmlns:xlink="http://www.w3.org/1999/xlink" x="0px" y="0px"
	 width="1440px" height="864px" viewBox="0 0 1440 864" enable-background="new 0 0 1440 864" xml:space="preserve">
<circle fill="#00FFFF" cx="310.65298" cy="317.81104" r="7.22835"/>
<circle fill="#00FFFF" cx="564.82715" cy="317.81104" r="7.22835"/>
<circle fill="#00FFFF" cx="867.18744" cy="317.81104" r="7.22835"/>
<circle fill="#00FFFF" cx="1121.36157" cy="317.81104" r="7.22835"/>
<circle fill="#00FFFF" cx="1121.36157" cy="558.18896" r="7.22835"/>
<circle fill="#00FFFF" cx="867.18744" cy="558.18896" r="7.22835"/>
<circle fill="#00FFFF" cx="564.82715" cy="558.18896" r="7.22835"/>
<circle fill="#00FFFF" cx="310.65298" cy="558.18896" r="7.22835"/>
<g id="global-translation-frame" transform="translate(2, 98) scale(1, -1)">
	<g id="opperation-1">
		<polyline fill="none" stroke="#000000" stroke-miterlimit="11.33858" points="625.99719,-429.61731 625.99719,-428.27936 
			625.99719,-428.01007 603.59216,-428.01007 603.59216,-450.4151 625.99719,-450.4151 625.99719,-429.61731 		"/>
		<polyline fill="none" stroke="#000000" stroke-miterlimit="11.33858" points="625.99719,-401.27087 625.99719,-399.93292 
			625.99719,-399.6636 603.59216,-399.6636 603.59216,-422.06866 625.99719,-422.06866 625.99719,-401.27087 		"/>
		<polyline fill="none" stroke="#000000" stroke-miterlimit="11.33858" points="625.99719,-372.36597 625.99719,-371.31717 
			603.59216,-371.31717 603.59216,-393.7222 625.99719,-393.7222 625.99719,-372.36597 		"/>
		<polyline fill="none" stroke="#000000" stroke-miterlimit="11.33858" points="625.99719,-344.01953 625.99719,-342.9707 
			603.59216,-342.9707 603.59216,-365.37573 625.99719,-365.37573 625.99719,-344.01953 		"/>
		<polyline fill="none" stroke="#000000" stroke-miterlimit="11.33858" points="625.99719,-315.67307 625.99719,-314.62424 
			603.59216,-314.62424 603.59216,-337.0293 625.99719,-337.0293 625.99719,-315.67307 		"/>
		<polyline fill="none" stroke="#000000" stroke-miterlimit="11.33858" points="625.99719,-287.88504 625.99719,-286.54709 
			625.99719,-286.27777 603.59216,-286.27777 603.59216,-308.68283 625.99719,-308.68283 625.99719,-287.88504 		"/>
		<polyline fill="none" stroke="#000000" stroke-miterlimit="11.33858" points="625.99719,-259.53857 625.99719,-258.20062 
			625.99719,-257.93134 603.59216,-257.93134 603.59216,-280.3364 625.99719,-280.3364 625.99719,-259.53857 		"/>
		<polyline fill="none" stroke="#000000" stroke-miterlimit="11.33858" points="603.59216,-250.38268 603.59216,-251.72063 
			603.59216,-251.98993 625.99719,-251.98993 625.99719,-229.58487 603.59216,-229.58487 603.59216,-250.38268 		"/>
		<polyline fill="none" stroke="#000000" stroke-miterlimit="11.33858" points="575.24567,-250.92407 575.24567,-251.98993 
			597.65076,-251.98993 597.65076,-229.58487 575.24567,-229.58487 575.24567,-250.92407 		"/>
		<polyline fill="none" stroke="#000000" stroke-miterlimit="11.33858" points="546.89923,-250.92407 546.89923,-251.98993 
			569.30426,-251.98993 569.30426,-229.58487 546.89923,-229.58487 546.89923,-250.92407 		"/>
		<polyline fill="none" stroke="#000000" stroke-miterlimit="11.33858" points="539.89197,-251.98993 540.95782,-251.98993 
			540.95782,-229.58487 518.55273,-229.58487 518.55273,-251.98993 539.89197,-251.98993 		"/>
		<polyline fill="none" stroke="#000000" stroke-miterlimit="11.33858" points="539.89197,-280.3364 540.95782,-280.3364 
			540.95782,-257.93134 518.55273,-257.93134 518.55273,-280.3364 539.89197,-280.3364 		"/>
		<polyline fill="none" stroke="#000000" stroke-miterlimit="11.33858" points="539.35059,-308.68283 540.68854,-308.68283 
			540.95782,-308.68283 540.95782,-286.27777 518.55273,-286.27777 518.55273,-308.68283 539.35059,-308.68283 		"/>
		<polyline fill="none" stroke="#000000" stroke-miterlimit="11.33858" points="539.35059,-337.0293 540.68854,-337.0293 
			540.95782,-337.0293 540.95782,-314.62424 518.55273,-314.62424 518.55273,-337.0293 539.35059,-337.0293 		"/>
		<polyline fill="none" stroke="#000000" stroke-miterlimit="11.33858" points="520.16003,-342.9707 518.82208,-342.9707 
			518.55273,-342.9707 518.55273,-365.37573 540.95782,-365.37573 540.95782,-342.9707 520.16003,-342.9707 		"/>
		<polyline fill="none" stroke="#000000" stroke-miterlimit="11.33858" points="512.61139,-344.03653 512.61139,-342.9707 
			490.2063,-342.9707 490.2063,-365.37573 512.61139,-365.37573 512.61139,-344.03653 		"/>
		<polyline fill="none" stroke="#000000" stroke-miterlimit="11.33858" points="490.2063,-335.96347 490.2063,-337.0293 
			512.61139,-337.0293 512.61139,-314.62424 490.2063,-314.62424 490.2063,-335.96347 		"/>
		<polyline fill="none" stroke="#000000" stroke-miterlimit="11.33858" points="461.85983,-335.96347 461.85983,-337.0293 
			484.26489,-337.0293 484.26489,-314.62424 461.85983,-314.62424 461.85983,-335.96347 		"/>
		<polyline fill="none" stroke="#000000" stroke-miterlimit="11.33858" points="454.31119,-337.0293 455.64917,-337.0293 
			455.91846,-337.0293 455.91846,-314.62424 433.5134,-314.62424 433.5134,-337.0293 454.31119,-337.0293 		"/>
		<polyline fill="none" stroke="#000000" stroke-miterlimit="11.33858" points="454.31119,-365.37573 455.64917,-365.37573 
			455.91846,-365.37573 455.91846,-342.9707 433.5134,-342.9707 433.5134,-365.37573 454.31119,-365.37573 		"/>
		<polyline fill="none" stroke="#000000" stroke-miterlimit="11.33858" points="455.91846,-372.383 455.91846,-371.31717 
			433.5134,-371.31717 433.5134,-393.7222 455.91846,-393.7222 455.91846,-372.383 		"/>
		<polyline fill="none" stroke="#000000" stroke-miterlimit="11.33858" points="463.4671,-371.31717 462.12915,-371.31717 
			461.85983,-371.31717 461.85983,-393.7222 484.26489,-393.7222 484.26489,-371.31717 463.4671,-371.31717 		"/>
		<polyline fill="none" stroke="#000000" stroke-miterlimit="11.33858" points="476.03308,-365.37573 484.26489,-365.37573 
			484.26489,-342.9707 461.85983,-342.9707 461.85983,-365.37573 476.03308,-365.37573 		"/>
		<polyline fill="none" stroke="#000000" stroke-miterlimit="11.33858" points="512.61139,-372.383 512.61139,-371.31717 
			490.2063,-371.31717 490.2063,-393.7222 512.61139,-393.7222 512.61139,-372.383 		"/>
		<polyline fill="none" stroke="#000000" stroke-miterlimit="11.33858" points="540.95782,-372.383 540.95782,-371.31717 
			518.55273,-371.31717 518.55273,-393.7222 540.95782,-393.7222 540.95782,-372.383 		"/>
		<polyline fill="none" stroke="#000000" stroke-miterlimit="11.33858" points="569.30426,-372.383 569.30426,-371.31717 
			546.89923,-371.31717 546.89923,-393.7222 569.30426,-393.7222 569.30426,-372.383 		"/>
		<polyline fill="none" stroke="#000000" stroke-miterlimit="11.33858" points="576.85291,-371.31717 575.51495,-371.31717 
			575.24567,-371.31717 575.24567,-393.7222 597.65076,-393.7222 597.65076,-371.31717 576.85291,-371.31717 		"/>
		<polyline fill="none" stroke="#000000" stroke-miterlimit="11.33858" points="576.85291,-342.9707 575.51495,-342.9707 
			575.24567,-342.9707 575.24567,-365.37573 597.65076,-365.37573 597.65076,-342.9707 576.85291,-342.9707 		"/>
		<polyline fill="none" stroke="#000000" stroke-miterlimit="11.33858" points="576.85291,-314.62424 575.51495,-314.62424 
			575.24567,-314.62424 575.24567,-337.0293 597.65076,-337.0293 597.65076,-314.62424 576.85291,-314.62424 		"/>
		<polyline fill="none" stroke="#000000" stroke-miterlimit="11.33858" points="576.31152,-286.27777 575.24567,-286.27777 
			575.24567,-308.68283 597.65076,-308.68283 597.65076,-286.27777 576.31152,-286.27777 		"/>
		<polyline fill="none" stroke="#000000" stroke-miterlimit="11.33858" points="575.24567,-279.27054 575.24567,-280.3364 
			597.65076,-280.3364 597.65076,-257.93134 575.24567,-257.93134 575.24567,-279.27054 		"/>
		<polyline fill="none" stroke="#000000" stroke-miterlimit="11.33858" points="568.2384,-280.3364 569.30426,-280.3364 
			569.30426,-257.93134 546.89923,-257.93134 546.89923,-280.3364 568.2384,-280.3364 		"/>
		<polyline fill="none" stroke="#000000" stroke-miterlimit="11.33858" points="567.69702,-308.68283 569.03497,-308.68283 
			569.30426,-308.68283 569.30426,-286.27777 546.89923,-286.27777 546.89923,-308.68283 567.69702,-308.68283 		"/>
		<polyline fill="none" stroke="#000000" stroke-miterlimit="11.33858" points="567.69702,-337.0293 569.03497,-337.0293 
			569.30426,-337.0293 569.30426,-314.62424 546.89923,-314.62424 546.89923,-337.0293 567.69702,-337.0293 		"/>
		<polyline fill="none" stroke="#000000" stroke-miterlimit="11.33858" points="569.30426,-344.03653 569.30426,-342.9707 
			546.89923,-342.9707 546.89923,-365.37573 569.30426,-365.37573 569.30426,-344.03653 		"/>
		<polyline fill="none" stroke="#000000" stroke-miterlimit="11.33858" points="576.31152,-399.6636 575.24567,-399.6636 
			575.24567,-422.06866 597.65076,-422.06866 597.65076,-399.6636 576.31152,-399.6636 		"/>
		<polyline fill="none" stroke="#000000" stroke-miterlimit="11.33858" points="547.96509,-399.6636 546.89923,-399.6636 
			546.89923,-422.06866 569.30426,-422.06866 569.30426,-399.6636 547.96509,-399.6636 		"/>
		<polyline fill="none" stroke="#000000" stroke-miterlimit="11.33858" points="519.61859,-399.6636 518.55273,-399.6636 
			518.55273,-422.06866 540.95782,-422.06866 540.95782,-399.6636 519.61859,-399.6636 		"/>
		<polyline fill="none" stroke="#000000" stroke-miterlimit="11.33858" points="491.27216,-399.6636 490.2063,-399.6636 
			490.2063,-422.06866 512.61139,-422.06866 512.61139,-399.6636 491.27216,-399.6636 		"/>
		<polyline fill="none" stroke="#000000" stroke-miterlimit="11.33858" points="462.92569,-399.6636 461.85983,-399.6636 
			461.85983,-422.06866 484.26489,-422.06866 484.26489,-399.6636 462.92569,-399.6636 		"/>
		<polyline fill="none" stroke="#000000" stroke-miterlimit="11.33858" points="434.57922,-399.6636 433.5134,-399.6636 
			433.5134,-422.06866 455.91846,-422.06866 455.91846,-399.6636 434.57922,-399.6636 		"/>
		<polyline fill="none" stroke="#000000" stroke-miterlimit="11.33858" points="406.23276,-399.6636 405.16693,-399.6636 
			405.16693,-422.06866 427.57199,-422.06866 427.57199,-399.6636 406.23276,-399.6636 		"/>
		<polyline fill="none" stroke="#000000" stroke-miterlimit="11.33858" points="377.88632,-399.6636 376.8205,-399.6636 
			376.8205,-422.06866 399.22552,-422.06866 399.22552,-399.6636 377.88632,-399.6636 		"/>
		<polyline fill="none" stroke="#000000" stroke-miterlimit="11.33858" points="349.53986,-399.6636 348.47403,-399.6636 
			348.47403,-422.06866 370.87906,-422.06866 370.87906,-399.6636 349.53986,-399.6636 		"/>
		<polyline fill="none" stroke="#000000" stroke-miterlimit="11.33858" points="341.4668,-422.06866 342.53262,-422.06866 
			342.53262,-399.6636 320.12756,-399.6636 320.12756,-422.06866 341.4668,-422.06866 		"/>
		<polyline fill="none" stroke="#000000" stroke-miterlimit="11.33858" points="342.53262,-429.61731 342.53262,-428.27936 
			342.53262,-428.01007 320.12756,-428.01007 320.12756,-450.4151 342.53262,-450.4151 342.53262,-429.61731 		"/>
		<polyline fill="none" stroke="#000000" stroke-miterlimit="11.33858" points="370.87906,-429.61731 370.87906,-428.27936 
			370.87906,-428.01007 348.47403,-428.01007 348.47403,-450.4151 370.87906,-450.4151 370.87906,-429.61731 		"/>
		<polyline fill="none" stroke="#000000" stroke-miterlimit="11.33858" points="399.22552,-429.61731 399.22552,-428.27936 
			399.22552,-428.01007 376.8205,-428.01007 376.8205,-450.4151 399.22552,-450.4151 399.22552,-429.61731 		"/>
		<polyline fill="none" stroke="#000000" stroke-miterlimit="11.33858" points="427.57199,-429.0759 427.57199,-428.01007 
			405.16693,-428.01007 405.16693,-450.4151 427.57199,-450.4151 427.57199,-429.0759 		"/>
		<polyline fill="none" stroke="#000000" stroke-miterlimit="11.33858" points="455.91846,-429.0759 455.91846,-428.01007 
			433.5134,-428.01007 433.5134,-450.4151 455.91846,-450.4151 455.91846,-429.0759 		"/>
		<polyline fill="none" stroke="#000000" stroke-miterlimit="11.33858" points="484.26489,-429.0759 484.26489,-428.01007 
			461.85983,-428.01007 461.85983,-450.4151 484.26489,-450.4151 484.26489,-429.0759 		"/>
		<polyline fill="none" stroke="#000000" stroke-miterlimit="11.33858" points="512.61139,-429.0759 512.61139,-428.01007 
			490.2063,-428.01007 490.2063,-450.4151 512.61139,-450.4151 512.61139,-429.0759 		"/>
		<polyline fill="none" stroke="#000000" stroke-miterlimit="11.33858" points="540.95782,-429.0759 540.95782,-428.01007 
			518.55273,-428.01007 518.55273,-450.4151 540.95782,-450.4151 540.95782,-429.0759 		"/>
		<polyline fill="none" stroke="#000000" stroke-miterlimit="11.33858" points="569.30426,-429.0759 569.30426,-428.01007 
			546.89923,-428.01007 546.89923,-450.4151 569.30426,-450.4151 569.30426,-429.0759 		"/>
		<polyline fill="none" stroke="#000000" stroke-miterlimit="11.33858" points="575.24567,-439.34866 575.24567,-450.4151 
			597.65076,-450.4151 597.65076,-428.01007 575.24567,-428.01007 575.24567,-439.34866 		"/>
		<path fill="none" stroke="#000000" stroke-miterlimit="11.33858" d="M565.65894-457.6066
			c-1.42621,1.56396-3.85016,1.67566-5.41418,0.24948c0-0.00003,0-0.00003,0-0.00006
			c-1.56396-1.42618-1.67566-3.85016-0.24945-5.41412c0-0.00003,0-0.00003,0-0.00003
			c1.42621-1.56396,3.85016-1.67566,5.41412-0.24948c0,0,0,0,0.00006,0.00003c1.56396,1.42618,1.67566,3.85019,0.24945,5.41415
			C565.65894-457.60663,565.65894-457.60663,565.65894-457.6066"/>
		<polyline fill="none" stroke="#000000" stroke-miterlimit="11.33858" points="633.00439,-428.01007 631.9386,-428.01007 
			631.9386,-450.4151 654.34363,-450.4151 654.34363,-428.01007 633.00439,-428.01007 		"/>
		<polyline fill="none" stroke="#000000" stroke-miterlimit="11.33858" points="633.00439,-399.6636 631.9386,-399.6636 
			631.9386,-422.06866 654.34363,-422.06866 654.34363,-399.6636 633.00439,-399.6636 		"/>
		<polyline fill="none" stroke="#000000" stroke-miterlimit="11.33858" points="632.98743,-371.31717 631.9386,-371.31717 
			631.9386,-393.7222 654.34363,-393.7222 654.34363,-371.31717 632.98743,-371.31717 		"/>
		<polyline fill="none" stroke="#000000" stroke-miterlimit="11.33858" points="632.98743,-342.9707 631.9386,-342.9707 
			631.9386,-365.37573 654.34363,-365.37573 654.34363,-342.9707 632.98743,-342.9707 		"/>
		<polyline fill="none" stroke="#000000" stroke-miterlimit="11.33858" points="632.98743,-314.62424 631.9386,-314.62424 
			631.9386,-337.0293 654.34363,-337.0293 654.34363,-314.62424 632.98743,-314.62424 		"/>
		<polyline fill="none" stroke="#000000" stroke-miterlimit="11.33858" points="633.00439,-286.27777 631.9386,-286.27777 
			631.9386,-308.68283 654.34363,-308.68283 654.34363,-286.27777 633.00439,-286.27777 		"/>
		<polyline fill="none" stroke="#000000" stroke-miterlimit="11.33858" points="633.00439,-257.93134 631.9386,-257.93134 
			631.9386,-280.3364 654.34363,-280.3364 654.34363,-257.93134 633.00439,-257.93134 		"/>
		<polyline fill="none" stroke="#000000" stroke-miterlimit="11.33858" points="653.27783,-251.98993 654.34363,-251.98993 
			654.34363,-229.58487 631.9386,-229.58487 631.9386,-251.98993 653.27783,-251.98993 		"/>
		<polyline fill="none" stroke="#000000" stroke-miterlimit="11.33858" points="660.2851,-250.38268 660.2851,-251.72063 
			660.2851,-251.98993 682.69006,-251.98993 682.69006,-229.58487 660.2851,-229.58487 660.2851,-250.38268 		"/>
		<polyline fill="none" stroke="#000000" stroke-miterlimit="11.33858" points="660.2851,-278.72913 660.2851,-280.06708 
			660.2851,-280.3364 682.69006,-280.3364 682.69006,-257.93134 660.2851,-257.93134 660.2851,-278.72913 		"/>
		<polyline fill="none" stroke="#000000" stroke-miterlimit="11.33858" points="660.2851,-307.634 660.2851,-308.68283 
			682.69006,-308.68283 682.69006,-286.27777 660.2851,-286.27777 660.2851,-307.634 		"/>
		<polyline fill="none" stroke="#000000" stroke-miterlimit="11.33858" points="660.2851,-335.98047 660.2851,-337.0293 
			682.69006,-337.0293 682.69006,-314.62424 660.2851,-314.62424 660.2851,-335.98047 		"/>
		<polyline fill="none" stroke="#000000" stroke-miterlimit="11.33858" points="660.2851,-364.32693 660.2851,-365.37573 
			682.69006,-365.37573 682.69006,-342.9707 660.2851,-342.9707 660.2851,-364.32693 		"/>
		<polyline fill="none" stroke="#000000" stroke-miterlimit="11.33858" points="660.2851,-392.11496 660.2851,-393.45291 
			660.2851,-393.7222 682.69006,-393.7222 682.69006,-371.31717 660.2851,-371.31717 660.2851,-392.11496 		"/>
		<polyline fill="none" stroke="#000000" stroke-miterlimit="11.33858" points="660.2851,-420.46143 660.2851,-421.79938 
			660.2851,-422.06866 682.69006,-422.06866 682.69006,-399.6636 660.2851,-399.6636 660.2851,-420.46143 		"/>
		<polyline fill="none" stroke="#000000" stroke-miterlimit="11.33858" points="682.69006,-429.61731 682.69006,-428.27936 
			682.69006,-428.01007 660.2851,-428.01007 660.2851,-450.4151 682.69006,-450.4151 682.69006,-429.61731 		"/>
		<polyline fill="none" stroke="#000000" stroke-miterlimit="11.33858" points="689.69733,-428.01007 688.63153,-428.01007 
			688.63153,-450.4151 711.03656,-450.4151 711.03656,-428.01007 689.69733,-428.01007 		"/>
		<polyline fill="none" stroke="#000000" stroke-miterlimit="11.33858" points="689.69733,-399.6636 688.63153,-399.6636 
			688.63153,-422.06866 711.03656,-422.06866 711.03656,-399.6636 689.69733,-399.6636 		"/>
		<polyline fill="none" stroke="#000000" stroke-miterlimit="11.33858" points="689.68036,-371.31717 688.63153,-371.31717 
			688.63153,-393.7222 711.03656,-393.7222 711.03656,-371.31717 689.68036,-371.31717 		"/>
		<polyline fill="none" stroke="#000000" stroke-miterlimit="11.33858" points="689.68036,-342.9707 688.63153,-342.9707 
			688.63153,-365.37573 711.03656,-365.37573 711.03656,-342.9707 689.68036,-342.9707 		"/>
		<polyline fill="none" stroke="#000000" stroke-miterlimit="11.33858" points="689.68036,-314.62424 688.63153,-314.62424 
			688.63153,-337.0293 711.03656,-337.0293 711.03656,-314.62424 689.68036,-314.62424 		"/>
		<polyline fill="none" stroke="#000000" stroke-miterlimit="11.33858" points="689.69733,-286.27777 688.63153,-286.27777 
			688.63153,-308.68283 711.03656,-308.68283 711.03656,-286.27777 689.69733,-286.27777 		"/>
		<polyline fill="none" stroke="#000000" stroke-miterlimit="11.33858" points="689.69733,-257.93134 688.63153,-257.93134 
			688.63153,-280.3364 711.03656,-280.3364 711.03656,-257.93134 689.69733,-257.93134 		"/>
		<polyline fill="none" stroke="#000000" stroke-miterlimit="11.33858" points="709.97076,-251.98993 711.03656,-251.98993 
			711.03656,-229.58487 688.63153,-229.58487 688.63153,-251.98993 709.97076,-251.98993 		"/>
		<polyline fill="none" stroke="#000000" stroke-miterlimit="11.33858" points="716.97797,-250.38268 716.97797,-251.72063 
			716.97797,-251.98993 739.383,-251.98993 739.383,-229.58487 716.97797,-229.58487 716.97797,-250.38268 		"/>
		<polyline fill="none" stroke="#000000" stroke-miterlimit="11.33858" points="716.97797,-278.72913 716.97797,-280.06708 
			716.97797,-280.3364 739.383,-280.3364 739.383,-257.93134 716.97797,-257.93134 716.97797,-278.72913 		"/>
		<polyline fill="none" stroke="#000000" stroke-miterlimit="11.33858" points="716.97797,-307.634 716.97797,-308.68283 
			739.383,-308.68283 739.383,-286.27777 716.97797,-286.27777 716.97797,-307.634 		"/>
		<polyline fill="none" stroke="#000000" stroke-miterlimit="11.33858" points="716.97797,-335.98047 716.97797,-337.0293 
			739.383,-337.0293 739.383,-314.62424 716.97797,-314.62424 716.97797,-335.98047 		"/>
		<polyline fill="none" stroke="#000000" stroke-miterlimit="11.33858" points="716.97797,-364.32693 716.97797,-365.37573 
			739.383,-365.37573 739.383,-342.9707 716.97797,-342.9707 716.97797,-364.32693 		"/>
		<polyline fill="none" stroke="#000000" stroke-miterlimit="11.33858" points="716.97797,-392.11496 716.97797,-393.45291 
			716.97797,-393.7222 739.383,-393.7222 739.383,-371.31717 716.97797,-371.31717 716.97797,-392.11496 		"/>
		<polyline fill="none" stroke="#000000" stroke-miterlimit="11.33858" points="716.97797,-420.46143 716.97797,-421.79938 
			716.97797,-422.06866 739.383,-422.06866 739.383,-399.6636 716.97797,-399.6636 716.97797,-420.46143 		"/>
		<polyline fill="none" stroke="#000000" stroke-miterlimit="11.33858" points="739.383,-429.61731 739.383,-428.27936 
			739.383,-428.01007 716.97797,-428.01007 716.97797,-450.4151 739.383,-450.4151 739.383,-429.61731 		"/>
		<polyline fill="none" stroke="#000000" stroke-miterlimit="11.33858" points="746.39026,-428.01007 745.32446,-428.01007 
			745.32446,-450.4151 767.72943,-450.4151 767.72943,-428.01007 746.39026,-428.01007 		"/>
		<polyline fill="none" stroke="#000000" stroke-miterlimit="11.33858" points="746.39026,-399.6636 745.32446,-399.6636 
			745.32446,-422.06866 767.72943,-422.06866 767.72943,-399.6636 746.39026,-399.6636 		"/>
		<polyline fill="none" stroke="#000000" stroke-miterlimit="11.33858" points="746.37323,-371.31717 745.32446,-371.31717 
			745.32446,-393.7222 767.72943,-393.7222 767.72943,-371.31717 746.37323,-371.31717 		"/>
		<polyline fill="none" stroke="#000000" stroke-miterlimit="11.33858" points="746.37323,-342.9707 745.32446,-342.9707 
			745.32446,-365.37573 767.72943,-365.37573 767.72943,-342.9707 746.37323,-342.9707 		"/>
		<polyline fill="none" stroke="#000000" stroke-miterlimit="11.33858" points="746.37323,-314.62424 745.32446,-314.62424 
			745.32446,-337.0293 767.72943,-337.0293 767.72943,-314.62424 746.37323,-314.62424 		"/>
		<polyline fill="none" stroke="#000000" stroke-miterlimit="11.33858" points="746.39026,-286.27777 745.32446,-286.27777 
			745.32446,-308.68283 767.72943,-308.68283 767.72943,-286.27777 746.39026,-286.27777 		"/>
		<polyline fill="none" stroke="#000000" stroke-miterlimit="11.33858" points="746.39026,-257.93134 745.32446,-257.93134 
			745.32446,-280.3364 767.72943,-280.3364 767.72943,-257.93134 746.39026,-257.93134 		"/>
		<polyline fill="none" stroke="#000000" stroke-miterlimit="11.33858" points="766.66364,-251.98993 767.72943,-251.98993 
			767.72943,-229.58487 745.32446,-229.58487 745.32446,-251.98993 766.66364,-251.98993 		"/>
		<polyline fill="none" stroke="#000000" stroke-miterlimit="11.33858" points="773.6709,-250.38268 773.6709,-251.72063 
			773.6709,-251.98993 796.07593,-251.98993 796.07593,-229.58487 773.6709,-229.58487 773.6709,-250.38268 		"/>
		<polyline fill="none" stroke="#000000" stroke-miterlimit="11.33858" points="773.6709,-278.72913 773.6709,-280.06708 
			773.6709,-280.3364 796.07593,-280.3364 796.07593,-257.93134 773.6709,-257.93134 773.6709,-278.72913 		"/>
		<polyline fill="none" stroke="#000000" stroke-miterlimit="11.33858" points="773.6709,-307.634 773.6709,-308.68283 
			796.07593,-308.68283 796.07593,-286.27777 773.6709,-286.27777 773.6709,-307.634 		"/>
		<polyline fill="none" stroke="#000000" stroke-miterlimit="11.33858" points="773.6709,-335.98047 773.6709,-337.0293 
			796.07593,-337.0293 796.07593,-314.62424 773.6709,-314.62424 773.6709,-335.98047 		"/>
		<polyline fill="none" stroke="#000000" stroke-miterlimit="11.33858" points="773.6709,-364.32693 773.6709,-365.37573 
			796.07593,-365.37573 796.07593,-342.9707 773.6709,-342.9707 773.6709,-364.32693 		"/>
		<polyline fill="none" stroke="#000000" stroke-miterlimit="11.33858" points="773.6709,-392.11496 773.6709,-393.45291 
			773.6709,-393.7222 796.07593,-393.7222 796.07593,-371.31717 773.6709,-371.31717 773.6709,-392.11496 		"/>
		<polyline fill="none" stroke="#000000" stroke-miterlimit="11.33858" points="773.6709,-420.46143 773.6709,-421.79938 
			773.6709,-422.06866 796.07593,-422.06866 796.07593,-399.6636 773.6709,-399.6636 773.6709,-420.46143 		"/>
		<polyline fill="none" stroke="#000000" stroke-miterlimit="11.33858" points="796.07593,-429.61731 796.07593,-428.27936 
			796.07593,-428.01007 773.6709,-428.01007 773.6709,-450.4151 796.07593,-450.4151 796.07593,-429.61731 		"/>
		<polyline fill="none" stroke="#000000" stroke-miterlimit="11.33858" points="803.08319,-428.01007 802.01733,-428.01007 
			802.01733,-450.4151 824.42236,-450.4151 824.42236,-428.01007 803.08319,-428.01007 		"/>
		<polyline fill="none" stroke="#000000" stroke-miterlimit="11.33858" points="803.08319,-399.6636 802.01733,-399.6636 
			802.01733,-422.06866 824.42236,-422.06866 824.42236,-399.6636 803.08319,-399.6636 		"/>
		<polyline fill="none" stroke="#000000" stroke-miterlimit="11.33858" points="803.06616,-371.31717 802.01733,-371.31717 
			802.01733,-393.7222 824.42236,-393.7222 824.42236,-371.31717 803.06616,-371.31717 		"/>
		<polyline fill="none" stroke="#000000" stroke-miterlimit="11.33858" points="803.06616,-342.9707 802.01733,-342.9707 
			802.01733,-365.37573 824.42236,-365.37573 824.42236,-342.9707 803.06616,-342.9707 		"/>
		<polyline fill="none" stroke="#000000" stroke-miterlimit="11.33858" points="803.06616,-314.62424 802.01733,-314.62424 
			802.01733,-337.0293 824.42236,-337.0293 824.42236,-314.62424 803.06616,-314.62424 		"/>
		<polyline fill="none" stroke="#000000" stroke-miterlimit="11.33858" points="803.08319,-286.27777 802.01733,-286.27777 
			802.01733,-308.68283 824.42236,-308.68283 824.42236,-286.27777 803.08319,-286.27777 		"/>
		<polyline fill="none" stroke="#000000" stroke-miterlimit="11.33858" points="803.08319,-257.93134 802.01733,-257.93134 
			802.01733,-280.3364 824.42236,-280.3364 824.42236,-257.93134 803.08319,-257.93134 		"/>
		<polyline fill="none" stroke="#000000" stroke-miterlimit="11.33858" points="823.35657,-251.98993 824.42236,-251.98993 
			824.42236,-229.58487 802.01733,-229.58487 802.01733,-251.98993 823.35657,-251.98993 		"/>
		<polyline fill="none" stroke="#000000" stroke-miterlimit="11.33858" points="830.36383,-250.38268 830.36383,-251.72063 
			830.36383,-251.98993 852.76886,-251.98993 852.76886,-229.58487 830.36383,-229.58487 830.36383,-250.38268 		"/>
		<polyline fill="none" stroke="#000000" stroke-miterlimit="11.33858" points="830.36383,-278.72913 830.36383,-280.06708 
			830.36383,-280.3364 852.76886,-280.3364 852.76886,-257.93134 830.36383,-257.93134 830.36383,-278.72913 		"/>
		<polyline fill="none" stroke="#000000" stroke-miterlimit="11.33858" points="830.36383,-307.634 830.36383,-308.68283 
			852.76886,-308.68283 852.76886,-286.27777 830.36383,-286.27777 830.36383,-307.634 		"/>
		<polyline fill="none" stroke="#000000" stroke-miterlimit="11.33858" points="830.36383,-335.98047 830.36383,-337.0293 
			852.76886,-337.0293 852.76886,-314.62424 830.36383,-314.62424 830.36383,-335.98047 		"/>
		<polyline fill="none" stroke="#000000" stroke-miterlimit="11.33858" points="830.36383,-364.32693 830.36383,-365.37573 
			852.76886,-365.37573 852.76886,-342.9707 830.36383,-342.9707 830.36383,-364.32693 		"/>
		<polyline fill="none" stroke="#000000" stroke-miterlimit="11.33858" points="830.36383,-392.11496 830.36383,-393.45291 
			830.36383,-393.7222 852.76886,-393.7222 852.76886,-371.31717 830.36383,-371.31717 830.36383,-392.11496 		"/>
		<polyline fill="none" stroke="#000000" stroke-miterlimit="11.33858" points="830.36383,-420.46143 830.36383,-421.79938 
			830.36383,-422.06866 852.76886,-422.06866 852.76886,-399.6636 830.36383,-399.6636 830.36383,-420.46143 		"/>
		<polyline fill="none" stroke="#000000" stroke-miterlimit="11.33858" points="852.76886,-429.61731 852.76886,-428.27936 
			852.76886,-428.01007 830.36383,-428.01007 830.36383,-450.4151 852.76886,-450.4151 852.76886,-429.61731 		"/>
		<polyline fill="none" stroke="#000000" stroke-miterlimit="11.33858" points="859.77606,-428.01007 858.71027,-428.01007 
			858.71027,-450.4151 881.1153,-450.4151 881.1153,-428.01007 859.77606,-428.01007 		"/>
		<polyline fill="none" stroke="#000000" stroke-miterlimit="11.33858" points="859.77606,-399.6636 858.71027,-399.6636 
			858.71027,-422.06866 881.1153,-422.06866 881.1153,-399.6636 859.77606,-399.6636 		"/>
		<polyline fill="none" stroke="#000000" stroke-miterlimit="11.33858" points="859.75909,-371.31717 858.71027,-371.31717 
			858.71027,-393.7222 881.1153,-393.7222 881.1153,-371.31717 859.75909,-371.31717 		"/>
		<polyline fill="none" stroke="#000000" stroke-miterlimit="11.33858" points="859.75909,-342.9707 858.71027,-342.9707 
			858.71027,-365.37573 881.1153,-365.37573 881.1153,-342.9707 859.75909,-342.9707 		"/>
		<polyline fill="none" stroke="#000000" stroke-miterlimit="11.33858" points="859.75909,-314.62424 858.71027,-314.62424 
			858.71027,-337.0293 881.1153,-337.0293 881.1153,-314.62424 859.75909,-314.62424 		"/>
		<polyline fill="none" stroke="#000000" stroke-miterlimit="11.33858" points="859.77606,-286.27777 858.71027,-286.27777 
			858.71027,-308.68283 881.1153,-308.68283 881.1153,-286.27777 859.77606,-286.27777 		"/>
		<polyline fill="none" stroke="#000000" stroke-miterlimit="11.33858" points="859.77606,-257.93134 858.71027,-257.93134 
			858.71027,-280.3364 881.1153,-280.3364 881.1153,-257.93134 859.77606,-257.93134 		"/>
		<polyline fill="none" stroke="#000000" stroke-miterlimit="11.33858" points="880.0495,-251.98993 881.1153,-251.98993 
			881.1153,-229.58487 858.71027,-229.58487 858.71027,-251.98993 880.0495,-251.98993 		"/>
		<polyline fill="none" stroke="#000000" stroke-miterlimit="11.33858" points="887.0567,-250.38268 887.0567,-251.72063 
			887.0567,-251.98993 909.46173,-251.98993 909.46173,-229.58487 887.0567,-229.58487 887.0567,-250.38268 		"/>
		<polyline fill="none" stroke="#000000" stroke-miterlimit="11.33858" points="887.0567,-278.72913 887.0567,-280.06708 
			887.0567,-280.3364 909.46173,-280.3364 909.46173,-257.93134 887.0567,-257.93134 887.0567,-278.72913 		"/>
		<polyline fill="none" stroke="#000000" stroke-miterlimit="11.33858" points="887.0567,-307.634 887.0567,-308.68283 
			909.46173,-308.68283 909.46173,-286.27777 887.0567,-286.27777 887.0567,-307.634 		"/>
		<polyline fill="none" stroke="#000000" stroke-miterlimit="11.33858" points="887.0567,-335.98047 887.0567,-337.0293 
			909.46173,-337.0293 909.46173,-314.62424 887.0567,-314.62424 887.0567,-335.98047 		"/>
		<polyline fill="none" stroke="#000000" stroke-miterlimit="11.33858" points="887.0567,-364.32693 887.0567,-365.37573 
			909.46173,-365.37573 909.46173,-342.9707 887.0567,-342.9707 887.0567,-364.32693 		"/>
		<polyline fill="none" stroke="#000000" stroke-miterlimit="11.33858" points="887.0567,-392.11496 887.0567,-393.45291 
			887.0567,-393.7222 909.46173,-393.7222 909.46173,-371.31717 887.0567,-371.31717 887.0567,-392.11496 		"/>
		<polyline fill="none" stroke="#000000" stroke-miterlimit="11.33858" points="887.0567,-420.46143 887.0567,-421.79938 
			887.0567,-422.06866 909.46173,-422.06866 909.46173,-399.6636 887.0567,-399.6636 887.0567,-420.46143 		"/>
		<polyline fill="none" stroke="#000000" stroke-miterlimit="11.33858" points="909.46173,-429.61731 909.46173,-428.27936 
			909.46173,-428.01007 887.0567,-428.01007 887.0567,-450.4151 909.46173,-450.4151 909.46173,-429.61731 		"/>
		<polyline fill="none" stroke="#000000" stroke-miterlimit="11.33858" points="916.46899,-428.01007 915.4032,-428.01007 
			915.4032,-450.4151 937.80823,-450.4151 937.80823,-428.01007 916.46899,-428.01007 		"/>
		<polyline fill="none" stroke="#000000" stroke-miterlimit="11.33858" points="916.46899,-399.6636 915.4032,-399.6636 
			915.4032,-422.06866 937.80823,-422.06866 937.80823,-399.6636 916.46899,-399.6636 		"/>
		<polyline fill="none" stroke="#000000" stroke-miterlimit="11.33858" points="916.45197,-371.31717 915.4032,-371.31717 
			915.4032,-393.7222 937.80823,-393.7222 937.80823,-371.31717 916.45197,-371.31717 		"/>
		<polyline fill="none" stroke="#000000" stroke-miterlimit="11.33858" points="916.45197,-342.9707 915.4032,-342.9707 
			915.4032,-365.37573 937.80823,-365.37573 937.80823,-342.9707 916.45197,-342.9707 		"/>
		<polyline fill="none" stroke="#000000" stroke-miterlimit="11.33858" points="916.45197,-314.62424 915.4032,-314.62424 
			915.4032,-337.0293 937.80823,-337.0293 937.80823,-314.62424 916.45197,-314.62424 		"/>
		<polyline fill="none" stroke="#000000" stroke-miterlimit="11.33858" points="916.46899,-286.27777 915.4032,-286.27777 
			915.4032,-308.68283 937.80823,-308.68283 937.80823,-286.27777 916.46899,-286.27777 		"/>
		<polyline fill="none" stroke="#000000" stroke-miterlimit="11.33858" points="916.46899,-257.93134 915.4032,-257.93134 
			915.4032,-280.3364 937.80823,-280.3364 937.80823,-257.93134 916.46899,-257.93134 		"/>
		<polyline fill="none" stroke="#000000" stroke-miterlimit="11.33858" points="936.74243,-251.98993 937.80823,-251.98993 
			937.80823,-229.58487 915.4032,-229.58487 915.4032,-251.98993 936.74243,-251.98993 		"/>
		<polyline fill="none" stroke="#000000" stroke-miterlimit="11.33858" points="965.08881,-251.98993 966.15466,-251.98993 
			966.15466,-229.58487 943.74963,-229.58487 943.74963,-251.98993 965.08881,-251.98993 		"/>
		<polyline fill="none" stroke="#000000" stroke-miterlimit="11.33858" points="993.4353,-251.98993 994.5011,-251.98993 
			994.5011,-229.58487 972.09613,-229.58487 972.09613,-251.98993 993.4353,-251.98993 		"/>
		<polyline fill="none" stroke="#000000" stroke-miterlimit="11.33858" points="1021.78174,-251.98993 1022.8476,-251.98993 
			1022.8476,-229.58487 1000.44257,-229.58487 1000.44257,-251.98993 1021.78174,-251.98993 		"/>
		<polyline fill="none" stroke="#000000" stroke-miterlimit="11.33858" points="1050.12817,-251.98993 1051.19409,-251.98993 
			1051.19409,-229.58487 1028.78906,-229.58487 1028.78906,-251.98993 1050.12817,-251.98993 		"/>
		<polyline fill="none" stroke="#000000" stroke-miterlimit="11.33858" points="1078.47461,-251.98993 1079.54053,-251.98993 
			1079.54053,-229.58487 1057.1355,-229.58487 1057.1355,-251.98993 1078.47461,-251.98993 		"/>
		<polyline fill="none" stroke="#000000" stroke-miterlimit="11.33858" points="1106.82104,-251.98993 1107.88696,-251.98993 
			1107.88696,-229.58487 1085.48193,-229.58487 1085.48193,-251.98993 1106.82104,-251.98993 		"/>
		<polyline fill="none" stroke="#000000" stroke-miterlimit="11.33858" points="1135.1676,-251.98993 1136.2334,-251.98993 
			1136.2334,-229.58487 1113.82837,-229.58487 1113.82837,-251.98993 1135.1676,-251.98993 		"/>
		<polyline fill="none" stroke="#000000" stroke-miterlimit="11.33858" points="1142.1748,-250.92407 1142.1748,-251.98993 
			1164.57983,-251.98993 1164.57983,-229.58487 1142.1748,-229.58487 1142.1748,-250.92407 		"/>
		<polyline fill="none" stroke="#000000" stroke-miterlimit="11.33858" points="1143.24072,-257.93134 1142.1748,-257.93134 
			1142.1748,-280.3364 1164.57983,-280.3364 1164.57983,-257.93134 1143.24072,-257.93134 		"/>
		<polyline fill="none" stroke="#000000" stroke-miterlimit="11.33858" points="1114.89429,-257.93134 1113.82837,-257.93134 
			1113.82837,-280.3364 1136.2334,-280.3364 1136.2334,-257.93134 1114.89429,-257.93134 		"/>
		<polyline fill="none" stroke="#000000" stroke-miterlimit="11.33858" points="1086.54773,-257.93134 1085.48193,-257.93134 
			1085.48193,-280.3364 1107.88696,-280.3364 1107.88696,-257.93134 1086.54773,-257.93134 		"/>
		<polyline fill="none" stroke="#000000" stroke-miterlimit="11.33858" points="1058.20129,-257.93134 1057.1355,-257.93134 
			1057.1355,-280.3364 1079.54053,-280.3364 1079.54053,-257.93134 1058.20129,-257.93134 		"/>
		<polyline fill="none" stroke="#000000" stroke-miterlimit="11.33858" points="1029.85486,-257.93134 1028.78906,-257.93134 
			1028.78906,-280.3364 1051.19409,-280.3364 1051.19409,-257.93134 1029.85486,-257.93134 		"/>
		<polyline fill="none" stroke="#000000" stroke-miterlimit="11.33858" points="1001.50842,-257.93134 1000.44257,-257.93134 
			1000.44257,-280.3364 1022.8476,-280.3364 1022.8476,-257.93134 1001.50842,-257.93134 		"/>
		<polyline fill="none" stroke="#000000" stroke-miterlimit="11.33858" points="973.16193,-257.93134 972.09613,-257.93134 
			972.09613,-280.3364 994.5011,-280.3364 994.5011,-257.93134 973.16193,-257.93134 		"/>
		<polyline fill="none" stroke="#000000" stroke-miterlimit="11.33858" points="965.08881,-280.3364 966.15466,-280.3364 
			966.15466,-257.93134 943.74963,-257.93134 943.74963,-280.3364 965.08881,-280.3364 		"/>
		<polyline fill="none" stroke="#000000" stroke-miterlimit="11.33858" points="966.15466,-287.34363 966.15466,-286.27777 
			943.74963,-286.27777 943.74963,-308.68283 966.15466,-308.68283 966.15466,-287.34363 		"/>
		<polyline fill="none" stroke="#000000" stroke-miterlimit="11.33858" points="994.5011,-287.34363 994.5011,-286.27777 
			972.09613,-286.27777 972.09613,-308.68283 994.5011,-308.68283 994.5011,-287.34363 		"/>
		<polyline fill="none" stroke="#000000" stroke-miterlimit="11.33858" points="1022.8476,-287.34363 1022.8476,-286.27777 
			1000.44257,-286.27777 1000.44257,-308.68283 1022.8476,-308.68283 1022.8476,-287.34363 		"/>
		<polyline fill="none" stroke="#000000" stroke-miterlimit="11.33858" points="1051.19409,-287.34363 1051.19409,-286.27777 
			1028.78906,-286.27777 1028.78906,-308.68283 1051.19409,-308.68283 1051.19409,-287.34363 		"/>
		<polyline fill="none" stroke="#000000" stroke-miterlimit="11.33858" points="1079.54053,-287.34363 1079.54053,-286.27777 
			1057.1355,-286.27777 1057.1355,-308.68283 1079.54053,-308.68283 1079.54053,-287.34363 		"/>
		<polyline fill="none" stroke="#000000" stroke-miterlimit="11.33858" points="1107.88696,-287.34363 1107.88696,-286.27777 
			1085.48193,-286.27777 1085.48193,-308.68283 1107.88696,-308.68283 1107.88696,-287.34363 		"/>
		<polyline fill="none" stroke="#000000" stroke-miterlimit="11.33858" points="1136.2334,-287.34363 1136.2334,-286.27777 
			1113.82837,-286.27777 1113.82837,-308.68283 1136.2334,-308.68283 1136.2334,-287.34363 		"/>
		<polyline fill="none" stroke="#000000" stroke-miterlimit="11.33858" points="1142.1748,-307.617 1142.1748,-308.68283 
			1164.57983,-308.68283 1164.57983,-286.27777 1142.1748,-286.27777 1142.1748,-307.617 		"/>
		<polyline fill="none" stroke="#000000" stroke-miterlimit="11.33858" points="1143.7821,-314.62424 1142.44409,-314.62424 
			1142.1748,-314.62424 1142.1748,-337.0293 1164.57983,-337.0293 1164.57983,-314.62424 1143.7821,-314.62424 		"/>
		<polyline fill="none" stroke="#000000" stroke-miterlimit="11.33858" points="1115.43555,-314.62424 1114.09766,-314.62424 
			1113.82837,-314.62424 1113.82837,-337.0293 1136.2334,-337.0293 1136.2334,-314.62424 1115.43555,-314.62424 		"/>
		<polyline fill="none" stroke="#000000" stroke-miterlimit="11.33858" points="1087.08911,-314.62424 1085.75122,-314.62424 
			1085.48193,-314.62424 1085.48193,-337.0293 1107.88696,-337.0293 1107.88696,-314.62424 1087.08911,-314.62424 		"/>
		<polyline fill="none" stroke="#000000" stroke-miterlimit="11.33858" points="1058.74268,-314.62424 1057.40479,-314.62424 
			1057.1355,-314.62424 1057.1355,-337.0293 1079.54053,-337.0293 1079.54053,-314.62424 1058.74268,-314.62424 		"/>
		<polyline fill="none" stroke="#000000" stroke-miterlimit="11.33858" points="1030.39624,-314.62424 1029.05835,-314.62424 
			1028.78906,-314.62424 1028.78906,-337.0293 1051.19409,-337.0293 1051.19409,-314.62424 1030.39624,-314.62424 		"/>
		<polyline fill="none" stroke="#000000" stroke-miterlimit="11.33858" points="1002.04974,-314.62424 1000.71185,-314.62424 
			1000.44257,-314.62424 1000.44257,-337.0293 1022.8476,-337.0293 1022.8476,-314.62424 1002.04974,-314.62424 		"/>
		<polyline fill="none" stroke="#000000" stroke-miterlimit="11.33858" points="973.70331,-314.62424 972.36542,-314.62424 
			972.09613,-314.62424 972.09613,-337.0293 994.5011,-337.0293 994.5011,-314.62424 973.70331,-314.62424 		"/>
		<polyline fill="none" stroke="#000000" stroke-miterlimit="11.33858" points="964.54749,-337.0293 965.88538,-337.0293 
			966.15466,-337.0293 966.15466,-314.62424 943.74963,-314.62424 943.74963,-337.0293 964.54749,-337.0293 		"/>
		<polyline fill="none" stroke="#000000" stroke-miterlimit="11.33858" points="966.15466,-344.03653 966.15466,-342.9707 
			943.74963,-342.9707 943.74963,-365.37573 966.15466,-365.37573 966.15466,-344.03653 		"/>
		<polyline fill="none" stroke="#000000" stroke-miterlimit="11.33858" points="994.5011,-344.03653 994.5011,-342.9707 
			972.09613,-342.9707 972.09613,-365.37573 994.5011,-365.37573 994.5011,-344.03653 		"/>
		<polyline fill="none" stroke="#000000" stroke-miterlimit="11.33858" points="1022.8476,-344.03653 1022.8476,-342.9707 
			1000.44257,-342.9707 1000.44257,-365.37573 1022.8476,-365.37573 1022.8476,-344.03653 		"/>
		<polyline fill="none" stroke="#000000" stroke-miterlimit="11.33858" points="1051.19409,-344.03653 1051.19409,-342.9707 
			1028.78906,-342.9707 1028.78906,-365.37573 1051.19409,-365.37573 1051.19409,-344.03653 		"/>
		<polyline fill="none" stroke="#000000" stroke-miterlimit="11.33858" points="1079.54053,-344.03653 1079.54053,-342.9707 
			1057.1355,-342.9707 1057.1355,-365.37573 1079.54053,-365.37573 1079.54053,-344.03653 		"/>
		<polyline fill="none" stroke="#000000" stroke-miterlimit="11.33858" points="1107.88696,-344.03653 1107.88696,-342.9707 
			1085.48193,-342.9707 1085.48193,-365.37573 1107.88696,-365.37573 1107.88696,-344.03653 		"/>
		<polyline fill="none" stroke="#000000" stroke-miterlimit="11.33858" points="1136.2334,-344.03653 1136.2334,-342.9707 
			1113.82837,-342.9707 1113.82837,-365.37573 1136.2334,-365.37573 1136.2334,-344.03653 		"/>
		<polyline fill="none" stroke="#000000" stroke-miterlimit="11.33858" points="1142.1748,-364.30991 1142.1748,-365.37573 
			1164.57983,-365.37573 1164.57983,-342.9707 1142.1748,-342.9707 1142.1748,-364.30991 		"/>
		<polyline fill="none" stroke="#000000" stroke-miterlimit="11.33858" points="1143.7821,-371.31717 1142.44409,-371.31717 
			1142.1748,-371.31717 1142.1748,-393.7222 1164.57983,-393.7222 1164.57983,-371.31717 1143.7821,-371.31717 		"/>
		<polyline fill="none" stroke="#000000" stroke-miterlimit="11.33858" points="1115.43555,-371.31717 1114.09766,-371.31717 
			1113.82837,-371.31717 1113.82837,-393.7222 1136.2334,-393.7222 1136.2334,-371.31717 1115.43555,-371.31717 		"/>
		<polyline fill="none" stroke="#000000" stroke-miterlimit="11.33858" points="1087.08911,-371.31717 1085.75122,-371.31717 
			1085.48193,-371.31717 1085.48193,-393.7222 1107.88696,-393.7222 1107.88696,-371.31717 1087.08911,-371.31717 		"/>
		<polyline fill="none" stroke="#000000" stroke-miterlimit="11.33858" points="1058.74268,-371.31717 1057.40479,-371.31717 
			1057.1355,-371.31717 1057.1355,-393.7222 1079.54053,-393.7222 1079.54053,-371.31717 1058.74268,-371.31717 		"/>
		<polyline fill="none" stroke="#000000" stroke-miterlimit="11.33858" points="1030.39624,-371.31717 1029.05835,-371.31717 
			1028.78906,-371.31717 1028.78906,-393.7222 1051.19409,-393.7222 1051.19409,-371.31717 1030.39624,-371.31717 		"/>
		<polyline fill="none" stroke="#000000" stroke-miterlimit="11.33858" points="1002.04974,-371.31717 1000.71185,-371.31717 
			1000.44257,-371.31717 1000.44257,-393.7222 1022.8476,-393.7222 1022.8476,-371.31717 1002.04974,-371.31717 		"/>
		<polyline fill="none" stroke="#000000" stroke-miterlimit="11.33858" points="973.70331,-371.31717 972.36542,-371.31717 
			972.09613,-371.31717 972.09613,-393.7222 994.5011,-393.7222 994.5011,-371.31717 973.70331,-371.31717 		"/>
		<polyline fill="none" stroke="#000000" stroke-miterlimit="11.33858" points="965.08881,-393.7222 966.15466,-393.7222 
			966.15466,-371.31717 943.74963,-371.31717 943.74963,-393.7222 965.08881,-393.7222 		"/>
		<polyline fill="none" stroke="#000000" stroke-miterlimit="11.33858" points="966.15466,-400.72943 966.15466,-399.6636 
			943.74963,-399.6636 943.74963,-422.06866 966.15466,-422.06866 966.15466,-400.72943 		"/>
		<polyline fill="none" stroke="#000000" stroke-miterlimit="11.33858" points="994.5011,-400.72943 994.5011,-399.6636 
			972.09613,-399.6636 972.09613,-422.06866 994.5011,-422.06866 994.5011,-400.72943 		"/>
		<polyline fill="none" stroke="#000000" stroke-miterlimit="11.33858" points="1022.8476,-400.72943 1022.8476,-399.6636 
			1000.44257,-399.6636 1000.44257,-422.06866 1022.8476,-422.06866 1022.8476,-400.72943 		"/>
		<polyline fill="none" stroke="#000000" stroke-miterlimit="11.33858" points="1051.19409,-400.72943 1051.19409,-399.6636 
			1028.78906,-399.6636 1028.78906,-422.06866 1051.19409,-422.06866 1051.19409,-400.72943 		"/>
		<polyline fill="none" stroke="#000000" stroke-miterlimit="11.33858" points="1079.54053,-400.72943 1079.54053,-399.6636 
			1057.1355,-399.6636 1057.1355,-422.06866 1079.54053,-422.06866 1079.54053,-400.72943 		"/>
		<polyline fill="none" stroke="#000000" stroke-miterlimit="11.33858" points="1107.88696,-400.72943 1107.88696,-399.6636 
			1085.48193,-399.6636 1085.48193,-422.06866 1107.88696,-422.06866 1107.88696,-400.72943 		"/>
		<polyline fill="none" stroke="#000000" stroke-miterlimit="11.33858" points="1136.2334,-400.72943 1136.2334,-399.6636 
			1113.82837,-399.6636 1113.82837,-422.06866 1136.2334,-422.06866 1136.2334,-400.72943 		"/>
		<polyline fill="none" stroke="#000000" stroke-miterlimit="11.33858" points="1142.1748,-421.00284 1142.1748,-422.06866 
			1164.57983,-422.06866 1164.57983,-399.6636 1142.1748,-399.6636 1142.1748,-421.00284 		"/>
		<polyline fill="none" stroke="#000000" stroke-miterlimit="11.33858" points="1143.24072,-428.01007 1142.1748,-428.01007 
			1142.1748,-450.4151 1164.57983,-450.4151 1164.57983,-428.01007 1143.24072,-428.01007 		"/>
		<polyline fill="none" stroke="#000000" stroke-miterlimit="11.33858" points="1114.89429,-428.01007 1113.82837,-428.01007 
			1113.82837,-450.4151 1136.2334,-450.4151 1136.2334,-428.01007 1114.89429,-428.01007 		"/>
		<polyline fill="none" stroke="#000000" stroke-miterlimit="11.33858" points="1086.54773,-428.01007 1085.48193,-428.01007 
			1085.48193,-450.4151 1107.88696,-450.4151 1107.88696,-428.01007 1086.54773,-428.01007 		"/>
		<polyline fill="none" stroke="#000000" stroke-miterlimit="11.33858" points="1058.20129,-428.01007 1057.1355,-428.01007 
			1057.1355,-450.4151 1079.54053,-450.4151 1079.54053,-428.01007 1058.20129,-428.01007 		"/>
		<polyline fill="none" stroke="#000000" stroke-miterlimit="11.33858" points="1029.85486,-428.01007 1028.78906,-428.01007 
			1028.78906,-450.4151 1051.19409,-450.4151 1051.19409,-428.01007 1029.85486,-428.01007 		"/>
		<polyline fill="none" stroke="#000000" stroke-miterlimit="11.33858" points="1001.50842,-428.01007 1000.44257,-428.01007 
			1000.44257,-450.4151 1022.8476,-450.4151 1022.8476,-428.01007 1001.50842,-428.01007 		"/>
		<polyline fill="none" stroke="#000000" stroke-miterlimit="11.33858" points="973.16193,-428.01007 972.09613,-428.01007 
			972.09613,-450.4151 994.5011,-450.4151 994.5011,-428.01007 973.16193,-428.01007 		"/>
		<polyline fill="none" stroke="#000000" stroke-miterlimit="11.33858" points="943.74963,-436.51401 943.74963,-450.4151 
			966.15466,-450.4151 966.15466,-428.01007 943.74963,-428.01007 943.74963,-436.51401 		"/>
		<path fill="none" stroke="#000000" stroke-miterlimit="11.33858" d="M869.01984-460.18896
			c0,2.11658-1.71582,3.83243-3.83246,3.83243l0,0c-2.11658,0-3.8324-1.71585-3.8324-3.83243
			c0-2.11661,1.71582-3.83243,3.8324-3.83246c2.11664,0,3.83246,1.71585,3.83246,3.83243
			C869.01984-460.189,869.01984-460.18896,869.01984-460.18896"/>
		<path fill="none" stroke="#000000" stroke-miterlimit="11.33858" d="M1116.77917-457.35718
			c-1.56396-1.42618-1.67554-3.85019-0.24939-5.41412c0-0.00003,0-0.00003,0-0.00003
			c1.42615-1.56396,3.85022-1.67566,5.41418-0.24948c0,0,0,0,0,0.00003c1.56396,1.42621,1.67566,3.85019,0.24939,5.41415
			c0,0,0,0,0,0.00003c-1.42615,1.56396-3.8501,1.67566-5.41418,0.24948
			C1116.77917-457.35715,1116.77917-457.35715,1116.77917-457.35718"/>
		<path fill="none" stroke="#000000" stroke-miterlimit="11.33858" d="M1116.52979-222.39339
			c1.42615-1.56396,3.85022-1.67564,5.41418-0.24948c0,0.00002,0,0.00002,0,0.00005
			c1.56396,1.42621,1.67566,3.85019,0.24939,5.41414c0,0.00002,0,0.00002,0,0.00002
			c-1.42615,1.56398-3.8501,1.67567-5.41418,0.24951c0-0.00002,0-0.00002,0-0.00005
			c-1.56396-1.42619-1.67554-3.85019-0.24939-5.41414C1116.52979-222.39336,1116.52979-222.39336,1116.52979-222.39339"/>
		<path fill="none" stroke="#000000" stroke-miterlimit="11.33858" d="M869.00568-220.16251
			c0.19513,2.10757-1.35529,3.97427-3.46283,4.1694c-0.00134,0.00012-0.00262,0.00023-0.00391,0.00037
			c-2.1076,0.19511-3.9743-1.35524-4.16943-3.46281c-0.00012-0.00133-0.00024-0.00264-0.00037-0.00397
			c-0.19513-2.10757,1.35522-3.97427,3.46283-4.16939c0.00134-0.00014,0.00269-0.00024,0.00397-0.00037
			c2.1076-0.1951,3.9743,1.35527,4.16937,3.46284C869.00543-220.1651,869.00555-220.1638,869.00568-220.16251"/>
		<path fill="none" stroke="#000000" stroke-miterlimit="11.33858" d="M562.82709-223.64346
			c2.11664,0,3.83246,1.71585,3.83246,3.83246l0,0c0,2.11659-1.71582,3.83243-3.83246,3.83243
			c-2.11658,0-3.8324-1.71584-3.8324-3.83243C558.99469-221.92761,560.71051-223.64346,562.82709-223.64346L562.82709-223.64346"/>
		<polyline fill="none" stroke="#000000" stroke-miterlimit="11.33858" points="511.54553,-251.98993 512.61139,-251.98993 
			512.61139,-229.58487 490.2063,-229.58487 490.2063,-251.98993 511.54553,-251.98993 		"/>
		<polyline fill="none" stroke="#000000" stroke-miterlimit="11.33858" points="491.27216,-257.93134 490.2063,-257.93134 
			490.2063,-280.3364 512.61139,-280.3364 512.61139,-257.93134 491.27216,-257.93134 		"/>
		<polyline fill="none" stroke="#000000" stroke-miterlimit="11.33858" points="484.26489,-258.99716 484.26489,-257.93134 
			461.85983,-257.93134 461.85983,-280.3364 484.26489,-280.3364 484.26489,-258.99716 		"/>
		<polyline fill="none" stroke="#000000" stroke-miterlimit="11.33858" points="461.85983,-250.92407 461.85983,-251.98993 
			484.26489,-251.98993 484.26489,-229.58487 461.85983,-229.58487 461.85983,-250.92407 		"/>
		<polyline fill="none" stroke="#000000" stroke-miterlimit="11.33858" points="433.5134,-250.92407 433.5134,-251.98993 
			455.91846,-251.98993 455.91846,-229.58487 433.5134,-229.58487 433.5134,-250.92407 		"/>
		<polyline fill="none" stroke="#000000" stroke-miterlimit="11.33858" points="426.50613,-251.98993 427.57199,-251.98993 
			427.57199,-229.58487 405.16693,-229.58487 405.16693,-251.98993 426.50613,-251.98993 		"/>
		<polyline fill="none" stroke="#000000" stroke-miterlimit="11.33858" points="426.50613,-280.3364 427.57199,-280.3364 
			427.57199,-257.93134 405.16693,-257.93134 405.16693,-280.3364 426.50613,-280.3364 		"/>
		<polyline fill="none" stroke="#000000" stroke-miterlimit="11.33858" points="406.23276,-286.27777 405.16693,-286.27777 
			405.16693,-308.68283 427.57199,-308.68283 427.57199,-286.27777 406.23276,-286.27777 		"/>
		<polyline fill="none" stroke="#000000" stroke-miterlimit="11.33858" points="398.1767,-308.68283 399.22552,-308.68283 
			399.22552,-286.27777 376.8205,-286.27777 376.8205,-308.68283 398.1767,-308.68283 		"/>
		<polyline fill="none" stroke="#000000" stroke-miterlimit="11.33858" points="399.22552,-315.67307 399.22552,-314.62424 
			376.8205,-314.62424 376.8205,-337.0293 399.22552,-337.0293 399.22552,-315.67307 		"/>
		<polyline fill="none" stroke="#000000" stroke-miterlimit="11.33858" points="405.16693,-335.98047 405.16693,-337.0293 
			427.57199,-337.0293 427.57199,-314.62424 405.16693,-314.62424 405.16693,-335.98047 		"/>
		<polyline fill="none" stroke="#000000" stroke-miterlimit="11.33858" points="406.21576,-342.9707 405.16693,-342.9707 
			405.16693,-365.37573 427.57199,-365.37573 427.57199,-342.9707 406.21576,-342.9707 		"/>
		<polyline fill="none" stroke="#000000" stroke-miterlimit="11.33858" points="398.1767,-365.37573 399.22552,-365.37573 
			399.22552,-342.9707 376.8205,-342.9707 376.8205,-365.37573 398.1767,-365.37573 		"/>
		<polyline fill="none" stroke="#000000" stroke-miterlimit="11.33858" points="377.86929,-371.31717 376.8205,-371.31717 
			376.8205,-393.7222 399.22552,-393.7222 399.22552,-371.31717 377.86929,-371.31717 		"/>
		<polyline fill="none" stroke="#000000" stroke-miterlimit="11.33858" points="349.52286,-371.31717 348.47403,-371.31717 
			348.47403,-393.7222 370.87906,-393.7222 370.87906,-371.31717 349.52286,-371.31717 		"/>
		<polyline fill="none" stroke="#000000" stroke-miterlimit="11.33858" points="342.53262,-372.36597 342.53262,-371.31717 
			320.12756,-371.31717 320.12756,-393.7222 342.53262,-393.7222 342.53262,-372.36597 		"/>
		<polyline fill="none" stroke="#000000" stroke-miterlimit="11.33858" points="342.53262,-344.01953 342.53262,-342.9707 
			320.12756,-342.9707 320.12756,-365.37573 342.53262,-365.37573 342.53262,-344.01953 		"/>
		<polyline fill="none" stroke="#000000" stroke-miterlimit="11.33858" points="342.53262,-315.67307 342.53262,-314.62424 
			320.12756,-314.62424 320.12756,-337.0293 342.53262,-337.0293 342.53262,-315.67307 		"/>
		<polyline fill="none" stroke="#000000" stroke-miterlimit="11.33858" points="342.53262,-287.88504 342.53262,-286.54709 
			342.53262,-286.27777 320.12756,-286.27777 320.12756,-308.68283 342.53262,-308.68283 342.53262,-287.88504 		"/>
		<polyline fill="none" stroke="#000000" stroke-miterlimit="11.33858" points="341.4668,-280.3364 342.53262,-280.3364 
			342.53262,-257.93134 320.12756,-257.93134 320.12756,-280.3364 341.4668,-280.3364 		"/>
		<polyline fill="none" stroke="#000000" stroke-miterlimit="11.33858" points="349.53986,-257.93134 348.47403,-257.93134 
			348.47403,-280.3364 370.87906,-280.3364 370.87906,-257.93134 349.53986,-257.93134 		"/>
		<polyline fill="none" stroke="#000000" stroke-miterlimit="11.33858" points="348.47403,-250.38268 348.47403,-251.72063 
			348.47403,-251.98993 370.87906,-251.98993 370.87906,-229.58487 348.47403,-229.58487 348.47403,-250.38268 		"/>
		<polyline fill="none" stroke="#000000" stroke-miterlimit="11.33858" points="320.12756,-250.92407 320.12756,-251.98993 
			342.53262,-251.98993 342.53262,-229.58487 320.12756,-229.58487 320.12756,-250.92407 		"/>
		<polyline fill="none" stroke="#000000" stroke-miterlimit="11.33858" points="313.12033,-251.98993 314.18616,-251.98993 
			314.18616,-229.58487 291.78113,-229.58487 291.78113,-251.98993 313.12033,-251.98993 		"/>
		<polyline fill="none" stroke="#000000" stroke-miterlimit="11.33858" points="313.12033,-280.3364 314.18616,-280.3364 
			314.18616,-257.93134 291.78113,-257.93134 291.78113,-280.3364 313.12033,-280.3364 		"/>
		<polyline fill="none" stroke="#000000" stroke-miterlimit="11.33858" points="312.57892,-308.68283 313.91687,-308.68283 
			314.18616,-308.68283 314.18616,-286.27777 291.78113,-286.27777 291.78113,-308.68283 312.57892,-308.68283 		"/>
		<polyline fill="none" stroke="#000000" stroke-miterlimit="11.33858" points="312.57892,-337.0293 313.91687,-337.0293 
			314.18616,-337.0293 314.18616,-314.62424 291.78113,-314.62424 291.78113,-337.0293 312.57892,-337.0293 		"/>
		<polyline fill="none" stroke="#000000" stroke-miterlimit="11.33858" points="312.57892,-365.37573 313.91687,-365.37573 
			314.18616,-365.37573 314.18616,-342.9707 291.78113,-342.9707 291.78113,-365.37573 312.57892,-365.37573 		"/>
		<polyline fill="none" stroke="#000000" stroke-miterlimit="11.33858" points="293.38837,-371.31717 292.05042,-371.31717 
			291.78113,-371.31717 291.78113,-393.7222 314.18616,-393.7222 314.18616,-371.31717 293.38837,-371.31717 		"/>
		<polyline fill="none" stroke="#000000" stroke-miterlimit="11.33858" points="285.83969,-372.383 285.83969,-371.31717 
			263.43466,-371.31717 263.43466,-393.7222 285.83969,-393.7222 285.83969,-372.383 		"/>
		<polyline fill="none" stroke="#000000" stroke-miterlimit="11.33858" points="285.83969,-344.03653 285.83969,-342.9707 
			263.43466,-342.9707 263.43466,-365.37573 285.83969,-365.37573 285.83969,-344.03653 		"/>
		<polyline fill="none" stroke="#000000" stroke-miterlimit="11.33858" points="285.83969,-315.69006 285.83969,-314.62424 
			263.43466,-314.62424 263.43466,-337.0293 285.83969,-337.0293 285.83969,-315.69006 		"/>
		<polyline fill="none" stroke="#000000" stroke-miterlimit="11.33858" points="285.83969,-287.34363 285.83969,-286.27777 
			263.43466,-286.27777 263.43466,-308.68283 285.83969,-308.68283 285.83969,-287.34363 		"/>
		<polyline fill="none" stroke="#000000" stroke-miterlimit="11.33858" points="285.83969,-258.99716 285.83969,-257.93134 
			263.43466,-257.93134 263.43466,-280.3364 285.83969,-280.3364 285.83969,-258.99716 		"/>
		<polyline fill="none" stroke="#000000" stroke-miterlimit="11.33858" points="284.77386,-251.98993 285.83969,-251.98993 
			285.83969,-229.58487 263.43466,-229.58487 263.43466,-251.98993 284.77386,-251.98993 		"/>
		<path fill="none" stroke="#000000" stroke-miterlimit="11.33858" d="M311.23529-222.64282
			c1.56396,1.42619,1.67566,3.85019,0.24945,5.41414c0,0,0,0.00002,0,0.00002c-1.42618,1.56398-3.85019,1.67567-5.41415,0.2495
			c0,0,0-0.00003-0.00003-0.00003c-1.56396-1.42619-1.67566-3.85016-0.24948-5.41414c0-0.00002,0.00003-0.00002,0.00003-0.00005
			c1.42618-1.56396,3.85019-1.67564,5.41415-0.24947C311.23526-222.64285,311.23526-222.64282,311.23529-222.64282"/>
		<polyline fill="none" stroke="#000000" stroke-miterlimit="11.33858" points="376.8205,-250.38268 376.8205,-251.72063 
			376.8205,-251.98993 399.22552,-251.98993 399.22552,-229.58487 376.8205,-229.58487 376.8205,-250.38268 		"/>
		<polyline fill="none" stroke="#000000" stroke-miterlimit="11.33858" points="377.88632,-257.93134 376.8205,-257.93134 
			376.8205,-280.3364 399.22552,-280.3364 399.22552,-257.93134 377.88632,-257.93134 		"/>
		<polyline fill="none" stroke="#000000" stroke-miterlimit="11.33858" points="369.83026,-308.68283 370.87906,-308.68283 
			370.87906,-286.27777 348.47403,-286.27777 348.47403,-308.68283 369.83026,-308.68283 		"/>
		<polyline fill="none" stroke="#000000" stroke-miterlimit="11.33858" points="369.83026,-337.0293 370.87906,-337.0293 
			370.87906,-314.62424 348.47403,-314.62424 348.47403,-337.0293 369.83026,-337.0293 		"/>
		<polyline fill="none" stroke="#000000" stroke-miterlimit="11.33858" points="370.87906,-344.01953 370.87906,-342.9707 
			348.47403,-342.9707 348.47403,-365.37573 370.87906,-365.37573 370.87906,-344.01953 		"/>
		<polyline fill="none" stroke="#000000" stroke-miterlimit="11.33858" points="406.21576,-371.31717 405.16693,-371.31717 
			405.16693,-393.7222 427.57199,-393.7222 427.57199,-371.31717 406.21576,-371.31717 		"/>
		<polyline fill="none" stroke="#000000" stroke-miterlimit="11.33858" points="454.31119,-308.68283 455.64917,-308.68283 
			455.91846,-308.68283 455.91846,-286.27777 433.5134,-286.27777 433.5134,-308.68283 454.31119,-308.68283 		"/>
		<polyline fill="none" stroke="#000000" stroke-miterlimit="11.33858" points="482.65765,-308.68283 483.99561,-308.68283 
			484.26489,-308.68283 484.26489,-286.27777 461.85983,-286.27777 461.85983,-308.68283 482.65765,-308.68283 		"/>
		<polyline fill="none" stroke="#000000" stroke-miterlimit="11.33858" points="490.2063,-303.28568 490.2063,-308.68283 
			512.61139,-308.68283 512.61139,-286.27777 490.2063,-286.27777 490.2063,-303.28568 		"/>
		<polyline fill="none" stroke="#000000" stroke-miterlimit="11.33858" points="454.8526,-280.3364 455.91846,-280.3364 
			455.91846,-257.93134 433.5134,-257.93134 433.5134,-280.3364 454.8526,-280.3364 		"/>
		<polyline fill="none" stroke="#000000" stroke-miterlimit="11.33858" points="292.84695,-399.6636 291.78113,-399.6636 
			291.78113,-422.06866 314.18616,-422.06866 314.18616,-399.6636 292.84695,-399.6636 		"/>
		<polyline fill="none" stroke="#000000" stroke-miterlimit="11.33858" points="284.77386,-422.06866 285.83969,-422.06866 
			285.83969,-399.6636 263.43466,-399.6636 263.43466,-422.06866 284.77386,-422.06866 		"/>
		<polyline fill="none" stroke="#000000" stroke-miterlimit="11.33858" points="285.83969,-429.0759 285.83969,-428.01007 
			263.43466,-428.01007 263.43466,-450.4151 285.83969,-450.4151 285.83969,-429.0759 		"/>
		<polyline fill="none" stroke="#000000" stroke-miterlimit="11.33858" points="291.78113,-436.51401 291.78113,-450.4151 
			314.18616,-450.4151 314.18616,-428.01007 291.78113,-428.01007 291.78113,-436.51401 		"/>
		<path fill="none" stroke="#000000" stroke-miterlimit="11.33858" d="M306.42773-457.06802
			c-1.72357-1.22852-2.12491-3.62167-0.89639-5.34525c0.00021-0.00031,0.00043-0.00061,0.00064-0.00092
			c1.22852-1.72357,3.62167-2.12488,5.34525-0.89636c0.00031,0.00021,0.00061,0.00043,0.00089,0.00064
			c1.72357,1.22852,2.12491,3.62164,0.89639,5.34525c-0.00021,0.00027-0.00043,0.00058-0.00064,0.00089
			c-1.22852,1.72357-3.62167,2.12491-5.34525,0.89639C306.42831-457.0676,306.42804-457.06781,306.42773-457.06802"/>
		<path fill="none" stroke="#FF0000" stroke-miterlimit="11.33858" d="M306.42773-476.19907h-68.64096
			c-0.07513,0-0.13606,0.06094-0.13606,0.13608V-203.937c0.00002,0.07513,0.06093,0.13605,0.13606,0.13605h949.60632
			c0.0752,0,0.13611-0.0609,0.13611-0.13605l0,0v-19.84253c0-0.07515-0.06091-0.13605-0.13611-0.13605l0,0h-19.70642v-232.16884
			h19.70642c0.0752,0,0.13611-0.06091,0.13611-0.13605c0,0,0,0,0,0v-19.84253c0-0.07513-0.06091-0.13608-0.13611-0.13608l0,0
			H306.42773"/>
	</g>
</g>
<g>
</g>
<g>
</g>
<g>
</g>
<g>
</g>
<g>
</g>
<g>
</g>
</svg>
