<?xml version="1.0" encoding="UTF-8"?>
<svg xmlns="http://www.w3.org/2000/svg" width="507.99999mm" height="304.8mm" version="1.1" viewBox="0 0 1440 864">
  <!-- Generator: Adobe Illustrator 28.6.0, SVG Export Plug-In . SVG Version: 1.2.0 Build 709)  -->
  <g>
    <g id="Layer_1">
      <g id="global-translation-frame">
        <g id="opperation-1">
          <polyline points="428.50622 520.06865 429.57205 520.06865 429.57205 497.66361 407.16701 497.66361 407.16701 520.06865 428.50622 520.06865" fill="none" stroke="#000" stroke-miterlimit="11.33858"/>
          <polyline points="456.85266 520.06865 457.91851 520.06865 457.91851 497.66361 435.51346 497.66361 435.51346 520.06865 456.85266 520.06865" fill="none" stroke="#000" stroke-miterlimit="11.33858"/>
          <polyline points="485.19912 520.06865 486.26497 520.06865 486.26497 497.66361 463.85991 497.66361 463.85991 520.06865 485.19912 520.06865" fill="none" stroke="#000" stroke-miterlimit="11.33858"/>
          <polyline points="513.54558 520.06865 514.61142 520.06865 514.61142 497.66361 492.20636 497.66361 492.20636 520.06865 513.54558 520.06865" fill="none" stroke="#000" stroke-miterlimit="11.33858"/>
          <polyline points="541.89203 520.06865 542.95788 520.06865 542.95788 497.66361 520.55282 497.66361 520.55282 520.06865 541.89203 520.06865" fill="none" stroke="#000" stroke-miterlimit="11.33858"/>
          <polyline points="570.23849 520.06865 571.30433 520.06865 571.30433 497.66361 548.89927 497.66361 548.89927 520.06865 570.23849 520.06865" fill="none" stroke="#000" stroke-miterlimit="11.33858"/>
          <polyline points="598.58494 520.06865 599.65079 520.06865 599.65079 497.66361 577.24573 497.66361 577.24573 520.06865 598.58494 520.06865" fill="none" stroke="#000" stroke-miterlimit="11.33858"/>
          <polyline points="605.59218 519.00283 605.59218 520.06865 627.99722 520.06865 627.99722 497.66361 605.59218 497.66361 605.59218 519.00283" fill="none" stroke="#000" stroke-miterlimit="11.33858"/>
          <polyline points="606.65803 526.01007 605.59218 526.01007 605.59218 548.41511 627.99722 548.41511 627.99722 526.01007 606.65803 526.01007" fill="none" stroke="#000" stroke-miterlimit="11.33858"/>
          <polyline points="578.31158 526.01007 577.24573 526.01007 577.24573 548.41511 599.65079 548.41511 599.65079 526.01007 578.31158 526.01007" fill="none" stroke="#000" stroke-miterlimit="11.33858"/>
          <polyline points="549.96512 526.01007 548.89927 526.01007 548.89927 548.41511 571.30433 548.41511 571.30433 526.01007 549.96512 526.01007" fill="none" stroke="#000" stroke-miterlimit="11.33858"/>
          <polyline points="521.61867 526.01007 520.55282 526.01007 520.55282 548.41511 542.95788 548.41511 542.95788 526.01007 521.61867 526.01007" fill="none" stroke="#000" stroke-miterlimit="11.33858"/>
          <polyline points="493.27221 526.01007 492.20636 526.01007 492.20636 548.41511 514.61142 548.41511 514.61142 526.01007 493.27221 526.01007" fill="none" stroke="#000" stroke-miterlimit="11.33858"/>
          <polyline points="464.92576 526.01007 463.85991 526.01007 463.85991 548.41511 486.26497 548.41511 486.26497 526.01007 464.92576 526.01007" fill="none" stroke="#000" stroke-miterlimit="11.33858"/>
          <polyline points="436.57929 526.01007 435.51346 526.01007 435.51346 548.41511 457.91851 548.41511 457.91851 526.01007 436.57929 526.01007" fill="none" stroke="#000" stroke-miterlimit="11.33858"/>
          <polyline points="408.23283 526.01007 407.16701 526.01007 407.16701 548.41511 429.57205 548.41511 429.57205 526.01007 408.23283 526.01007" fill="none" stroke="#000" stroke-miterlimit="11.33858"/>
          <polyline points="379.88638 526.01007 378.82055 526.01007 378.82055 548.41511 401.22559 548.41511 401.22559 526.01007 379.88638 526.01007" fill="none" stroke="#000" stroke-miterlimit="11.33858"/>
          <polyline points="351.53992 526.01007 350.4741 526.01007 350.4741 548.41511 372.87914 548.41511 372.87914 526.01007 351.53992 526.01007" fill="none" stroke="#000" stroke-miterlimit="11.33858"/>
          <polyline points="344.53268 527.07589 344.53268 526.01007 322.12764 526.01007 322.12764 548.41511 344.53268 548.41511 344.53268 527.07589" fill="none" stroke="#000" stroke-miterlimit="11.33858"/>
          <polyline points="344.53268 498.72944 344.53268 497.66361 322.12764 497.66361 322.12764 520.06865 344.53268 520.06865 344.53268 498.72944" fill="none" stroke="#000" stroke-miterlimit="11.33858"/>
          <polyline points="344.53268 470.38298 344.53268 469.31716 322.12764 469.31716 322.12764 491.7222 344.53268 491.7222 344.53268 470.38298" fill="none" stroke="#000" stroke-miterlimit="11.33858"/>
          <polyline points="344.53268 442.03653 344.53268 440.9707 322.12764 440.9707 322.12764 463.37574 344.53268 463.37574 344.53268 442.03653" fill="none" stroke="#000" stroke-miterlimit="11.33858"/>
          <polyline points="344.53268 413.69007 344.53268 412.62425 322.12764 412.62425 322.12764 435.02929 344.53268 435.02929 344.53268 413.69007" fill="none" stroke="#000" stroke-miterlimit="11.33858"/>
          <polyline points="344.53268 385.34363 344.53268 384.27778 322.12764 384.27778 322.12764 406.68283 344.53268 406.68283 344.53268 385.34363" fill="none" stroke="#000" stroke-miterlimit="11.33858"/>
          <polyline points="344.53268 356.99718 344.53268 355.93133 322.12764 355.93133 322.12764 378.33639 344.53268 378.33639 344.53268 356.99718" fill="none" stroke="#000" stroke-miterlimit="11.33858"/>
          <polyline points="322.12764 348.92408 322.12764 349.98993 344.53268 349.98993 344.53268 327.58487 322.12764 327.58487 322.12764 348.92408" fill="none" stroke="#000" stroke-miterlimit="11.33858"/>
          <polyline points="315.1204 349.98993 316.18623 349.98993 316.18623 327.58487 293.78119 327.58487 293.78119 349.98993 315.1204 349.98993" fill="none" stroke="#000" stroke-miterlimit="11.33858"/>
          <polyline points="315.1204 378.33639 316.18623 378.33639 316.18623 355.93133 293.78119 355.93133 293.78119 378.33639 315.1204 378.33639" fill="none" stroke="#000" stroke-miterlimit="11.33858"/>
          <polyline points="314.57898 406.68283 315.91694 406.68283 316.18623 406.68283 316.18623 384.27778 293.78119 384.27778 293.78119 406.68283 314.57898 406.68283" fill="none" stroke="#000" stroke-miterlimit="11.33858"/>
          <polyline points="314.57898 435.02929 315.91694 435.02929 316.18623 435.02929 316.18623 412.62425 293.78119 412.62425 293.78119 435.02929 314.57898 435.02929" fill="none" stroke="#000" stroke-miterlimit="11.33858"/>
          <polyline points="314.57898 463.37574 315.91694 463.37574 316.18623 463.37574 316.18623 440.9707 293.78119 440.9707 293.78119 463.37574 314.57898 463.37574" fill="none" stroke="#000" stroke-miterlimit="11.33858"/>
          <polyline points="294.83001 469.31716 293.78119 469.31716 293.78119 491.7222 316.18623 491.7222 316.18623 469.31716 294.83001 469.31716" fill="none" stroke="#000" stroke-miterlimit="11.33858"/>
          <polyline points="287.83977 470.36598 287.83977 469.31716 265.43473 469.31716 265.43473 491.7222 287.83977 491.7222 287.83977 470.36598" fill="none" stroke="#000" stroke-miterlimit="11.33858"/>
          <polyline points="287.83977 442.01952 287.83977 440.9707 265.43473 440.9707 265.43473 463.37574 287.83977 463.37574 287.83977 442.01952" fill="none" stroke="#000" stroke-miterlimit="11.33858"/>
          <polyline points="287.83977 413.67307 287.83977 412.62425 265.43473 412.62425 265.43473 435.02929 287.83977 435.02929 287.83977 413.67307" fill="none" stroke="#000" stroke-miterlimit="11.33858"/>
          <polyline points="287.83977 385.88503 287.83977 384.54708 287.83977 384.27778 265.43473 384.27778 265.43473 406.68283 287.83977 406.68283 287.83977 385.88503" fill="none" stroke="#000" stroke-miterlimit="11.33858"/>
          <polyline points="287.83977 357.53858 287.83977 356.20062 287.83977 355.93133 265.43473 355.93133 265.43473 378.33639 287.83977 378.33639 287.83977 357.53858" fill="none" stroke="#000" stroke-miterlimit="11.33858"/>
          <polyline points="286.77395 349.98993 287.83977 349.98993 287.83977 327.58487 265.43473 327.58487 265.43473 349.98993 286.77395 349.98993" fill="none" stroke="#000" stroke-miterlimit="11.33858"/>
          <polyline points="350.4741 348.92408 350.4741 349.98993 372.87914 349.98993 372.87914 327.58487 350.4741 327.58487 350.4741 348.92408" fill="none" stroke="#000" stroke-miterlimit="11.33858"/>
          <polyline points="372.87914 357.53858 372.87914 356.20062 372.87914 355.93133 350.4741 355.93133 350.4741 378.33639 372.87914 378.33639 372.87914 357.53858" fill="none" stroke="#000" stroke-miterlimit="11.33858"/>
          <polyline points="378.82055 376.72914 378.82055 378.06709 378.82055 378.33639 401.22559 378.33639 401.22559 355.93133 378.82055 355.93133 378.82055 376.72914" fill="none" stroke="#000" stroke-miterlimit="11.33858"/>
          <polyline points="378.82055 405.63401 378.82055 406.68283 401.22559 406.68283 401.22559 384.27778 378.82055 384.27778 378.82055 405.63401" fill="none" stroke="#000" stroke-miterlimit="11.33858"/>
          <polyline points="401.22559 413.67307 401.22559 412.62425 378.82055 412.62425 378.82055 435.02929 401.22559 435.02929 401.22559 413.67307" fill="none" stroke="#000" stroke-miterlimit="11.33858"/>
          <polyline points="429.57205 413.67307 429.57205 412.62425 407.16701 412.62425 407.16701 435.02929 429.57205 435.02929 429.57205 413.67307" fill="none" stroke="#000" stroke-miterlimit="11.33858"/>
          <polyline points="435.51346 433.98047 435.51346 435.02929 457.91851 435.02929 457.91851 412.62425 435.51346 412.62425 435.51346 433.98047" fill="none" stroke="#000" stroke-miterlimit="11.33858"/>
          <polyline points="435.51346 462.32692 435.51346 463.37574 457.91851 463.37574 457.91851 440.9707 435.51346 440.9707 435.51346 462.32692" fill="none" stroke="#000" stroke-miterlimit="11.33858"/>
          <polyline points="457.91851 470.38298 457.91851 469.31716 435.51346 469.31716 435.51346 491.7222 457.91851 491.7222 457.91851 470.38298" fill="none" stroke="#000" stroke-miterlimit="11.33858"/>
          <polyline points="465.46716 469.31716 464.1292 469.31716 463.85991 469.31716 463.85991 491.7222 486.26497 491.7222 486.26497 469.31716 465.46716 469.31716" fill="none" stroke="#000" stroke-miterlimit="11.33858"/>
          <polyline points="465.46716 440.9707 464.1292 440.9707 463.85991 440.9707 463.85991 463.37574 486.26497 463.37574 486.26497 440.9707 465.46716 440.9707" fill="none" stroke="#000" stroke-miterlimit="11.33858"/>
          <polyline points="465.46716 412.62425 464.1292 412.62425 463.85991 412.62425 463.85991 435.02929 486.26497 435.02929 486.26497 412.62425 465.46716 412.62425" fill="none" stroke="#000" stroke-miterlimit="11.33858"/>
          <polyline points="464.92576 384.27778 463.85991 384.27778 463.85991 406.68283 486.26497 406.68283 486.26497 384.27778 464.92576 384.27778" fill="none" stroke="#000" stroke-miterlimit="11.33858"/>
          <polyline points="485.19912 378.33639 486.26497 378.33639 486.26497 355.93133 463.85991 355.93133 463.85991 378.33639 485.19912 378.33639" fill="none" stroke="#000" stroke-miterlimit="11.33858"/>
          <polyline points="513.54558 378.33639 514.61142 378.33639 514.61142 355.93133 492.20636 355.93133 492.20636 378.33639 513.54558 378.33639" fill="none" stroke="#000" stroke-miterlimit="11.33858"/>
          <polyline points="520.55282 377.27054 520.55282 378.33639 542.95788 378.33639 542.95788 355.93133 520.55282 355.93133 520.55282 377.27054" fill="none" stroke="#000" stroke-miterlimit="11.33858"/>
          <polyline points="520.55282 405.61701 520.55282 406.68283 542.95788 406.68283 542.95788 384.27778 520.55282 384.27778 520.55282 405.61701" fill="none" stroke="#000" stroke-miterlimit="11.33858"/>
          <polyline points="520.55282 433.96346 520.55282 435.02929 542.95788 435.02929 542.95788 412.62425 520.55282 412.62425 520.55282 433.96346" fill="none" stroke="#000" stroke-miterlimit="11.33858"/>
          <polyline points="522.16007 440.9707 520.82211 440.9707 520.55282 440.9707 520.55282 463.37574 542.95788 463.37574 542.95788 440.9707 522.16007 440.9707" fill="none" stroke="#000" stroke-miterlimit="11.33858"/>
          <polyline points="514.61142 442.03653 514.61142 440.9707 492.20636 440.9707 492.20636 463.37574 514.61142 463.37574 514.61142 442.03653" fill="none" stroke="#000" stroke-miterlimit="11.33858"/>
          <polyline points="514.61142 413.69007 514.61142 412.62425 492.20636 412.62425 492.20636 435.02929 514.61142 435.02929 514.61142 413.69007" fill="none" stroke="#000" stroke-miterlimit="11.33858"/>
          <polyline points="512.04888 406.68283 514.61142 406.68283 514.61142 384.27778 492.20636 384.27778 492.20636 406.68283 512.04888 406.68283" fill="none" stroke="#000" stroke-miterlimit="11.33858"/>
          <polyline points="485.19912 349.98993 486.26497 349.98993 486.26497 327.58487 463.85991 327.58487 463.85991 349.98993 485.19912 349.98993" fill="none" stroke="#000" stroke-miterlimit="11.33858"/>
          <polyline points="513.54558 349.98993 514.61142 349.98993 514.61142 327.58487 492.20636 327.58487 492.20636 349.98993 513.54558 349.98993" fill="none" stroke="#000" stroke-miterlimit="11.33858"/>
          <polyline points="541.89203 349.98993 542.95788 349.98993 542.95788 327.58487 520.55282 327.58487 520.55282 349.98993 541.89203 349.98993" fill="none" stroke="#000" stroke-miterlimit="11.33858"/>
          <polyline points="570.23849 349.98993 571.30433 349.98993 571.30433 327.58487 548.89927 327.58487 548.89927 349.98993 570.23849 349.98993" fill="none" stroke="#000" stroke-miterlimit="11.33858"/>
          <polyline points="598.58494 349.98993 599.65079 349.98993 599.65079 327.58487 577.24573 327.58487 577.24573 349.98993 598.58494 349.98993" fill="none" stroke="#000" stroke-miterlimit="11.33858"/>
          <polyline points="605.59218 348.92408 605.59218 349.98993 627.99722 349.98993 627.99722 327.58487 605.59218 327.58487 605.59218 348.92408" fill="none" stroke="#000" stroke-miterlimit="11.33858"/>
          <polyline points="606.65803 355.93133 605.59218 355.93133 605.59218 378.33639 627.99722 378.33639 627.99722 355.93133 606.65803 355.93133" fill="none" stroke="#000" stroke-miterlimit="11.33858"/>
          <polyline points="598.58494 378.33639 599.65079 378.33639 599.65079 355.93133 577.24573 355.93133 577.24573 378.33639 598.58494 378.33639" fill="none" stroke="#000" stroke-miterlimit="11.33858"/>
          <polyline points="598.04354 406.68283 599.38149 406.68283 599.65079 406.68283 599.65079 384.27778 577.24573 384.27778 577.24573 406.68283 598.04354 406.68283" fill="none" stroke="#000" stroke-miterlimit="11.33858"/>
          <polyline points="598.04354 435.02929 599.38149 435.02929 599.65079 435.02929 599.65079 412.62425 577.24573 412.62425 577.24573 435.02929 598.04354 435.02929" fill="none" stroke="#000" stroke-miterlimit="11.33858"/>
          <polyline points="599.65079 442.03653 599.65079 440.9707 577.24573 440.9707 577.24573 463.37574 599.65079 463.37574 599.65079 442.03653" fill="none" stroke="#000" stroke-miterlimit="11.33858"/>
          <polyline points="605.59218 462.30992 605.59218 463.37574 627.99722 463.37574 627.99722 440.9707 605.59218 440.9707 605.59218 462.30992" fill="none" stroke="#000" stroke-miterlimit="11.33858"/>
          <polyline points="607.19943 469.31716 605.86148 469.31716 605.59218 469.31716 605.59218 491.7222 627.99722 491.7222 627.99722 469.31716 607.19943 469.31716" fill="none" stroke="#000" stroke-miterlimit="11.33858"/>
          <polyline points="578.85298 469.31716 577.51502 469.31716 577.24573 469.31716 577.24573 491.7222 599.65079 491.7222 599.65079 469.31716 578.85298 469.31716" fill="none" stroke="#000" stroke-miterlimit="11.33858"/>
          <polyline points="550.50652 469.31716 549.16857 469.31716 548.89927 469.31716 548.89927 491.7222 571.30433 491.7222 571.30433 469.31716 550.50652 469.31716" fill="none" stroke="#000" stroke-miterlimit="11.33858"/>
          <polyline points="522.16007 469.31716 520.82211 469.31716 520.55282 469.31716 520.55282 491.7222 542.95788 491.7222 542.95788 469.31716 522.16007 469.31716" fill="none" stroke="#000" stroke-miterlimit="11.33858"/>
          <polyline points="514.61142 470.38298 514.61142 469.31716 492.20636 469.31716 492.20636 491.7222 514.61142 491.7222 514.61142 470.38298" fill="none" stroke="#000" stroke-miterlimit="11.33858"/>
          <polyline points="550.50652 440.9707 549.16857 440.9707 548.89927 440.9707 548.89927 463.37574 571.30433 463.37574 571.30433 440.9707 550.50652 440.9707" fill="none" stroke="#000" stroke-miterlimit="11.33858"/>
          <polyline points="550.50652 412.62425 549.16857 412.62425 548.89927 412.62425 548.89927 435.02929 571.30433 435.02929 571.30433 412.62425 550.50652 412.62425" fill="none" stroke="#000" stroke-miterlimit="11.33858"/>
          <polyline points="549.96512 384.27778 548.89927 384.27778 548.89927 406.68283 571.30433 406.68283 571.30433 384.27778 549.96512 384.27778" fill="none" stroke="#000" stroke-miterlimit="11.33858"/>
          <polyline points="570.23849 378.33639 571.30433 378.33639 571.30433 355.93133 548.89927 355.93133 548.89927 378.33639 570.23849 378.33639" fill="none" stroke="#000" stroke-miterlimit="11.33858"/>
          <polyline points="605.59218 405.61701 605.59218 406.68283 627.99722 406.68283 627.99722 384.27778 605.59218 384.27778 605.59218 405.61701" fill="none" stroke="#000" stroke-miterlimit="11.33858"/>
          <polyline points="627.99722 413.67307 627.99722 412.62425 605.59218 412.62425 605.59218 435.02929 627.99722 435.02929 627.99722 413.67307" fill="none" stroke="#000" stroke-miterlimit="11.33858"/>
          <polyline points="633.93866 433.98047 633.93866 435.02929 656.34368 435.02929 656.34368 412.62425 633.93866 412.62425 633.93866 433.98047" fill="none" stroke="#000" stroke-miterlimit="11.33858"/>
          <polyline points="633.93866 462.32692 633.93866 463.37574 656.34368 463.37574 656.34368 440.9707 633.93866 440.9707 633.93866 462.32692" fill="none" stroke="#000" stroke-miterlimit="11.33858"/>
          <polyline points="633.93866 490.11495 633.93866 491.45291 633.93866 491.7222 656.34368 491.7222 656.34368 469.31716 633.93866 469.31716 633.93866 490.11495" fill="none" stroke="#000" stroke-miterlimit="11.33858"/>
          <polyline points="633.93866 518.46141 633.93866 519.79936 633.93866 520.06865 656.34368 520.06865 656.34368 497.66361 633.93866 497.66361 633.93866 518.46141" fill="none" stroke="#000" stroke-miterlimit="11.33858"/>
          <polyline points="656.34368 527.61731 656.34368 526.27936 656.34368 526.01007 633.93866 526.01007 633.93866 548.41511 656.34368 548.41511 656.34368 527.61731" fill="none" stroke="#000" stroke-miterlimit="11.33858"/>
          <polyline points="663.35092 526.01007 662.28512 526.01007 662.28512 548.41511 684.69013 548.41511 684.69013 526.01007 663.35092 526.01007" fill="none" stroke="#000" stroke-miterlimit="11.33858"/>
          <polyline points="663.35092 497.66361 662.28512 497.66361 662.28512 520.06865 684.69013 520.06865 684.69013 497.66361 663.35092 497.66361" fill="none" stroke="#000" stroke-miterlimit="11.33858"/>
          <polyline points="663.33392 469.31716 662.28512 469.31716 662.28512 491.7222 684.69013 491.7222 684.69013 469.31716 663.33392 469.31716" fill="none" stroke="#000" stroke-miterlimit="11.33858"/>
          <polyline points="663.33392 440.9707 662.28512 440.9707 662.28512 463.37574 684.69013 463.37574 684.69013 440.9707 663.33392 440.9707" fill="none" stroke="#000" stroke-miterlimit="11.33858"/>
          <polyline points="663.33392 412.62425 662.28512 412.62425 662.28512 435.02929 684.69013 435.02929 684.69013 412.62425 663.33392 412.62425" fill="none" stroke="#000" stroke-miterlimit="11.33858"/>
          <polyline points="663.35092 384.27778 662.28512 384.27778 662.28512 406.68283 684.69013 406.68283 684.69013 384.27778 663.35092 384.27778" fill="none" stroke="#000" stroke-miterlimit="11.33858"/>
          <polyline points="663.35092 355.93133 662.28512 355.93133 662.28512 378.33639 684.69013 378.33639 684.69013 355.93133 663.35092 355.93133" fill="none" stroke="#000" stroke-miterlimit="11.33858"/>
          <polyline points="662.28512 348.38268 662.28512 349.72064 662.28512 349.98993 684.69013 349.98993 684.69013 327.58487 662.28512 327.58487 662.28512 348.38268" fill="none" stroke="#000" stroke-miterlimit="11.33858"/>
          <polyline points="655.27787 349.98993 656.34368 349.98993 656.34368 327.58487 633.93866 327.58487 633.93866 349.98993 655.27787 349.98993" fill="none" stroke="#000" stroke-miterlimit="11.33858"/>
          <polyline points="655.27787 378.33639 656.34368 378.33639 656.34368 355.93133 633.93866 355.93133 633.93866 378.33639 655.27787 378.33639" fill="none" stroke="#000" stroke-miterlimit="11.33858"/>
          <polyline points="656.34368 385.88503 656.34368 384.54708 656.34368 384.27778 633.93866 384.27778 633.93866 406.68283 656.34368 406.68283 656.34368 385.88503" fill="none" stroke="#000" stroke-miterlimit="11.33858"/>
          <polyline points="690.63157 376.72914 690.63157 378.06709 690.63157 378.33639 713.03659 378.33639 713.03659 355.93133 690.63157 355.93133 690.63157 376.72914" fill="none" stroke="#000" stroke-miterlimit="11.33858"/>
          <polyline points="690.63157 405.63401 690.63157 406.68283 713.03659 406.68283 713.03659 384.27778 690.63157 384.27778 690.63157 405.63401" fill="none" stroke="#000" stroke-miterlimit="11.33858"/>
          <polyline points="690.63157 433.98047 690.63157 435.02929 713.03659 435.02929 713.03659 412.62425 690.63157 412.62425 690.63157 433.98047" fill="none" stroke="#000" stroke-miterlimit="11.33858"/>
          <polyline points="690.63157 462.32692 690.63157 463.37574 713.03659 463.37574 713.03659 440.9707 690.63157 440.9707 690.63157 462.32692" fill="none" stroke="#000" stroke-miterlimit="11.33858"/>
          <polyline points="690.63157 490.11495 690.63157 491.45291 690.63157 491.7222 713.03659 491.7222 713.03659 469.31716 690.63157 469.31716 690.63157 490.11495" fill="none" stroke="#000" stroke-miterlimit="11.33858"/>
          <polyline points="690.63157 518.46141 690.63157 519.79936 690.63157 520.06865 713.03659 520.06865 713.03659 497.66361 690.63157 497.66361 690.63157 518.46141" fill="none" stroke="#000" stroke-miterlimit="11.33858"/>
          <polyline points="713.03659 527.61731 713.03659 526.27936 713.03659 526.01007 690.63157 526.01007 690.63157 548.41511 713.03659 548.41511 713.03659 527.61731" fill="none" stroke="#000" stroke-miterlimit="11.33858"/>
          <polyline points="720.04383 526.01007 718.97803 526.01007 718.97803 548.41511 741.38304 548.41511 741.38304 526.01007 720.04383 526.01007" fill="none" stroke="#000" stroke-miterlimit="11.33858"/>
          <polyline points="720.04383 497.66361 718.97803 497.66361 718.97803 520.06865 741.38304 520.06865 741.38304 497.66361 720.04383 497.66361" fill="none" stroke="#000" stroke-miterlimit="11.33858"/>
          <polyline points="720.02683 469.31716 718.97803 469.31716 718.97803 491.7222 741.38304 491.7222 741.38304 469.31716 720.02683 469.31716" fill="none" stroke="#000" stroke-miterlimit="11.33858"/>
          <polyline points="720.02683 440.9707 718.97803 440.9707 718.97803 463.37574 741.38304 463.37574 741.38304 440.9707 720.02683 440.9707" fill="none" stroke="#000" stroke-miterlimit="11.33858"/>
          <polyline points="720.02683 412.62425 718.97803 412.62425 718.97803 435.02929 741.38304 435.02929 741.38304 412.62425 720.02683 412.62425" fill="none" stroke="#000" stroke-miterlimit="11.33858"/>
          <polyline points="720.04383 384.27778 718.97803 384.27778 718.97803 406.68283 741.38304 406.68283 741.38304 384.27778 720.04383 384.27778" fill="none" stroke="#000" stroke-miterlimit="11.33858"/>
          <polyline points="720.04383 355.93133 718.97803 355.93133 718.97803 378.33639 741.38304 378.33639 741.38304 355.93133 720.04383 355.93133" fill="none" stroke="#000" stroke-miterlimit="11.33858"/>
          <polyline points="740.31724 349.98993 741.38304 349.98993 741.38304 327.58487 718.97803 327.58487 718.97803 349.98993 740.31724 349.98993" fill="none" stroke="#000" stroke-miterlimit="11.33858"/>
          <polyline points="747.32448 348.38268 747.32448 349.72064 747.32448 349.98993 769.7295 349.98993 769.7295 327.58487 747.32448 327.58487 747.32448 348.38268" fill="none" stroke="#000" stroke-miterlimit="11.33858"/>
          <polyline points="747.32448 376.72914 747.32448 378.06709 747.32448 378.33639 769.7295 378.33639 769.7295 355.93133 747.32448 355.93133 747.32448 376.72914" fill="none" stroke="#000" stroke-miterlimit="11.33858"/>
          <polyline points="747.32448 405.63401 747.32448 406.68283 769.7295 406.68283 769.7295 384.27778 747.32448 384.27778 747.32448 405.63401" fill="none" stroke="#000" stroke-miterlimit="11.33858"/>
          <polyline points="747.32448 433.98047 747.32448 435.02929 769.7295 435.02929 769.7295 412.62425 747.32448 412.62425 747.32448 433.98047" fill="none" stroke="#000" stroke-miterlimit="11.33858"/>
          <polyline points="747.32448 462.32692 747.32448 463.37574 769.7295 463.37574 769.7295 440.9707 747.32448 440.9707 747.32448 462.32692" fill="none" stroke="#000" stroke-miterlimit="11.33858"/>
          <polyline points="747.32448 490.11495 747.32448 491.45291 747.32448 491.7222 769.7295 491.7222 769.7295 469.31716 747.32448 469.31716 747.32448 490.11495" fill="none" stroke="#000" stroke-miterlimit="11.33858"/>
          <polyline points="747.32448 518.46141 747.32448 519.79936 747.32448 520.06865 769.7295 520.06865 769.7295 497.66361 747.32448 497.66361 747.32448 518.46141" fill="none" stroke="#000" stroke-miterlimit="11.33858"/>
          <polyline points="769.7295 527.61731 769.7295 526.27936 769.7295 526.01007 747.32448 526.01007 747.32448 548.41511 769.7295 548.41511 769.7295 527.61731" fill="none" stroke="#000" stroke-miterlimit="11.33858"/>
          <polyline points="776.73674 526.01007 775.67094 526.01007 775.67094 548.41511 798.07595 548.41511 798.07595 526.01007 776.73674 526.01007" fill="none" stroke="#000" stroke-miterlimit="11.33858"/>
          <polyline points="776.73674 497.66361 775.67094 497.66361 775.67094 520.06865 798.07595 520.06865 798.07595 497.66361 776.73674 497.66361" fill="none" stroke="#000" stroke-miterlimit="11.33858"/>
          <polyline points="776.71974 469.31716 775.67094 469.31716 775.67094 491.7222 798.07595 491.7222 798.07595 469.31716 776.71974 469.31716" fill="none" stroke="#000" stroke-miterlimit="11.33858"/>
          <polyline points="776.71974 440.9707 775.67094 440.9707 775.67094 463.37574 798.07595 463.37574 798.07595 440.9707 776.71974 440.9707" fill="none" stroke="#000" stroke-miterlimit="11.33858"/>
          <polyline points="776.71974 412.62425 775.67094 412.62425 775.67094 435.02929 798.07595 435.02929 798.07595 412.62425 776.71974 412.62425" fill="none" stroke="#000" stroke-miterlimit="11.33858"/>
          <polyline points="776.73674 384.27778 775.67094 384.27778 775.67094 406.68283 798.07595 406.68283 798.07595 384.27778 776.73674 384.27778" fill="none" stroke="#000" stroke-miterlimit="11.33858"/>
          <polyline points="776.73674 355.93133 775.67094 355.93133 775.67094 378.33639 798.07595 378.33639 798.07595 355.93133 776.73674 355.93133" fill="none" stroke="#000" stroke-miterlimit="11.33858"/>
          <polyline points="797.01015 349.98993 798.07595 349.98993 798.07595 327.58487 775.67094 327.58487 775.67094 349.98993 797.01015 349.98993" fill="none" stroke="#000" stroke-miterlimit="11.33858"/>
          <polyline points="804.01739 348.38268 804.01739 349.72064 804.01739 349.98993 826.42241 349.98993 826.42241 327.58487 804.01739 327.58487 804.01739 348.38268" fill="none" stroke="#000" stroke-miterlimit="11.33858"/>
          <polyline points="804.01739 376.72914 804.01739 378.06709 804.01739 378.33639 826.42241 378.33639 826.42241 355.93133 804.01739 355.93133 804.01739 376.72914" fill="none" stroke="#000" stroke-miterlimit="11.33858"/>
          <polyline points="804.01739 405.63401 804.01739 406.68283 826.42241 406.68283 826.42241 384.27778 804.01739 384.27778 804.01739 405.63401" fill="none" stroke="#000" stroke-miterlimit="11.33858"/>
          <polyline points="804.01739 433.98047 804.01739 435.02929 826.42241 435.02929 826.42241 412.62425 804.01739 412.62425 804.01739 433.98047" fill="none" stroke="#000" stroke-miterlimit="11.33858"/>
          <polyline points="804.01739 462.32692 804.01739 463.37574 826.42241 463.37574 826.42241 440.9707 804.01739 440.9707 804.01739 462.32692" fill="none" stroke="#000" stroke-miterlimit="11.33858"/>
          <polyline points="804.01739 490.11495 804.01739 491.45291 804.01739 491.7222 826.42241 491.7222 826.42241 469.31716 804.01739 469.31716 804.01739 490.11495" fill="none" stroke="#000" stroke-miterlimit="11.33858"/>
          <polyline points="804.01739 518.46141 804.01739 519.79936 804.01739 520.06865 826.42241 520.06865 826.42241 497.66361 804.01739 497.66361 804.01739 518.46141" fill="none" stroke="#000" stroke-miterlimit="11.33858"/>
          <polyline points="826.42241 527.61731 826.42241 526.27936 826.42241 526.01007 804.01739 526.01007 804.01739 548.41511 826.42241 548.41511 826.42241 527.61731" fill="none" stroke="#000" stroke-miterlimit="11.33858"/>
          <polyline points="833.42965 526.01007 832.36385 526.01007 832.36385 548.41511 854.76886 548.41511 854.76886 526.01007 833.42965 526.01007" fill="none" stroke="#000" stroke-miterlimit="11.33858"/>
          <polyline points="833.42965 497.66361 832.36385 497.66361 832.36385 520.06865 854.76886 520.06865 854.76886 497.66361 833.42965 497.66361" fill="none" stroke="#000" stroke-miterlimit="11.33858"/>
          <polyline points="833.41265 469.31716 832.36385 469.31716 832.36385 491.7222 854.76886 491.7222 854.76886 469.31716 833.41265 469.31716" fill="none" stroke="#000" stroke-miterlimit="11.33858"/>
          <polyline points="833.41265 440.9707 832.36385 440.9707 832.36385 463.37574 854.76886 463.37574 854.76886 440.9707 833.41265 440.9707" fill="none" stroke="#000" stroke-miterlimit="11.33858"/>
          <polyline points="833.41265 412.62425 832.36385 412.62425 832.36385 435.02929 854.76886 435.02929 854.76886 412.62425 833.41265 412.62425" fill="none" stroke="#000" stroke-miterlimit="11.33858"/>
          <polyline points="833.42965 384.27778 832.36385 384.27778 832.36385 406.68283 854.76886 406.68283 854.76886 384.27778 833.42965 384.27778" fill="none" stroke="#000" stroke-miterlimit="11.33858"/>
          <polyline points="833.42965 355.93133 832.36385 355.93133 832.36385 378.33639 854.76886 378.33639 854.76886 355.93133 833.42965 355.93133" fill="none" stroke="#000" stroke-miterlimit="11.33858"/>
          <polyline points="853.70306 349.98993 854.76886 349.98993 854.76886 327.58487 832.36385 327.58487 832.36385 349.98993 853.70306 349.98993" fill="none" stroke="#000" stroke-miterlimit="11.33858"/>
          <polyline points="860.7103 348.38268 860.7103 349.72064 860.7103 349.98993 883.11532 349.98993 883.11532 327.58487 860.7103 327.58487 860.7103 348.38268" fill="none" stroke="#000" stroke-miterlimit="11.33858"/>
          <polyline points="860.7103 376.72914 860.7103 378.06709 860.7103 378.33639 883.11532 378.33639 883.11532 355.93133 860.7103 355.93133 860.7103 376.72914" fill="none" stroke="#000" stroke-miterlimit="11.33858"/>
          <polyline points="860.7103 405.63401 860.7103 406.68283 883.11532 406.68283 883.11532 384.27778 860.7103 384.27778 860.7103 405.63401" fill="none" stroke="#000" stroke-miterlimit="11.33858"/>
          <polyline points="860.7103 433.98047 860.7103 435.02929 883.11532 435.02929 883.11532 412.62425 860.7103 412.62425 860.7103 433.98047" fill="none" stroke="#000" stroke-miterlimit="11.33858"/>
          <polyline points="860.7103 462.32692 860.7103 463.37574 883.11532 463.37574 883.11532 440.9707 860.7103 440.9707 860.7103 462.32692" fill="none" stroke="#000" stroke-miterlimit="11.33858"/>
          <polyline points="860.7103 490.11495 860.7103 491.45291 860.7103 491.7222 883.11532 491.7222 883.11532 469.31716 860.7103 469.31716 860.7103 490.11495" fill="none" stroke="#000" stroke-miterlimit="11.33858"/>
          <polyline points="860.7103 518.46141 860.7103 519.79936 860.7103 520.06865 883.11532 520.06865 883.11532 497.66361 860.7103 497.66361 860.7103 518.46141" fill="none" stroke="#000" stroke-miterlimit="11.33858"/>
          <polyline points="883.11532 527.61731 883.11532 526.27936 883.11532 526.01007 860.7103 526.01007 860.7103 548.41511 883.11532 548.41511 883.11532 527.61731" fill="none" stroke="#000" stroke-miterlimit="11.33858"/>
          <polyline points="890.12256 526.01007 889.05676 526.01007 889.05676 548.41511 911.46177 548.41511 911.46177 526.01007 890.12256 526.01007" fill="none" stroke="#000" stroke-miterlimit="11.33858"/>
          <polyline points="890.12256 497.66361 889.05676 497.66361 889.05676 520.06865 911.46177 520.06865 911.46177 497.66361 890.12256 497.66361" fill="none" stroke="#000" stroke-miterlimit="11.33858"/>
          <polyline points="890.10556 469.31716 889.05676 469.31716 889.05676 491.7222 911.46177 491.7222 911.46177 469.31716 890.10556 469.31716" fill="none" stroke="#000" stroke-miterlimit="11.33858"/>
          <polyline points="890.10556 440.9707 889.05676 440.9707 889.05676 463.37574 911.46177 463.37574 911.46177 440.9707 890.10556 440.9707" fill="none" stroke="#000" stroke-miterlimit="11.33858"/>
          <polyline points="890.10556 412.62425 889.05676 412.62425 889.05676 435.02929 911.46177 435.02929 911.46177 412.62425 890.10556 412.62425" fill="none" stroke="#000" stroke-miterlimit="11.33858"/>
          <polyline points="890.12256 384.27778 889.05676 384.27778 889.05676 406.68283 911.46177 406.68283 911.46177 384.27778 890.12256 384.27778" fill="none" stroke="#000" stroke-miterlimit="11.33858"/>
          <polyline points="890.12256 355.93133 889.05676 355.93133 889.05676 378.33639 911.46177 378.33639 911.46177 355.93133 890.12256 355.93133" fill="none" stroke="#000" stroke-miterlimit="11.33858"/>
          <polyline points="910.39597 349.98993 911.46177 349.98993 911.46177 327.58487 889.05676 327.58487 889.05676 349.98993 910.39597 349.98993" fill="none" stroke="#000" stroke-miterlimit="11.33858"/>
          <polyline points="917.40321 348.38268 917.40321 349.72064 917.40321 349.98993 939.80823 349.98993 939.80823 327.58487 917.40321 327.58487 917.40321 348.38268" fill="none" stroke="#000" stroke-miterlimit="11.33858"/>
          <polyline points="917.40321 376.72914 917.40321 378.06709 917.40321 378.33639 939.80823 378.33639 939.80823 355.93133 917.40321 355.93133 917.40321 376.72914" fill="none" stroke="#000" stroke-miterlimit="11.33858"/>
          <polyline points="917.40321 405.63401 917.40321 406.68283 939.80823 406.68283 939.80823 384.27778 917.40321 384.27778 917.40321 405.63401" fill="none" stroke="#000" stroke-miterlimit="11.33858"/>
          <polyline points="917.40321 433.98047 917.40321 435.02929 939.80823 435.02929 939.80823 412.62425 917.40321 412.62425 917.40321 433.98047" fill="none" stroke="#000" stroke-miterlimit="11.33858"/>
          <polyline points="917.40321 462.32692 917.40321 463.37574 939.80823 463.37574 939.80823 440.9707 917.40321 440.9707 917.40321 462.32692" fill="none" stroke="#000" stroke-miterlimit="11.33858"/>
          <polyline points="917.40321 490.11495 917.40321 491.45291 917.40321 491.7222 939.80823 491.7222 939.80823 469.31716 917.40321 469.31716 917.40321 490.11495" fill="none" stroke="#000" stroke-miterlimit="11.33858"/>
          <polyline points="917.40321 518.46141 917.40321 519.79936 917.40321 520.06865 939.80823 520.06865 939.80823 497.66361 917.40321 497.66361 917.40321 518.46141" fill="none" stroke="#000" stroke-miterlimit="11.33858"/>
          <polyline points="939.80823 527.61731 939.80823 526.27936 939.80823 526.01007 917.40321 526.01007 917.40321 548.41511 939.80823 548.41511 939.80823 527.61731" fill="none" stroke="#000" stroke-miterlimit="11.33858"/>
          <polyline points="946.81547 526.01007 945.74967 526.01007 945.74967 548.41511 968.15468 548.41511 968.15468 526.01007 946.81547 526.01007" fill="none" stroke="#000" stroke-miterlimit="11.33858"/>
          <polyline points="946.81547 497.66361 945.74967 497.66361 945.74967 520.06865 968.15468 520.06865 968.15468 497.66361 946.81547 497.66361" fill="none" stroke="#000" stroke-miterlimit="11.33858"/>
          <polyline points="946.79847 469.31716 945.74967 469.31716 945.74967 491.7222 968.15468 491.7222 968.15468 469.31716 946.79847 469.31716" fill="none" stroke="#000" stroke-miterlimit="11.33858"/>
          <polyline points="946.79847 440.9707 945.74967 440.9707 945.74967 463.37574 968.15468 463.37574 968.15468 440.9707 946.79847 440.9707" fill="none" stroke="#000" stroke-miterlimit="11.33858"/>
          <polyline points="946.79847 412.62425 945.74967 412.62425 945.74967 435.02929 968.15468 435.02929 968.15468 412.62425 946.79847 412.62425" fill="none" stroke="#000" stroke-miterlimit="11.33858"/>
          <polyline points="946.81547 384.27778 945.74967 384.27778 945.74967 406.68283 968.15468 406.68283 968.15468 384.27778 946.81547 384.27778" fill="none" stroke="#000" stroke-miterlimit="11.33858"/>
          <polyline points="946.81547 355.93133 945.74967 355.93133 945.74967 378.33639 968.15468 378.33639 968.15468 355.93133 946.81547 355.93133" fill="none" stroke="#000" stroke-miterlimit="11.33858"/>
          <polyline points="967.08888 349.98993 968.15468 349.98993 968.15468 327.58487 945.74967 327.58487 945.74967 349.98993 967.08888 349.98993" fill="none" stroke="#000" stroke-miterlimit="11.33858"/>
          <polyline points="995.43529 349.98993 996.50114 349.98993 996.50114 327.58487 974.09612 327.58487 974.09612 349.98993 995.43529 349.98993" fill="none" stroke="#000" stroke-miterlimit="11.33858"/>
          <polyline points="1023.78175 349.98993 1024.84759 349.98993 1024.84759 327.58487 1002.44258 327.58487 1002.44258 349.98993 1023.78175 349.98993" fill="none" stroke="#000" stroke-miterlimit="11.33858"/>
          <polyline points="1052.1282 349.98993 1053.19405 349.98993 1053.19405 327.58487 1030.78903 327.58487 1030.78903 349.98993 1052.1282 349.98993" fill="none" stroke="#000" stroke-miterlimit="11.33858"/>
          <polyline points="1080.47466 349.98993 1081.5405 349.98993 1081.5405 327.58487 1059.13549 327.58487 1059.13549 349.98993 1080.47466 349.98993" fill="none" stroke="#000" stroke-miterlimit="11.33858"/>
          <polyline points="1108.82111 349.98993 1109.88696 349.98993 1109.88696 327.58487 1087.48194 327.58487 1087.48194 349.98993 1108.82111 349.98993" fill="none" stroke="#000" stroke-miterlimit="11.33858"/>
          <polyline points="1137.16757 349.98993 1138.23341 349.98993 1138.23341 327.58487 1115.8284 327.58487 1115.8284 349.98993 1137.16757 349.98993" fill="none" stroke="#000" stroke-miterlimit="11.33858"/>
          <polyline points="1144.17485 348.92408 1144.17485 349.98993 1166.57987 349.98993 1166.57987 327.58487 1144.17485 327.58487 1144.17485 348.92408" fill="none" stroke="#000" stroke-miterlimit="11.33858"/>
          <polyline points="1145.2407 355.93133 1144.17485 355.93133 1144.17485 378.33639 1166.57987 378.33639 1166.57987 355.93133 1145.2407 355.93133" fill="none" stroke="#000" stroke-miterlimit="11.33858"/>
          <polyline points="1116.89424 355.93133 1115.8284 355.93133 1115.8284 378.33639 1138.23341 378.33639 1138.23341 355.93133 1116.89424 355.93133" fill="none" stroke="#000" stroke-miterlimit="11.33858"/>
          <polyline points="1088.54779 355.93133 1087.48194 355.93133 1087.48194 378.33639 1109.88696 378.33639 1109.88696 355.93133 1088.54779 355.93133" fill="none" stroke="#000" stroke-miterlimit="11.33858"/>
          <polyline points="1060.20133 355.93133 1059.13549 355.93133 1059.13549 378.33639 1081.5405 378.33639 1081.5405 355.93133 1060.20133 355.93133" fill="none" stroke="#000" stroke-miterlimit="11.33858"/>
          <polyline points="1031.85488 355.93133 1030.78903 355.93133 1030.78903 378.33639 1053.19405 378.33639 1053.19405 355.93133 1031.85488 355.93133" fill="none" stroke="#000" stroke-miterlimit="11.33858"/>
          <polyline points="1003.50842 355.93133 1002.44258 355.93133 1002.44258 378.33639 1024.84759 378.33639 1024.84759 355.93133 1003.50842 355.93133" fill="none" stroke="#000" stroke-miterlimit="11.33858"/>
          <polyline points="995.43529 378.33639 996.50114 378.33639 996.50114 355.93133 974.09612 355.93133 974.09612 378.33639 995.43529 378.33639" fill="none" stroke="#000" stroke-miterlimit="11.33858"/>
          <polyline points="996.50114 385.34363 996.50114 384.27778 974.09612 384.27778 974.09612 406.68283 996.50114 406.68283 996.50114 385.34363" fill="none" stroke="#000" stroke-miterlimit="11.33858"/>
          <polyline points="1024.84759 385.34363 1024.84759 384.27778 1002.44258 384.27778 1002.44258 406.68283 1024.84759 406.68283 1024.84759 385.34363" fill="none" stroke="#000" stroke-miterlimit="11.33858"/>
          <polyline points="1053.19405 385.34363 1053.19405 384.27778 1030.78903 384.27778 1030.78903 406.68283 1053.19405 406.68283 1053.19405 385.34363" fill="none" stroke="#000" stroke-miterlimit="11.33858"/>
          <polyline points="1081.5405 385.34363 1081.5405 384.27778 1059.13549 384.27778 1059.13549 406.68283 1081.5405 406.68283 1081.5405 385.34363" fill="none" stroke="#000" stroke-miterlimit="11.33858"/>
          <polyline points="1109.88696 385.34363 1109.88696 384.27778 1087.48194 384.27778 1087.48194 406.68283 1109.88696 406.68283 1109.88696 385.34363" fill="none" stroke="#000" stroke-miterlimit="11.33858"/>
          <polyline points="1138.23341 385.34363 1138.23341 384.27778 1115.8284 384.27778 1115.8284 406.68283 1138.23341 406.68283 1138.23341 385.34363" fill="none" stroke="#000" stroke-miterlimit="11.33858"/>
          <polyline points="1144.17485 405.61701 1144.17485 406.68283 1166.57987 406.68283 1166.57987 384.27778 1144.17485 384.27778 1144.17485 405.61701" fill="none" stroke="#000" stroke-miterlimit="11.33858"/>
          <polyline points="1145.78206 412.62425 1144.44415 412.62425 1144.17485 412.62425 1144.17485 435.02929 1166.57987 435.02929 1166.57987 412.62425 1145.78206 412.62425" fill="none" stroke="#000" stroke-miterlimit="11.33858"/>
          <polyline points="1117.4356 412.62425 1116.09769 412.62425 1115.8284 412.62425 1115.8284 435.02929 1138.23341 435.02929 1138.23341 412.62425 1117.4356 412.62425" fill="none" stroke="#000" stroke-miterlimit="11.33858"/>
          <polyline points="1089.08915 412.62425 1087.75124 412.62425 1087.48194 412.62425 1087.48194 435.02929 1109.88696 435.02929 1109.88696 412.62425 1089.08915 412.62425" fill="none" stroke="#000" stroke-miterlimit="11.33858"/>
          <polyline points="1060.74269 412.62425 1059.40478 412.62425 1059.13549 412.62425 1059.13549 435.02929 1081.5405 435.02929 1081.5405 412.62425 1060.74269 412.62425" fill="none" stroke="#000" stroke-miterlimit="11.33858"/>
          <polyline points="1032.39624 412.62425 1031.05833 412.62425 1030.78903 412.62425 1030.78903 435.02929 1053.19405 435.02929 1053.19405 412.62425 1032.39624 412.62425" fill="none" stroke="#000" stroke-miterlimit="11.33858"/>
          <polyline points="1004.04978 412.62425 1002.71187 412.62425 1002.44258 412.62425 1002.44258 435.02929 1024.84759 435.02929 1024.84759 412.62425 1004.04978 412.62425" fill="none" stroke="#000" stroke-miterlimit="11.33858"/>
          <polyline points="994.89393 435.02929 996.23184 435.02929 996.50114 435.02929 996.50114 412.62425 974.09612 412.62425 974.09612 435.02929 994.89393 435.02929" fill="none" stroke="#000" stroke-miterlimit="11.33858"/>
          <polyline points="996.50114 442.03653 996.50114 440.9707 974.09612 440.9707 974.09612 463.37574 996.50114 463.37574 996.50114 442.03653" fill="none" stroke="#000" stroke-miterlimit="11.33858"/>
          <polyline points="1024.84759 442.03653 1024.84759 440.9707 1002.44258 440.9707 1002.44258 463.37574 1024.84759 463.37574 1024.84759 442.03653" fill="none" stroke="#000" stroke-miterlimit="11.33858"/>
          <polyline points="1053.19405 442.03653 1053.19405 440.9707 1030.78903 440.9707 1030.78903 463.37574 1053.19405 463.37574 1053.19405 442.03653" fill="none" stroke="#000" stroke-miterlimit="11.33858"/>
          <polyline points="1081.5405 442.03653 1081.5405 440.9707 1059.13549 440.9707 1059.13549 463.37574 1081.5405 463.37574 1081.5405 442.03653" fill="none" stroke="#000" stroke-miterlimit="11.33858"/>
          <polyline points="1109.88696 442.03653 1109.88696 440.9707 1087.48194 440.9707 1087.48194 463.37574 1109.88696 463.37574 1109.88696 442.03653" fill="none" stroke="#000" stroke-miterlimit="11.33858"/>
          <polyline points="1138.23341 442.03653 1138.23341 440.9707 1115.8284 440.9707 1115.8284 463.37574 1138.23341 463.37574 1138.23341 442.03653" fill="none" stroke="#000" stroke-miterlimit="11.33858"/>
          <polyline points="1144.17485 462.30992 1144.17485 463.37574 1166.57987 463.37574 1166.57987 440.9707 1144.17485 440.9707 1144.17485 462.30992" fill="none" stroke="#000" stroke-miterlimit="11.33858"/>
          <polyline points="1145.78206 469.31716 1144.44415 469.31716 1144.17485 469.31716 1144.17485 491.7222 1166.57987 491.7222 1166.57987 469.31716 1145.78206 469.31716" fill="none" stroke="#000" stroke-miterlimit="11.33858"/>
          <polyline points="1117.4356 469.31716 1116.09769 469.31716 1115.8284 469.31716 1115.8284 491.7222 1138.23341 491.7222 1138.23341 469.31716 1117.4356 469.31716" fill="none" stroke="#000" stroke-miterlimit="11.33858"/>
          <polyline points="1089.08915 469.31716 1087.75124 469.31716 1087.48194 469.31716 1087.48194 491.7222 1109.88696 491.7222 1109.88696 469.31716 1089.08915 469.31716" fill="none" stroke="#000" stroke-miterlimit="11.33858"/>
          <polyline points="1060.74269 469.31716 1059.40478 469.31716 1059.13549 469.31716 1059.13549 491.7222 1081.5405 491.7222 1081.5405 469.31716 1060.74269 469.31716" fill="none" stroke="#000" stroke-miterlimit="11.33858"/>
          <polyline points="1032.39624 469.31716 1031.05833 469.31716 1030.78903 469.31716 1030.78903 491.7222 1053.19405 491.7222 1053.19405 469.31716 1032.39624 469.31716" fill="none" stroke="#000" stroke-miterlimit="11.33858"/>
          <polyline points="1004.04978 469.31716 1002.71187 469.31716 1002.44258 469.31716 1002.44258 491.7222 1024.84759 491.7222 1024.84759 469.31716 1004.04978 469.31716" fill="none" stroke="#000" stroke-miterlimit="11.33858"/>
          <polyline points="995.43529 491.7222 996.50114 491.7222 996.50114 469.31716 974.09612 469.31716 974.09612 491.7222 995.43529 491.7222" fill="none" stroke="#000" stroke-miterlimit="11.33858"/>
          <polyline points="996.50114 498.72944 996.50114 497.66361 974.09612 497.66361 974.09612 520.06865 996.50114 520.06865 996.50114 498.72944" fill="none" stroke="#000" stroke-miterlimit="11.33858"/>
          <polyline points="1024.84759 498.72944 1024.84759 497.66361 1002.44258 497.66361 1002.44258 520.06865 1024.84759 520.06865 1024.84759 498.72944" fill="none" stroke="#000" stroke-miterlimit="11.33858"/>
          <polyline points="1053.19405 498.72944 1053.19405 497.66361 1030.78903 497.66361 1030.78903 520.06865 1053.19405 520.06865 1053.19405 498.72944" fill="none" stroke="#000" stroke-miterlimit="11.33858"/>
          <polyline points="1081.5405 498.72944 1081.5405 497.66361 1059.13549 497.66361 1059.13549 520.06865 1081.5405 520.06865 1081.5405 498.72944" fill="none" stroke="#000" stroke-miterlimit="11.33858"/>
          <polyline points="1109.88696 498.72944 1109.88696 497.66361 1087.48194 497.66361 1087.48194 520.06865 1109.88696 520.06865 1109.88696 498.72944" fill="none" stroke="#000" stroke-miterlimit="11.33858"/>
          <polyline points="1138.23341 498.72944 1138.23341 497.66361 1115.8284 497.66361 1115.8284 520.06865 1138.23341 520.06865 1138.23341 498.72944" fill="none" stroke="#000" stroke-miterlimit="11.33858"/>
          <polyline points="1144.17485 519.00283 1144.17485 520.06865 1166.57987 520.06865 1166.57987 497.66361 1144.17485 497.66361 1144.17485 519.00283" fill="none" stroke="#000" stroke-miterlimit="11.33858"/>
          <polyline points="1145.2407 526.01007 1144.17485 526.01007 1144.17485 548.41511 1166.57987 548.41511 1166.57987 526.01007 1145.2407 526.01007" fill="none" stroke="#000" stroke-miterlimit="11.33858"/>
          <polyline points="1116.89424 526.01007 1115.8284 526.01007 1115.8284 548.41511 1138.23341 548.41511 1138.23341 526.01007 1116.89424 526.01007" fill="none" stroke="#000" stroke-miterlimit="11.33858"/>
          <polyline points="1088.54779 526.01007 1087.48194 526.01007 1087.48194 548.41511 1109.88696 548.41511 1109.88696 526.01007 1088.54779 526.01007" fill="none" stroke="#000" stroke-miterlimit="11.33858"/>
          <polyline points="1060.20133 526.01007 1059.13549 526.01007 1059.13549 548.41511 1081.5405 548.41511 1081.5405 526.01007 1060.20133 526.01007" fill="none" stroke="#000" stroke-miterlimit="11.33858"/>
          <polyline points="1031.85488 526.01007 1030.78903 526.01007 1030.78903 548.41511 1053.19405 548.41511 1053.19405 526.01007 1031.85488 526.01007" fill="none" stroke="#000" stroke-miterlimit="11.33858"/>
          <polyline points="1003.50842 526.01007 1002.44258 526.01007 1002.44258 548.41511 1024.84759 548.41511 1024.84759 526.01007 1003.50842 526.01007" fill="none" stroke="#000" stroke-miterlimit="11.33858"/>
          <polyline points="974.09612 531.67936 974.09612 548.41511 996.50114 548.41511 996.50114 526.01007 974.09612 526.01007 974.09612 531.67936" fill="none" stroke="#000" stroke-miterlimit="11.33858"/>
          <polyline points="713.03659 329.19212 713.03659 327.85417 713.03659 327.58487 690.63157 327.58487 690.63157 349.98993 713.03659 349.98993 713.03659 329.19212" fill="none" stroke="#000" stroke-miterlimit="11.33858"/>
          <polyline points="436.57929 327.58487 435.51346 327.58487 435.51346 349.98993 457.91851 349.98993 457.91851 327.58487 436.57929 327.58487" fill="none" stroke="#000" stroke-miterlimit="11.33858"/>
          <polyline points="428.50622 349.98993 429.57205 349.98993 429.57205 327.58487 407.16701 327.58487 407.16701 349.98993 428.50622 349.98993" fill="none" stroke="#000" stroke-miterlimit="11.33858"/>
          <polyline points="428.50622 378.33639 429.57205 378.33639 429.57205 355.93133 407.16701 355.93133 407.16701 378.33639 428.50622 378.33639" fill="none" stroke="#000" stroke-miterlimit="11.33858"/>
          <polyline points="429.57205 385.88503 429.57205 384.54708 429.57205 384.27778 407.16701 384.27778 407.16701 406.68283 429.57205 406.68283 429.57205 385.88503" fill="none" stroke="#000" stroke-miterlimit="11.33858"/>
          <polyline points="436.57929 384.27778 435.51346 384.27778 435.51346 406.68283 457.91851 406.68283 457.91851 384.27778 436.57929 384.27778" fill="none" stroke="#000" stroke-miterlimit="11.33858"/>
          <polyline points="435.51346 376.72914 435.51346 378.06709 435.51346 378.33639 457.91851 378.33639 457.91851 355.93133 435.51346 355.93133 435.51346 376.72914" fill="none" stroke="#000" stroke-miterlimit="11.33858"/>
          <polyline points="400.15977 349.98993 401.22559 349.98993 401.22559 327.58487 378.82055 327.58487 378.82055 349.98993 400.15977 349.98993" fill="none" stroke="#000" stroke-miterlimit="11.33858"/>
          <polyline points="371.83032 406.68283 372.87914 406.68283 372.87914 384.27778 350.4741 384.27778 350.4741 406.68283 371.83032 406.68283" fill="none" stroke="#000" stroke-miterlimit="11.33858"/>
          <polyline points="371.83032 435.02929 372.87914 435.02929 372.87914 412.62425 350.4741 412.62425 350.4741 435.02929 371.83032 435.02929" fill="none" stroke="#000" stroke-miterlimit="11.33858"/>
          <polyline points="371.83032 463.37574 372.87914 463.37574 372.87914 440.9707 350.4741 440.9707 350.4741 463.37574 371.83032 463.37574" fill="none" stroke="#000" stroke-miterlimit="11.33858"/>
          <polyline points="372.87914 470.36598 372.87914 469.31716 350.4741 469.31716 350.4741 491.7222 372.87914 491.7222 372.87914 470.36598" fill="none" stroke="#000" stroke-miterlimit="11.33858"/>
          <polyline points="379.86937 469.31716 378.82055 469.31716 378.82055 491.7222 401.22559 491.7222 401.22559 469.31716 379.86937 469.31716" fill="none" stroke="#000" stroke-miterlimit="11.33858"/>
          <polyline points="400.17677 463.37574 401.22559 463.37574 401.22559 440.9707 378.82055 440.9707 378.82055 463.37574 400.17677 463.37574" fill="none" stroke="#000" stroke-miterlimit="11.33858"/>
          <polyline points="407.16701 462.32692 407.16701 463.37574 429.57205 463.37574 429.57205 440.9707 407.16701 440.9707 407.16701 462.32692" fill="none" stroke="#000" stroke-miterlimit="11.33858"/>
          <polyline points="408.21583 469.31716 407.16701 469.31716 407.16701 491.7222 429.57205 491.7222 429.57205 469.31716 408.21583 469.31716" fill="none" stroke="#000" stroke-miterlimit="11.33858"/>
          <polyline points="379.88638 497.66361 378.82055 497.66361 378.82055 520.06865 401.22559 520.06865 401.22559 497.66361 379.88638 497.66361" fill="none" stroke="#000" stroke-miterlimit="11.33858"/>
          <polyline points="372.87914 500.22613 372.87914 497.66361 350.4741 497.66361 350.4741 520.06865 372.87914 520.06865 372.87914 500.22613" fill="none" stroke="#000" stroke-miterlimit="11.33858"/>
          <polyline points="294.84701 526.01007 293.78119 526.01007 293.78119 548.41511 316.18623 548.41511 316.18623 526.01007 294.84701 526.01007" fill="none" stroke="#000" stroke-miterlimit="11.33858"/>
          <polyline points="287.83977 527.61731 287.83977 526.27936 287.83977 526.01007 265.43473 526.01007 265.43473 548.41511 287.83977 548.41511 287.83977 527.61731" fill="none" stroke="#000" stroke-miterlimit="11.33858"/>
          <polyline points="286.77395 520.06865 287.83977 520.06865 287.83977 497.66361 265.43473 497.66361 265.43473 520.06865 286.77395 520.06865" fill="none" stroke="#000" stroke-miterlimit="11.33858"/>
          <polyline points="293.78119 518.46141 293.78119 519.79936 293.78119 520.06865 316.18623 520.06865 316.18623 497.66361 293.78119 497.66361 293.78119 518.46141" fill="none" stroke="#000" stroke-miterlimit="11.33858"/>
          <rect x="595.5918" y="-22.57324" width="240.83154" height="921.14697" transform="translate(1154.00781 -278.00732) rotate(90)" fill="none" stroke="red" stroke-miterlimit="11.33858"/>
        </g>
      </g>
    </g>
  </g>
</svg>