<?xml version="1.0" encoding="UTF-8"?>
<svg id="Layer_1" xmlns="http://www.w3.org/2000/svg" width="325.313mm" height="85.313mm" viewBox="0 0 922.147 241.832">
  <g id="Layer_1-2" data-name="Layer_1">
    <g id="global-translation-frame">
      <g id="opperation-1">
        <polyline points="173.572 202.984 174.638 202.984 174.638 180.579 152.233 180.579 152.233 202.984 173.572 202.984" fill="none" stroke="#000" stroke-miterlimit="11.339"/>
        <polyline points="201.919 202.984 202.984 202.984 202.984 180.579 180.579 180.579 180.579 202.984 201.919 202.984" fill="none" stroke="#000" stroke-miterlimit="11.339"/>
        <polyline points="230.265 202.984 231.331 202.984 231.331 180.579 208.926 180.579 208.926 202.984 230.265 202.984" fill="none" stroke="#000" stroke-miterlimit="11.339"/>
        <polyline points="258.612 202.984 259.677 202.984 259.677 180.579 237.272 180.579 237.272 202.984 258.612 202.984" fill="none" stroke="#000" stroke-miterlimit="11.339"/>
        <polyline points="286.958 202.984 288.024 202.984 288.024 180.579 265.619 180.579 265.619 202.984 286.958 202.984" fill="none" stroke="#000" stroke-miterlimit="11.339"/>
        <polyline points="315.304 202.984 316.37 202.984 316.37 180.579 293.965 180.579 293.965 202.984 315.304 202.984" fill="none" stroke="#000" stroke-miterlimit="11.339"/>
        <polyline points="343.651 202.984 344.717 202.984 344.717 180.579 322.312 180.579 322.312 202.984 343.651 202.984" fill="none" stroke="#000" stroke-miterlimit="11.339"/>
        <polyline points="350.658 201.918 350.658 202.984 373.063 202.984 373.063 180.579 350.658 180.579 350.658 201.918" fill="none" stroke="#000" stroke-miterlimit="11.339"/>
        <polyline points="351.724 208.926 350.658 208.926 350.658 231.331 373.063 231.331 373.063 208.926 351.724 208.926" fill="none" stroke="#000" stroke-miterlimit="11.339"/>
        <polyline points="323.378 208.926 322.312 208.926 322.312 231.331 344.717 231.331 344.717 208.926 323.378 208.926" fill="none" stroke="#000" stroke-miterlimit="11.339"/>
        <polyline points="295.031 208.926 293.965 208.926 293.965 231.331 316.37 231.331 316.37 208.926 295.031 208.926" fill="none" stroke="#000" stroke-miterlimit="11.339"/>
        <polyline points="266.685 208.926 265.619 208.926 265.619 231.331 288.024 231.331 288.024 208.926 266.685 208.926" fill="none" stroke="#000" stroke-miterlimit="11.339"/>
        <polyline points="238.338 208.926 237.272 208.926 237.272 231.331 259.677 231.331 259.677 208.926 238.338 208.926" fill="none" stroke="#000" stroke-miterlimit="11.339"/>
        <polyline points="209.992 208.926 208.926 208.926 208.926 231.331 231.331 231.331 231.331 208.926 209.992 208.926" fill="none" stroke="#000" stroke-miterlimit="11.339"/>
        <polyline points="181.645 208.926 180.579 208.926 180.579 231.331 202.984 231.331 202.984 208.926 181.645 208.926" fill="none" stroke="#000" stroke-miterlimit="11.339"/>
        <polyline points="153.299 208.926 152.233 208.926 152.233 231.331 174.638 231.331 174.638 208.926 153.299 208.926" fill="none" stroke="#000" stroke-miterlimit="11.339"/>
        <polyline points="124.952 208.926 123.886 208.926 123.886 231.331 146.292 231.331 146.292 208.926 124.952 208.926" fill="none" stroke="#000" stroke-miterlimit="11.339"/>
        <polyline points="96.606 208.926 95.54 208.926 95.54 231.331 117.945 231.331 117.945 208.926 96.606 208.926" fill="none" stroke="#000" stroke-miterlimit="11.339"/>
        <polyline points="89.599 209.991 89.599 208.926 67.194 208.926 67.194 231.331 89.599 231.331 89.599 209.991" fill="none" stroke="#000" stroke-miterlimit="11.339"/>
        <polyline points="89.599 181.645 89.599 180.579 67.194 180.579 67.194 202.984 89.599 202.984 89.599 181.645" fill="none" stroke="#000" stroke-miterlimit="11.339"/>
        <polyline points="89.599 153.298 89.599 152.233 67.194 152.233 67.194 174.638 89.599 174.638 89.599 153.298" fill="none" stroke="#000" stroke-miterlimit="11.339"/>
        <polyline points="89.599 124.952 89.599 123.886 67.194 123.886 67.194 146.291 89.599 146.291 89.599 124.952" fill="none" stroke="#000" stroke-miterlimit="11.339"/>
        <polyline points="89.599 96.606 89.599 95.54 67.194 95.54 67.194 117.945 89.599 117.945 89.599 96.606" fill="none" stroke="#000" stroke-miterlimit="11.339"/>
        <polyline points="89.599 68.259 89.599 67.193 67.194 67.193 67.194 89.598 89.599 89.598 89.599 68.259" fill="none" stroke="#000" stroke-miterlimit="11.339"/>
        <polyline points="89.599 39.913 89.599 38.847 67.194 38.847 67.194 61.252 89.599 61.252 89.599 39.913" fill="none" stroke="#000" stroke-miterlimit="11.339"/>
        <polyline points="67.194 31.84 67.194 32.905 89.599 32.905 89.599 10.5 67.194 10.5 67.194 31.84" fill="none" stroke="#000" stroke-miterlimit="11.339"/>
        <polyline points="60.186 32.905 61.252 32.905 61.252 10.5 38.847 10.5 38.847 32.905 60.186 32.905" fill="none" stroke="#000" stroke-miterlimit="11.339"/>
        <polyline points="60.186 61.252 61.252 61.252 61.252 38.847 38.847 38.847 38.847 61.252 60.186 61.252" fill="none" stroke="#000" stroke-miterlimit="11.339"/>
        <polyline points="59.645 89.598 60.983 89.598 61.252 89.598 61.252 67.193 38.847 67.193 38.847 89.598 59.645 89.598" fill="none" stroke="#000" stroke-miterlimit="11.339"/>
        <polyline points="59.645 117.945 60.983 117.945 61.252 117.945 61.252 95.54 38.847 95.54 38.847 117.945 59.645 117.945" fill="none" stroke="#000" stroke-miterlimit="11.339"/>
        <polyline points="59.645 146.291 60.983 146.291 61.252 146.291 61.252 123.886 38.847 123.886 38.847 146.291 59.645 146.291" fill="none" stroke="#000" stroke-miterlimit="11.339"/>
        <polyline points="39.896 152.233 38.847 152.233 38.847 174.638 61.252 174.638 61.252 152.233 39.896 152.233" fill="none" stroke="#000" stroke-miterlimit="11.339"/>
        <polyline points="32.906 153.281 32.906 152.233 10.501 152.233 10.501 174.638 32.906 174.638 32.906 153.281" fill="none" stroke="#000" stroke-miterlimit="11.339"/>
        <polyline points="32.906 124.935 32.906 123.886 10.501 123.886 10.501 146.291 32.906 146.291 32.906 124.935" fill="none" stroke="#000" stroke-miterlimit="11.339"/>
        <polyline points="32.906 96.589 32.906 95.54 10.501 95.54 10.501 117.945 32.906 117.945 32.906 96.589" fill="none" stroke="#000" stroke-miterlimit="11.339"/>
        <polyline points="32.906 68.801 32.906 67.463 32.906 67.193 10.501 67.193 10.501 89.598 32.906 89.598 32.906 68.801" fill="none" stroke="#000" stroke-miterlimit="11.339"/>
        <polyline points="32.906 40.454 32.906 39.116 32.906 38.847 10.501 38.847 10.501 61.252 32.906 61.252 32.906 40.454" fill="none" stroke="#000" stroke-miterlimit="11.339"/>
        <polyline points="31.84 32.905 32.906 32.905 32.906 10.5 10.501 10.5 10.501 32.905 31.84 32.905" fill="none" stroke="#000" stroke-miterlimit="11.339"/>
        <polyline points="95.54 31.84 95.54 32.905 117.945 32.905 117.945 10.5 95.54 10.5 95.54 31.84" fill="none" stroke="#000" stroke-miterlimit="11.339"/>
        <polyline points="117.945 40.454 117.945 39.116 117.945 38.847 95.54 38.847 95.54 61.252 117.945 61.252 117.945 40.454" fill="none" stroke="#000" stroke-miterlimit="11.339"/>
        <polyline points="123.886 59.645 123.886 60.983 123.886 61.252 146.292 61.252 146.292 38.847 123.886 38.847 123.886 59.645" fill="none" stroke="#000" stroke-miterlimit="11.339"/>
        <polyline points="123.886 88.55 123.886 89.598 146.292 89.598 146.292 67.193 123.886 67.193 123.886 88.55" fill="none" stroke="#000" stroke-miterlimit="11.339"/>
        <polyline points="146.292 96.589 146.292 95.54 123.886 95.54 123.886 117.945 146.292 117.945 146.292 96.589" fill="none" stroke="#000" stroke-miterlimit="11.339"/>
        <polyline points="174.638 96.589 174.638 95.54 152.233 95.54 152.233 117.945 174.638 117.945 174.638 96.589" fill="none" stroke="#000" stroke-miterlimit="11.339"/>
        <polyline points="180.579 116.896 180.579 117.945 202.984 117.945 202.984 95.54 180.579 95.54 180.579 116.896" fill="none" stroke="#000" stroke-miterlimit="11.339"/>
        <polyline points="180.579 145.242 180.579 146.291 202.984 146.291 202.984 123.886 180.579 123.886 180.579 145.242" fill="none" stroke="#000" stroke-miterlimit="11.339"/>
        <polyline points="202.984 153.298 202.984 152.233 180.579 152.233 180.579 174.638 202.984 174.638 202.984 153.298" fill="none" stroke="#000" stroke-miterlimit="11.339"/>
        <polyline points="210.533 152.233 209.195 152.233 208.926 152.233 208.926 174.638 231.331 174.638 231.331 152.233 210.533 152.233" fill="none" stroke="#000" stroke-miterlimit="11.339"/>
        <polyline points="210.533 123.886 209.195 123.886 208.926 123.886 208.926 146.291 231.331 146.291 231.331 123.886 210.533 123.886" fill="none" stroke="#000" stroke-miterlimit="11.339"/>
        <polyline points="210.533 95.54 209.195 95.54 208.926 95.54 208.926 117.945 231.331 117.945 231.331 95.54 210.533 95.54" fill="none" stroke="#000" stroke-miterlimit="11.339"/>
        <polyline points="209.992 67.193 208.926 67.193 208.926 89.598 231.331 89.598 231.331 67.193 209.992 67.193" fill="none" stroke="#000" stroke-miterlimit="11.339"/>
        <polyline points="230.265 61.252 231.331 61.252 231.331 38.847 208.926 38.847 208.926 61.252 230.265 61.252" fill="none" stroke="#000" stroke-miterlimit="11.339"/>
        <polyline points="258.612 61.252 259.677 61.252 259.677 38.847 237.272 38.847 237.272 61.252 258.612 61.252" fill="none" stroke="#000" stroke-miterlimit="11.339"/>
        <polyline points="265.619 60.186 265.619 61.252 288.024 61.252 288.024 38.847 265.619 38.847 265.619 60.186" fill="none" stroke="#000" stroke-miterlimit="11.339"/>
        <polyline points="265.619 88.533 265.619 89.598 288.024 89.598 288.024 67.193 265.619 67.193 265.619 88.533" fill="none" stroke="#000" stroke-miterlimit="11.339"/>
        <polyline points="265.619 116.879 265.619 117.945 288.024 117.945 288.024 95.54 265.619 95.54 265.619 116.879" fill="none" stroke="#000" stroke-miterlimit="11.339"/>
        <polyline points="267.226 123.886 265.888 123.886 265.619 123.886 265.619 146.291 288.024 146.291 288.024 123.886 267.226 123.886" fill="none" stroke="#000" stroke-miterlimit="11.339"/>
        <polyline points="259.677 124.952 259.677 123.886 237.272 123.886 237.272 146.291 259.677 146.291 259.677 124.952" fill="none" stroke="#000" stroke-miterlimit="11.339"/>
        <polyline points="259.677 96.606 259.677 95.54 237.272 95.54 237.272 117.945 259.677 117.945 259.677 96.606" fill="none" stroke="#000" stroke-miterlimit="11.339"/>
        <polyline points="257.115 89.598 259.677 89.598 259.677 67.193 237.272 67.193 237.272 89.598 257.115 89.598" fill="none" stroke="#000" stroke-miterlimit="11.339"/>
        <polyline points="230.265 32.905 231.331 32.905 231.331 10.5 208.926 10.5 208.926 32.905 230.265 32.905" fill="none" stroke="#000" stroke-miterlimit="11.339"/>
        <polyline points="258.612 32.905 259.677 32.905 259.677 10.5 237.272 10.5 237.272 32.905 258.612 32.905" fill="none" stroke="#000" stroke-miterlimit="11.339"/>
        <polyline points="286.958 32.905 288.024 32.905 288.024 10.5 265.619 10.5 265.619 32.905 286.958 32.905" fill="none" stroke="#000" stroke-miterlimit="11.339"/>
        <polyline points="315.304 32.905 316.37 32.905 316.37 10.5 293.965 10.5 293.965 32.905 315.304 32.905" fill="none" stroke="#000" stroke-miterlimit="11.339"/>
        <polyline points="343.651 32.905 344.717 32.905 344.717 10.5 322.312 10.5 322.312 32.905 343.651 32.905" fill="none" stroke="#000" stroke-miterlimit="11.339"/>
        <polyline points="350.658 31.84 350.658 32.905 373.063 32.905 373.063 10.5 350.658 10.5 350.658 31.84" fill="none" stroke="#000" stroke-miterlimit="11.339"/>
        <polyline points="351.724 38.847 350.658 38.847 350.658 61.252 373.063 61.252 373.063 38.847 351.724 38.847" fill="none" stroke="#000" stroke-miterlimit="11.339"/>
        <polyline points="343.651 61.252 344.717 61.252 344.717 38.847 322.312 38.847 322.312 61.252 343.651 61.252" fill="none" stroke="#000" stroke-miterlimit="11.339"/>
        <polyline points="343.109 89.598 344.447 89.598 344.717 89.598 344.717 67.193 322.312 67.193 322.312 89.598 343.109 89.598" fill="none" stroke="#000" stroke-miterlimit="11.339"/>
        <polyline points="343.109 117.945 344.447 117.945 344.717 117.945 344.717 95.54 322.312 95.54 322.312 117.945 343.109 117.945" fill="none" stroke="#000" stroke-miterlimit="11.339"/>
        <polyline points="344.717 124.952 344.717 123.886 322.312 123.886 322.312 146.291 344.717 146.291 344.717 124.952" fill="none" stroke="#000" stroke-miterlimit="11.339"/>
        <polyline points="350.658 145.225 350.658 146.291 373.063 146.291 373.063 123.886 350.658 123.886 350.658 145.225" fill="none" stroke="#000" stroke-miterlimit="11.339"/>
        <polyline points="352.265 152.233 350.927 152.233 350.658 152.233 350.658 174.638 373.063 174.638 373.063 152.233 352.265 152.233" fill="none" stroke="#000" stroke-miterlimit="11.339"/>
        <polyline points="323.919 152.233 322.581 152.233 322.312 152.233 322.312 174.638 344.717 174.638 344.717 152.233 323.919 152.233" fill="none" stroke="#000" stroke-miterlimit="11.339"/>
        <polyline points="295.572 152.233 294.234 152.233 293.965 152.233 293.965 174.638 316.37 174.638 316.37 152.233 295.572 152.233" fill="none" stroke="#000" stroke-miterlimit="11.339"/>
        <polyline points="267.226 152.233 265.888 152.233 265.619 152.233 265.619 174.638 288.024 174.638 288.024 152.233 267.226 152.233" fill="none" stroke="#000" stroke-miterlimit="11.339"/>
        <polyline points="259.677 153.298 259.677 152.233 237.272 152.233 237.272 174.638 259.677 174.638 259.677 153.298" fill="none" stroke="#000" stroke-miterlimit="11.339"/>
        <polyline points="295.572 123.886 294.234 123.886 293.965 123.886 293.965 146.291 316.37 146.291 316.37 123.886 295.572 123.886" fill="none" stroke="#000" stroke-miterlimit="11.339"/>
        <polyline points="295.572 95.54 294.234 95.54 293.965 95.54 293.965 117.945 316.37 117.945 316.37 95.54 295.572 95.54" fill="none" stroke="#000" stroke-miterlimit="11.339"/>
        <polyline points="295.031 67.193 293.965 67.193 293.965 89.598 316.37 89.598 316.37 67.193 295.031 67.193" fill="none" stroke="#000" stroke-miterlimit="11.339"/>
        <polyline points="315.304 61.252 316.37 61.252 316.37 38.847 293.965 38.847 293.965 61.252 315.304 61.252" fill="none" stroke="#000" stroke-miterlimit="11.339"/>
        <polyline points="350.658 88.533 350.658 89.598 373.063 89.598 373.063 67.193 350.658 67.193 350.658 88.533" fill="none" stroke="#000" stroke-miterlimit="11.339"/>
        <polyline points="373.063 96.589 373.063 95.54 350.658 95.54 350.658 117.945 373.063 117.945 373.063 96.589" fill="none" stroke="#000" stroke-miterlimit="11.339"/>
        <polyline points="379.005 116.896 379.005 117.945 401.41 117.945 401.41 95.54 379.005 95.54 379.005 116.896" fill="none" stroke="#000" stroke-miterlimit="11.339"/>
        <polyline points="379.005 145.242 379.005 146.291 401.41 146.291 401.41 123.886 379.005 123.886 379.005 145.242" fill="none" stroke="#000" stroke-miterlimit="11.339"/>
        <polyline points="379.005 173.03 379.005 174.368 379.005 174.638 401.41 174.638 401.41 152.233 379.005 152.233 379.005 173.03" fill="none" stroke="#000" stroke-miterlimit="11.339"/>
        <polyline points="379.005 201.377 379.005 202.715 379.005 202.984 401.41 202.984 401.41 180.579 379.005 180.579 379.005 201.377" fill="none" stroke="#000" stroke-miterlimit="11.339"/>
        <polyline points="401.41 210.533 401.41 209.195 401.41 208.926 379.005 208.926 379.005 231.331 401.41 231.331 401.41 210.533" fill="none" stroke="#000" stroke-miterlimit="11.339"/>
        <polyline points="408.417 208.926 407.351 208.926 407.351 231.331 429.756 231.331 429.756 208.926 408.417 208.926" fill="none" stroke="#000" stroke-miterlimit="11.339"/>
        <polyline points="408.417 180.579 407.351 180.579 407.351 202.984 429.756 202.984 429.756 180.579 408.417 180.579" fill="none" stroke="#000" stroke-miterlimit="11.339"/>
        <polyline points="408.4 152.233 407.351 152.233 407.351 174.638 429.756 174.638 429.756 152.233 408.4 152.233" fill="none" stroke="#000" stroke-miterlimit="11.339"/>
        <polyline points="408.4 123.886 407.351 123.886 407.351 146.291 429.756 146.291 429.756 123.886 408.4 123.886" fill="none" stroke="#000" stroke-miterlimit="11.339"/>
        <polyline points="408.4 95.54 407.351 95.54 407.351 117.945 429.756 117.945 429.756 95.54 408.4 95.54" fill="none" stroke="#000" stroke-miterlimit="11.339"/>
        <polyline points="408.417 67.193 407.351 67.193 407.351 89.598 429.756 89.598 429.756 67.193 408.417 67.193" fill="none" stroke="#000" stroke-miterlimit="11.339"/>
        <polyline points="408.417 38.847 407.351 38.847 407.351 61.252 429.756 61.252 429.756 38.847 408.417 38.847" fill="none" stroke="#000" stroke-miterlimit="11.339"/>
        <polyline points="407.351 31.298 407.351 32.636 407.351 32.905 429.756 32.905 429.756 10.5 407.351 10.5 407.351 31.298" fill="none" stroke="#000" stroke-miterlimit="11.339"/>
        <polyline points="400.344 32.905 401.41 32.905 401.41 10.5 379.005 10.5 379.005 32.905 400.344 32.905" fill="none" stroke="#000" stroke-miterlimit="11.339"/>
        <polyline points="400.344 61.252 401.41 61.252 401.41 38.847 379.005 38.847 379.005 61.252 400.344 61.252" fill="none" stroke="#000" stroke-miterlimit="11.339"/>
        <polyline points="401.41 68.801 401.41 67.463 401.41 67.193 379.005 67.193 379.005 89.598 401.41 89.598 401.41 68.801" fill="none" stroke="#000" stroke-miterlimit="11.339"/>
        <polyline points="435.698 59.645 435.698 60.983 435.698 61.252 458.102 61.252 458.102 38.847 435.698 38.847 435.698 59.645" fill="none" stroke="#000" stroke-miterlimit="11.339"/>
        <polyline points="435.698 88.55 435.698 89.598 458.102 89.598 458.102 67.193 435.698 67.193 435.698 88.55" fill="none" stroke="#000" stroke-miterlimit="11.339"/>
        <polyline points="435.698 116.896 435.698 117.945 458.102 117.945 458.102 95.54 435.698 95.54 435.698 116.896" fill="none" stroke="#000" stroke-miterlimit="11.339"/>
        <polyline points="435.698 145.242 435.698 146.291 458.102 146.291 458.102 123.886 435.698 123.886 435.698 145.242" fill="none" stroke="#000" stroke-miterlimit="11.339"/>
        <polyline points="435.698 173.03 435.698 174.368 435.698 174.638 458.102 174.638 458.102 152.233 435.698 152.233 435.698 173.03" fill="none" stroke="#000" stroke-miterlimit="11.339"/>
        <polyline points="435.698 201.377 435.698 202.715 435.698 202.984 458.102 202.984 458.102 180.579 435.698 180.579 435.698 201.377" fill="none" stroke="#000" stroke-miterlimit="11.339"/>
        <polyline points="458.102 210.533 458.102 209.195 458.102 208.926 435.698 208.926 435.698 231.331 458.102 231.331 458.102 210.533" fill="none" stroke="#000" stroke-miterlimit="11.339"/>
        <polyline points="465.11 208.926 464.044 208.926 464.044 231.331 486.449 231.331 486.449 208.926 465.11 208.926" fill="none" stroke="#000" stroke-miterlimit="11.339"/>
        <polyline points="465.11 180.579 464.044 180.579 464.044 202.984 486.449 202.984 486.449 180.579 465.11 180.579" fill="none" stroke="#000" stroke-miterlimit="11.339"/>
        <polyline points="465.093 152.233 464.044 152.233 464.044 174.638 486.449 174.638 486.449 152.233 465.093 152.233" fill="none" stroke="#000" stroke-miterlimit="11.339"/>
        <polyline points="465.093 123.886 464.044 123.886 464.044 146.291 486.449 146.291 486.449 123.886 465.093 123.886" fill="none" stroke="#000" stroke-miterlimit="11.339"/>
        <polyline points="465.093 95.54 464.044 95.54 464.044 117.945 486.449 117.945 486.449 95.54 465.093 95.54" fill="none" stroke="#000" stroke-miterlimit="11.339"/>
        <polyline points="465.11 67.193 464.044 67.193 464.044 89.598 486.449 89.598 486.449 67.193 465.11 67.193" fill="none" stroke="#000" stroke-miterlimit="11.339"/>
        <polyline points="465.11 38.847 464.044 38.847 464.044 61.252 486.449 61.252 486.449 38.847 465.11 38.847" fill="none" stroke="#000" stroke-miterlimit="11.339"/>
        <polyline points="485.383 32.905 486.449 32.905 486.449 10.5 464.044 10.5 464.044 32.905 485.383 32.905" fill="none" stroke="#000" stroke-miterlimit="11.339"/>
        <polyline points="492.39 31.298 492.39 32.636 492.39 32.905 514.795 32.905 514.795 10.5 492.39 10.5 492.39 31.298" fill="none" stroke="#000" stroke-miterlimit="11.339"/>
        <polyline points="492.39 59.645 492.39 60.983 492.39 61.252 514.795 61.252 514.795 38.847 492.39 38.847 492.39 59.645" fill="none" stroke="#000" stroke-miterlimit="11.339"/>
        <polyline points="492.39 88.55 492.39 89.598 514.795 89.598 514.795 67.193 492.39 67.193 492.39 88.55" fill="none" stroke="#000" stroke-miterlimit="11.339"/>
        <polyline points="492.39 116.896 492.39 117.945 514.795 117.945 514.795 95.54 492.39 95.54 492.39 116.896" fill="none" stroke="#000" stroke-miterlimit="11.339"/>
        <polyline points="492.39 145.242 492.39 146.291 514.795 146.291 514.795 123.886 492.39 123.886 492.39 145.242" fill="none" stroke="#000" stroke-miterlimit="11.339"/>
        <polyline points="492.39 173.03 492.39 174.368 492.39 174.638 514.795 174.638 514.795 152.233 492.39 152.233 492.39 173.03" fill="none" stroke="#000" stroke-miterlimit="11.339"/>
        <polyline points="492.39 201.377 492.39 202.715 492.39 202.984 514.795 202.984 514.795 180.579 492.39 180.579 492.39 201.377" fill="none" stroke="#000" stroke-miterlimit="11.339"/>
        <polyline points="514.795 210.533 514.795 209.195 514.795 208.926 492.39 208.926 492.39 231.331 514.795 231.331 514.795 210.533" fill="none" stroke="#000" stroke-miterlimit="11.339"/>
        <polyline points="521.803 208.926 520.737 208.926 520.737 231.331 543.142 231.331 543.142 208.926 521.803 208.926" fill="none" stroke="#000" stroke-miterlimit="11.339"/>
        <polyline points="521.803 180.579 520.737 180.579 520.737 202.984 543.142 202.984 543.142 180.579 521.803 180.579" fill="none" stroke="#000" stroke-miterlimit="11.339"/>
        <polyline points="521.786 152.233 520.737 152.233 520.737 174.638 543.142 174.638 543.142 152.233 521.786 152.233" fill="none" stroke="#000" stroke-miterlimit="11.339"/>
        <polyline points="521.786 123.886 520.737 123.886 520.737 146.291 543.142 146.291 543.142 123.886 521.786 123.886" fill="none" stroke="#000" stroke-miterlimit="11.339"/>
        <polyline points="521.786 95.54 520.737 95.54 520.737 117.945 543.142 117.945 543.142 95.54 521.786 95.54" fill="none" stroke="#000" stroke-miterlimit="11.339"/>
        <polyline points="521.803 67.193 520.737 67.193 520.737 89.598 543.142 89.598 543.142 67.193 521.803 67.193" fill="none" stroke="#000" stroke-miterlimit="11.339"/>
        <polyline points="521.803 38.847 520.737 38.847 520.737 61.252 543.142 61.252 543.142 38.847 521.803 38.847" fill="none" stroke="#000" stroke-miterlimit="11.339"/>
        <polyline points="542.076 32.905 543.142 32.905 543.142 10.5 520.737 10.5 520.737 32.905 542.076 32.905" fill="none" stroke="#000" stroke-miterlimit="11.339"/>
        <polyline points="549.083 31.298 549.083 32.636 549.083 32.905 571.488 32.905 571.488 10.5 549.083 10.5 549.083 31.298" fill="none" stroke="#000" stroke-miterlimit="11.339"/>
        <polyline points="549.083 59.645 549.083 60.983 549.083 61.252 571.488 61.252 571.488 38.847 549.083 38.847 549.083 59.645" fill="none" stroke="#000" stroke-miterlimit="11.339"/>
        <polyline points="549.083 88.55 549.083 89.598 571.488 89.598 571.488 67.193 549.083 67.193 549.083 88.55" fill="none" stroke="#000" stroke-miterlimit="11.339"/>
        <polyline points="549.083 116.896 549.083 117.945 571.488 117.945 571.488 95.54 549.083 95.54 549.083 116.896" fill="none" stroke="#000" stroke-miterlimit="11.339"/>
        <polyline points="549.083 145.242 549.083 146.291 571.488 146.291 571.488 123.886 549.083 123.886 549.083 145.242" fill="none" stroke="#000" stroke-miterlimit="11.339"/>
        <polyline points="549.083 173.03 549.083 174.368 549.083 174.638 571.488 174.638 571.488 152.233 549.083 152.233 549.083 173.03" fill="none" stroke="#000" stroke-miterlimit="11.339"/>
        <polyline points="549.083 201.377 549.083 202.715 549.083 202.984 571.488 202.984 571.488 180.579 549.083 180.579 549.083 201.377" fill="none" stroke="#000" stroke-miterlimit="11.339"/>
        <polyline points="571.488 210.533 571.488 209.195 571.488 208.926 549.083 208.926 549.083 231.331 571.488 231.331 571.488 210.533" fill="none" stroke="#000" stroke-miterlimit="11.339"/>
        <polyline points="578.496 208.926 577.43 208.926 577.43 231.331 599.835 231.331 599.835 208.926 578.496 208.926" fill="none" stroke="#000" stroke-miterlimit="11.339"/>
        <polyline points="578.496 180.579 577.43 180.579 577.43 202.984 599.835 202.984 599.835 180.579 578.496 180.579" fill="none" stroke="#000" stroke-miterlimit="11.339"/>
        <polyline points="578.479 152.233 577.43 152.233 577.43 174.638 599.835 174.638 599.835 152.233 578.479 152.233" fill="none" stroke="#000" stroke-miterlimit="11.339"/>
        <polyline points="578.479 123.886 577.43 123.886 577.43 146.291 599.835 146.291 599.835 123.886 578.479 123.886" fill="none" stroke="#000" stroke-miterlimit="11.339"/>
        <polyline points="578.479 95.54 577.43 95.54 577.43 117.945 599.835 117.945 599.835 95.54 578.479 95.54" fill="none" stroke="#000" stroke-miterlimit="11.339"/>
        <polyline points="578.496 67.193 577.43 67.193 577.43 89.598 599.835 89.598 599.835 67.193 578.496 67.193" fill="none" stroke="#000" stroke-miterlimit="11.339"/>
        <polyline points="578.496 38.847 577.43 38.847 577.43 61.252 599.835 61.252 599.835 38.847 578.496 38.847" fill="none" stroke="#000" stroke-miterlimit="11.339"/>
        <polyline points="598.769 32.905 599.835 32.905 599.835 10.5 577.43 10.5 577.43 32.905 598.769 32.905" fill="none" stroke="#000" stroke-miterlimit="11.339"/>
        <polyline points="605.776 31.298 605.776 32.636 605.776 32.905 628.181 32.905 628.181 10.5 605.776 10.5 605.776 31.298" fill="none" stroke="#000" stroke-miterlimit="11.339"/>
        <polyline points="605.776 59.645 605.776 60.983 605.776 61.252 628.181 61.252 628.181 38.847 605.776 38.847 605.776 59.645" fill="none" stroke="#000" stroke-miterlimit="11.339"/>
        <polyline points="605.776 88.55 605.776 89.598 628.181 89.598 628.181 67.193 605.776 67.193 605.776 88.55" fill="none" stroke="#000" stroke-miterlimit="11.339"/>
        <polyline points="605.776 116.896 605.776 117.945 628.181 117.945 628.181 95.54 605.776 95.54 605.776 116.896" fill="none" stroke="#000" stroke-miterlimit="11.339"/>
        <polyline points="605.776 145.242 605.776 146.291 628.181 146.291 628.181 123.886 605.776 123.886 605.776 145.242" fill="none" stroke="#000" stroke-miterlimit="11.339"/>
        <polyline points="605.776 173.03 605.776 174.368 605.776 174.638 628.181 174.638 628.181 152.233 605.776 152.233 605.776 173.03" fill="none" stroke="#000" stroke-miterlimit="11.339"/>
        <polyline points="605.776 201.377 605.776 202.715 605.776 202.984 628.181 202.984 628.181 180.579 605.776 180.579 605.776 201.377" fill="none" stroke="#000" stroke-miterlimit="11.339"/>
        <polyline points="628.181 210.533 628.181 209.195 628.181 208.926 605.776 208.926 605.776 231.331 628.181 231.331 628.181 210.533" fill="none" stroke="#000" stroke-miterlimit="11.339"/>
        <polyline points="635.188 208.926 634.123 208.926 634.123 231.331 656.528 231.331 656.528 208.926 635.188 208.926" fill="none" stroke="#000" stroke-miterlimit="11.339"/>
        <polyline points="635.188 180.579 634.123 180.579 634.123 202.984 656.528 202.984 656.528 180.579 635.188 180.579" fill="none" stroke="#000" stroke-miterlimit="11.339"/>
        <polyline points="635.171 152.233 634.123 152.233 634.123 174.638 656.528 174.638 656.528 152.233 635.171 152.233" fill="none" stroke="#000" stroke-miterlimit="11.339"/>
        <polyline points="635.171 123.886 634.123 123.886 634.123 146.291 656.528 146.291 656.528 123.886 635.171 123.886" fill="none" stroke="#000" stroke-miterlimit="11.339"/>
        <polyline points="635.171 95.54 634.123 95.54 634.123 117.945 656.528 117.945 656.528 95.54 635.171 95.54" fill="none" stroke="#000" stroke-miterlimit="11.339"/>
        <polyline points="635.188 67.193 634.123 67.193 634.123 89.598 656.528 89.598 656.528 67.193 635.188 67.193" fill="none" stroke="#000" stroke-miterlimit="11.339"/>
        <polyline points="635.188 38.847 634.123 38.847 634.123 61.252 656.528 61.252 656.528 38.847 635.188 38.847" fill="none" stroke="#000" stroke-miterlimit="11.339"/>
        <polyline points="655.462 32.905 656.528 32.905 656.528 10.5 634.123 10.5 634.123 32.905 655.462 32.905" fill="none" stroke="#000" stroke-miterlimit="11.339"/>
        <polyline points="662.469 31.298 662.469 32.636 662.469 32.905 684.874 32.905 684.874 10.5 662.469 10.5 662.469 31.298" fill="none" stroke="#000" stroke-miterlimit="11.339"/>
        <polyline points="662.469 59.645 662.469 60.983 662.469 61.252 684.874 61.252 684.874 38.847 662.469 38.847 662.469 59.645" fill="none" stroke="#000" stroke-miterlimit="11.339"/>
        <polyline points="662.469 88.55 662.469 89.598 684.874 89.598 684.874 67.193 662.469 67.193 662.469 88.55" fill="none" stroke="#000" stroke-miterlimit="11.339"/>
        <polyline points="662.469 116.896 662.469 117.945 684.874 117.945 684.874 95.54 662.469 95.54 662.469 116.896" fill="none" stroke="#000" stroke-miterlimit="11.339"/>
        <polyline points="662.469 145.242 662.469 146.291 684.874 146.291 684.874 123.886 662.469 123.886 662.469 145.242" fill="none" stroke="#000" stroke-miterlimit="11.339"/>
        <polyline points="662.469 173.03 662.469 174.368 662.469 174.638 684.874 174.638 684.874 152.233 662.469 152.233 662.469 173.03" fill="none" stroke="#000" stroke-miterlimit="11.339"/>
        <polyline points="662.469 201.377 662.469 202.715 662.469 202.984 684.874 202.984 684.874 180.579 662.469 180.579 662.469 201.377" fill="none" stroke="#000" stroke-miterlimit="11.339"/>
        <polyline points="684.874 210.533 684.874 209.195 684.874 208.926 662.469 208.926 662.469 231.331 684.874 231.331 684.874 210.533" fill="none" stroke="#000" stroke-miterlimit="11.339"/>
        <polyline points="691.881 208.926 690.816 208.926 690.816 231.331 713.221 231.331 713.221 208.926 691.881 208.926" fill="none" stroke="#000" stroke-miterlimit="11.339"/>
        <polyline points="691.881 180.579 690.816 180.579 690.816 202.984 713.221 202.984 713.221 180.579 691.881 180.579" fill="none" stroke="#000" stroke-miterlimit="11.339"/>
        <polyline points="691.864 152.233 690.816 152.233 690.816 174.638 713.221 174.638 713.221 152.233 691.864 152.233" fill="none" stroke="#000" stroke-miterlimit="11.339"/>
        <polyline points="691.864 123.886 690.816 123.886 690.816 146.291 713.221 146.291 713.221 123.886 691.864 123.886" fill="none" stroke="#000" stroke-miterlimit="11.339"/>
        <polyline points="691.864 95.54 690.816 95.54 690.816 117.945 713.221 117.945 713.221 95.54 691.864 95.54" fill="none" stroke="#000" stroke-miterlimit="11.339"/>
        <polyline points="691.881 67.193 690.816 67.193 690.816 89.598 713.221 89.598 713.221 67.193 691.881 67.193" fill="none" stroke="#000" stroke-miterlimit="11.339"/>
        <polyline points="691.881 38.847 690.816 38.847 690.816 61.252 713.221 61.252 713.221 38.847 691.881 38.847" fill="none" stroke="#000" stroke-miterlimit="11.339"/>
        <polyline points="712.155 32.905 713.221 32.905 713.221 10.5 690.816 10.5 690.816 32.905 712.155 32.905" fill="none" stroke="#000" stroke-miterlimit="11.339"/>
        <polyline points="740.501 32.905 741.567 32.905 741.567 10.5 719.162 10.5 719.162 32.905 740.501 32.905" fill="none" stroke="#000" stroke-miterlimit="11.339"/>
        <polyline points="768.848 32.905 769.913 32.905 769.913 10.5 747.508 10.5 747.508 32.905 768.848 32.905" fill="none" stroke="#000" stroke-miterlimit="11.339"/>
        <polyline points="797.194 32.905 798.26 32.905 798.26 10.5 775.855 10.5 775.855 32.905 797.194 32.905" fill="none" stroke="#000" stroke-miterlimit="11.339"/>
        <polyline points="825.541 32.905 826.606 32.905 826.606 10.5 804.201 10.5 804.201 32.905 825.541 32.905" fill="none" stroke="#000" stroke-miterlimit="11.339"/>
        <polyline points="853.887 32.905 854.953 32.905 854.953 10.5 832.548 10.5 832.548 32.905 853.887 32.905" fill="none" stroke="#000" stroke-miterlimit="11.339"/>
        <polyline points="882.234 32.905 883.299 32.905 883.299 10.5 860.894 10.5 860.894 32.905 882.234 32.905" fill="none" stroke="#000" stroke-miterlimit="11.339"/>
        <polyline points="889.241 31.84 889.241 32.905 911.646 32.905 911.646 10.5 889.241 10.5 889.241 31.84" fill="none" stroke="#000" stroke-miterlimit="11.339"/>
        <polyline points="890.307 38.847 889.241 38.847 889.241 61.252 911.646 61.252 911.646 38.847 890.307 38.847" fill="none" stroke="#000" stroke-miterlimit="11.339"/>
        <polyline points="861.96 38.847 860.894 38.847 860.894 61.252 883.299 61.252 883.299 38.847 861.96 38.847" fill="none" stroke="#000" stroke-miterlimit="11.339"/>
        <polyline points="833.614 38.847 832.548 38.847 832.548 61.252 854.953 61.252 854.953 38.847 833.614 38.847" fill="none" stroke="#000" stroke-miterlimit="11.339"/>
        <polyline points="805.267 38.847 804.201 38.847 804.201 61.252 826.606 61.252 826.606 38.847 805.267 38.847" fill="none" stroke="#000" stroke-miterlimit="11.339"/>
        <polyline points="776.921 38.847 775.855 38.847 775.855 61.252 798.26 61.252 798.26 38.847 776.921 38.847" fill="none" stroke="#000" stroke-miterlimit="11.339"/>
        <polyline points="748.574 38.847 747.508 38.847 747.508 61.252 769.913 61.252 769.913 38.847 748.574 38.847" fill="none" stroke="#000" stroke-miterlimit="11.339"/>
        <polyline points="740.501 61.252 741.567 61.252 741.567 38.847 719.162 38.847 719.162 61.252 740.501 61.252" fill="none" stroke="#000" stroke-miterlimit="11.339"/>
        <polyline points="741.567 68.259 741.567 67.193 719.162 67.193 719.162 89.598 741.567 89.598 741.567 68.259" fill="none" stroke="#000" stroke-miterlimit="11.339"/>
        <polyline points="769.913 68.259 769.913 67.193 747.508 67.193 747.508 89.598 769.913 89.598 769.913 68.259" fill="none" stroke="#000" stroke-miterlimit="11.339"/>
        <polyline points="798.26 68.259 798.26 67.193 775.855 67.193 775.855 89.598 798.26 89.598 798.26 68.259" fill="none" stroke="#000" stroke-miterlimit="11.339"/>
        <polyline points="826.606 68.259 826.606 67.193 804.201 67.193 804.201 89.598 826.606 89.598 826.606 68.259" fill="none" stroke="#000" stroke-miterlimit="11.339"/>
        <polyline points="854.953 68.259 854.953 67.193 832.548 67.193 832.548 89.598 854.953 89.598 854.953 68.259" fill="none" stroke="#000" stroke-miterlimit="11.339"/>
        <polyline points="883.299 68.259 883.299 67.193 860.894 67.193 860.894 89.598 883.299 89.598 883.299 68.259" fill="none" stroke="#000" stroke-miterlimit="11.339"/>
        <polyline points="889.241 88.533 889.241 89.598 911.646 89.598 911.646 67.193 889.241 67.193 889.241 88.533" fill="none" stroke="#000" stroke-miterlimit="11.339"/>
        <polyline points="890.848 95.54 889.51 95.54 889.241 95.54 889.241 117.945 911.646 117.945 911.646 95.54 890.848 95.54" fill="none" stroke="#000" stroke-miterlimit="11.339"/>
        <polyline points="862.501 95.54 861.164 95.54 860.894 95.54 860.894 117.945 883.299 117.945 883.299 95.54 862.501 95.54" fill="none" stroke="#000" stroke-miterlimit="11.339"/>
        <polyline points="834.155 95.54 832.817 95.54 832.548 95.54 832.548 117.945 854.953 117.945 854.953 95.54 834.155 95.54" fill="none" stroke="#000" stroke-miterlimit="11.339"/>
        <polyline points="805.809 95.54 804.471 95.54 804.201 95.54 804.201 117.945 826.606 117.945 826.606 95.54 805.809 95.54" fill="none" stroke="#000" stroke-miterlimit="11.339"/>
        <polyline points="777.462 95.54 776.124 95.54 775.855 95.54 775.855 117.945 798.26 117.945 798.26 95.54 777.462 95.54" fill="none" stroke="#000" stroke-miterlimit="11.339"/>
        <polyline points="749.116 95.54 747.778 95.54 747.508 95.54 747.508 117.945 769.913 117.945 769.913 95.54 749.116 95.54" fill="none" stroke="#000" stroke-miterlimit="11.339"/>
        <polyline points="739.96 117.945 741.298 117.945 741.567 117.945 741.567 95.54 719.162 95.54 719.162 117.945 739.96 117.945" fill="none" stroke="#000" stroke-miterlimit="11.339"/>
        <polyline points="741.567 124.952 741.567 123.886 719.162 123.886 719.162 146.291 741.567 146.291 741.567 124.952" fill="none" stroke="#000" stroke-miterlimit="11.339"/>
        <polyline points="769.913 124.952 769.913 123.886 747.508 123.886 747.508 146.291 769.913 146.291 769.913 124.952" fill="none" stroke="#000" stroke-miterlimit="11.339"/>
        <polyline points="798.26 124.952 798.26 123.886 775.855 123.886 775.855 146.291 798.26 146.291 798.26 124.952" fill="none" stroke="#000" stroke-miterlimit="11.339"/>
        <polyline points="826.606 124.952 826.606 123.886 804.201 123.886 804.201 146.291 826.606 146.291 826.606 124.952" fill="none" stroke="#000" stroke-miterlimit="11.339"/>
        <polyline points="854.953 124.952 854.953 123.886 832.548 123.886 832.548 146.291 854.953 146.291 854.953 124.952" fill="none" stroke="#000" stroke-miterlimit="11.339"/>
        <polyline points="883.299 124.952 883.299 123.886 860.894 123.886 860.894 146.291 883.299 146.291 883.299 124.952" fill="none" stroke="#000" stroke-miterlimit="11.339"/>
        <polyline points="889.241 145.225 889.241 146.291 911.646 146.291 911.646 123.886 889.241 123.886 889.241 145.225" fill="none" stroke="#000" stroke-miterlimit="11.339"/>
        <polyline points="890.848 152.233 889.51 152.233 889.241 152.233 889.241 174.638 911.646 174.638 911.646 152.233 890.848 152.233" fill="none" stroke="#000" stroke-miterlimit="11.339"/>
        <polyline points="862.501 152.233 861.164 152.233 860.894 152.233 860.894 174.638 883.299 174.638 883.299 152.233 862.501 152.233" fill="none" stroke="#000" stroke-miterlimit="11.339"/>
        <polyline points="834.155 152.233 832.817 152.233 832.548 152.233 832.548 174.638 854.953 174.638 854.953 152.233 834.155 152.233" fill="none" stroke="#000" stroke-miterlimit="11.339"/>
        <polyline points="805.809 152.233 804.471 152.233 804.201 152.233 804.201 174.638 826.606 174.638 826.606 152.233 805.809 152.233" fill="none" stroke="#000" stroke-miterlimit="11.339"/>
        <polyline points="777.462 152.233 776.124 152.233 775.855 152.233 775.855 174.638 798.26 174.638 798.26 152.233 777.462 152.233" fill="none" stroke="#000" stroke-miterlimit="11.339"/>
        <polyline points="749.116 152.233 747.778 152.233 747.508 152.233 747.508 174.638 769.913 174.638 769.913 152.233 749.116 152.233" fill="none" stroke="#000" stroke-miterlimit="11.339"/>
        <polyline points="740.501 174.638 741.567 174.638 741.567 152.233 719.162 152.233 719.162 174.638 740.501 174.638" fill="none" stroke="#000" stroke-miterlimit="11.339"/>
        <polyline points="741.567 181.645 741.567 180.579 719.162 180.579 719.162 202.984 741.567 202.984 741.567 181.645" fill="none" stroke="#000" stroke-miterlimit="11.339"/>
        <polyline points="769.913 181.645 769.913 180.579 747.508 180.579 747.508 202.984 769.913 202.984 769.913 181.645" fill="none" stroke="#000" stroke-miterlimit="11.339"/>
        <polyline points="798.26 181.645 798.26 180.579 775.855 180.579 775.855 202.984 798.26 202.984 798.26 181.645" fill="none" stroke="#000" stroke-miterlimit="11.339"/>
        <polyline points="826.606 181.645 826.606 180.579 804.201 180.579 804.201 202.984 826.606 202.984 826.606 181.645" fill="none" stroke="#000" stroke-miterlimit="11.339"/>
        <polyline points="854.953 181.645 854.953 180.579 832.548 180.579 832.548 202.984 854.953 202.984 854.953 181.645" fill="none" stroke="#000" stroke-miterlimit="11.339"/>
        <polyline points="883.299 181.645 883.299 180.579 860.894 180.579 860.894 202.984 883.299 202.984 883.299 181.645" fill="none" stroke="#000" stroke-miterlimit="11.339"/>
        <polyline points="889.241 201.918 889.241 202.984 911.646 202.984 911.646 180.579 889.241 180.579 889.241 201.918" fill="none" stroke="#000" stroke-miterlimit="11.339"/>
        <polyline points="890.307 208.926 889.241 208.926 889.241 231.331 911.646 231.331 911.646 208.926 890.307 208.926" fill="none" stroke="#000" stroke-miterlimit="11.339"/>
        <polyline points="861.96 208.926 860.894 208.926 860.894 231.331 883.299 231.331 883.299 208.926 861.96 208.926" fill="none" stroke="#000" stroke-miterlimit="11.339"/>
        <polyline points="833.614 208.926 832.548 208.926 832.548 231.331 854.953 231.331 854.953 208.926 833.614 208.926" fill="none" stroke="#000" stroke-miterlimit="11.339"/>
        <polyline points="805.267 208.926 804.201 208.926 804.201 231.331 826.606 231.331 826.606 208.926 805.267 208.926" fill="none" stroke="#000" stroke-miterlimit="11.339"/>
        <polyline points="776.921 208.926 775.855 208.926 775.855 231.331 798.26 231.331 798.26 208.926 776.921 208.926" fill="none" stroke="#000" stroke-miterlimit="11.339"/>
        <polyline points="748.574 208.926 747.508 208.926 747.508 231.331 769.913 231.331 769.913 208.926 748.574 208.926" fill="none" stroke="#000" stroke-miterlimit="11.339"/>
        <polyline points="719.162 214.595 719.162 231.331 741.567 231.331 741.567 208.926 719.162 208.926 719.162 214.595" fill="none" stroke="#000" stroke-miterlimit="11.339"/>
        <polyline points="458.102 12.108 458.102 10.77 458.102 10.5 435.698 10.5 435.698 32.905 458.102 32.905 458.102 12.108" fill="none" stroke="#000" stroke-miterlimit="11.339"/>
        <polyline points="181.645 10.5 180.579 10.5 180.579 32.905 202.984 32.905 202.984 10.5 181.645 10.5" fill="none" stroke="#000" stroke-miterlimit="11.339"/>
        <polyline points="173.572 32.905 174.638 32.905 174.638 10.5 152.233 10.5 152.233 32.905 173.572 32.905" fill="none" stroke="#000" stroke-miterlimit="11.339"/>
        <polyline points="173.572 61.252 174.638 61.252 174.638 38.847 152.233 38.847 152.233 61.252 173.572 61.252" fill="none" stroke="#000" stroke-miterlimit="11.339"/>
        <polyline points="174.638 68.801 174.638 67.463 174.638 67.193 152.233 67.193 152.233 89.598 174.638 89.598 174.638 68.801" fill="none" stroke="#000" stroke-miterlimit="11.339"/>
        <polyline points="181.645 67.193 180.579 67.193 180.579 89.598 202.984 89.598 202.984 67.193 181.645 67.193" fill="none" stroke="#000" stroke-miterlimit="11.339"/>
        <polyline points="180.579 59.645 180.579 60.983 180.579 61.252 202.984 61.252 202.984 38.847 180.579 38.847 180.579 59.645" fill="none" stroke="#000" stroke-miterlimit="11.339"/>
        <polyline points="145.226 32.905 146.292 32.905 146.292 10.5 123.886 10.5 123.886 32.905 145.226 32.905" fill="none" stroke="#000" stroke-miterlimit="11.339"/>
        <polyline points="116.896 89.598 117.945 89.598 117.945 67.193 95.54 67.193 95.54 89.598 116.896 89.598" fill="none" stroke="#000" stroke-miterlimit="11.339"/>
        <polyline points="116.896 117.945 117.945 117.945 117.945 95.54 95.54 95.54 95.54 117.945 116.896 117.945" fill="none" stroke="#000" stroke-miterlimit="11.339"/>
        <polyline points="116.896 146.291 117.945 146.291 117.945 123.886 95.54 123.886 95.54 146.291 116.896 146.291" fill="none" stroke="#000" stroke-miterlimit="11.339"/>
        <polyline points="117.945 153.281 117.945 152.233 95.54 152.233 95.54 174.638 117.945 174.638 117.945 153.281" fill="none" stroke="#000" stroke-miterlimit="11.339"/>
        <polyline points="124.935 152.233 123.886 152.233 123.886 174.638 146.292 174.638 146.292 152.233 124.935 152.233" fill="none" stroke="#000" stroke-miterlimit="11.339"/>
        <polyline points="145.243 146.291 146.292 146.291 146.292 123.886 123.886 123.886 123.886 146.291 145.243 146.291" fill="none" stroke="#000" stroke-miterlimit="11.339"/>
        <polyline points="152.233 145.242 152.233 146.291 174.638 146.291 174.638 123.886 152.233 123.886 152.233 145.242" fill="none" stroke="#000" stroke-miterlimit="11.339"/>
        <polyline points="153.282 152.233 152.233 152.233 152.233 174.638 174.638 174.638 174.638 152.233 153.282 152.233" fill="none" stroke="#000" stroke-miterlimit="11.339"/>
        <polyline points="124.952 180.579 123.886 180.579 123.886 202.984 146.292 202.984 146.292 180.579 124.952 180.579" fill="none" stroke="#000" stroke-miterlimit="11.339"/>
        <polyline points="117.945 183.142 117.945 180.579 95.54 180.579 95.54 202.984 117.945 202.984 117.945 183.142" fill="none" stroke="#000" stroke-miterlimit="11.339"/>
        <polyline points="39.913 208.926 38.847 208.926 38.847 231.331 61.252 231.331 61.252 208.926 39.913 208.926" fill="none" stroke="#000" stroke-miterlimit="11.339"/>
        <polyline points="32.906 210.533 32.906 209.195 32.906 208.926 10.501 208.926 10.501 231.331 32.906 231.331 32.906 210.533" fill="none" stroke="#000" stroke-miterlimit="11.339"/>
        <polyline points="31.84 202.984 32.906 202.984 32.906 180.579 10.501 180.579 10.501 202.984 31.84 202.984" fill="none" stroke="#000" stroke-miterlimit="11.339"/>
        <polyline points="38.847 201.377 38.847 202.715 38.847 202.984 61.252 202.984 61.252 180.579 38.847 180.579 38.847 201.377" fill="none" stroke="#000" stroke-miterlimit="11.339"/>
        <rect x=".5" y=".5" width="921.147" height="240.832" fill="none" stroke="red" stroke-miterlimit="11.339"/>
      </g>
    </g>
  </g>
</svg>